<svg width="67" height="51" viewBox="0 0 67 51" fill="none" xmlns="http://www.w3.org/2000/svg">
<g opacity="0.75" filter="url(#filter0_b_401_1712)">
<g clip-path="url(#clip0_401_1712)">
<path fill-rule="evenodd" clip-rule="evenodd" d="M20.9589 28.0074C20.5154 28.0074 20.116 28.1435 19.7617 28.416C19.407 28.6882 19.1222 29.089 18.9071 29.6186C18.6921 30.1477 18.5845 30.7167 18.5845 31.3249C18.5845 31.8861 18.6995 32.3028 18.93 32.5754C19.1602 32.8475 19.5276 32.984 20.0317 32.984C20.5225 32.984 21.0904 32.8546 21.7356 32.5958V33.9066C21.0668 34.1653 20.3945 34.2947 19.719 34.2947C18.8652 34.2947 18.2013 34.0437 17.7275 33.541C17.2537 33.0386 17.0167 32.3268 17.0167 31.4056C17.0167 30.525 17.1916 29.7141 17.541 28.973C17.8904 28.232 18.3578 27.669 18.9427 27.284C19.5276 26.8994 20.1999 26.7069 20.9593 26.7069C21.3795 26.7069 21.7525 26.7446 22.0786 26.8204C22.4047 26.8962 22.7541 27.0347 23.1274 27.2364L22.5323 28.4968C22.1763 28.2983 21.8819 28.1675 21.6503 28.1037C21.4179 28.0392 21.1877 28.0074 20.9589 28.0074ZM28.4358 34.1935H26.893L27.5685 31.0122H25.1941L24.5186 34.1935H22.9808L24.5387 26.8225H26.0814L25.4712 29.7113H27.8459L28.4559 26.8225H29.9937L28.4358 34.1935ZM34.1886 32.4389H31.804L30.9367 34.1935H29.3235L33.1853 26.7922H35.0658L35.8068 34.1935H34.3095L34.1886 32.4389ZM34.1128 31.1282L33.982 29.3637C33.9482 28.9233 33.9316 28.4982 33.9316 28.0882V27.9066C33.7835 28.3099 33.6006 28.7368 33.382 29.187L32.434 31.1282H34.1128ZM42.427 28.9702C42.427 29.7804 42.1421 30.4164 41.5724 30.8786C41.0027 31.3407 40.2168 31.5717 39.2152 31.5717H38.7816L38.232 34.1935H36.6942L38.2521 26.8225H39.9563C40.7696 26.8225 41.3848 27.0016 41.8015 27.3594C42.2182 27.7173 42.427 28.2546 42.427 28.9702ZM39.0591 30.2912H39.3415C39.8188 30.2912 40.1943 30.1752 40.4682 29.9433C40.7421 29.7113 40.8789 29.4007 40.8789 29.0108C40.8789 28.4058 40.5514 28.1033 39.896 28.1033H39.523L39.0591 30.2912ZM47.1863 32.0155C47.1863 32.7181 46.9374 33.2734 46.44 33.682C45.9426 34.0903 45.2685 34.2944 44.4185 34.2944C43.6753 34.2944 43.0774 34.1431 42.6237 33.8406V32.4594C43.272 32.8225 43.8742 33.0037 44.4284 33.0037C44.8049 33.0037 45.0989 32.9325 45.3108 32.7894C45.5227 32.6466 45.6284 32.4506 45.6284 32.202C45.6284 32.0575 45.6059 31.9306 45.5604 31.8213C45.5153 31.7123 45.4504 31.6104 45.3665 31.5163C45.2822 31.4222 45.0739 31.2508 44.7414 31.0019C44.2775 30.6691 43.9514 30.3399 43.7631 30.0138C43.5748 29.6877 43.4807 29.3365 43.4807 28.96C43.4807 28.5264 43.5847 28.1389 43.7934 27.7977C44.0018 27.4567 44.2983 27.1909 44.6833 27.0009C45.0682 26.8112 45.5107 26.716 46.012 26.716C46.7411 26.716 47.4084 26.8824 48.0134 27.2153L47.4638 28.3899C46.9396 28.1414 46.4555 28.0169 46.0117 28.0169C45.7324 28.0169 45.504 28.0927 45.3259 28.244C45.1476 28.3952 45.0587 28.5951 45.0587 28.844C45.0587 29.0492 45.1141 29.2279 45.2251 29.3809C45.3358 29.5339 45.5847 29.7363 45.9715 29.9884C46.378 30.2574 46.6822 30.5539 46.8839 30.8782C47.0855 31.2029 47.1863 31.5819 47.1863 32.0155ZM11.42 38.4496L14.0141 22.9686V22.969H53.8385L52.0818 33.6328C51.6242 36.4112 49.2223 38.4496 46.4065 38.4496H11.42Z" fill="#704FAD"/>
<path fill-rule="evenodd" clip-rule="evenodd" d="M14.0939 17.3398C14.554 14.5955 16.9291 12.5853 19.7114 12.5853H54.6897L53.2041 21.6031H13.3796L14.0939 17.3398ZM45.5728 17.0526C45.5247 17.4273 45.38 17.783 45.1529 18.0849L43.5161 20.2619C43.4255 20.4085 43.5781 20.5844 43.7361 20.515L50.8723 17.3819C51.1004 17.2814 51.1156 16.9631 50.8974 16.8422L45.0419 13.5913C44.8067 13.4609 44.5307 13.6781 44.6023 13.9372L45.4272 15.9478C45.5707 16.2972 45.6208 16.6779 45.5728 17.0526Z" fill="#704FAD"/>
</g>
</g>
<defs>
<filter id="filter0_b_401_1712" x="-45.0482" y="-45.4426" width="157.106" height="141.106" filterUnits="userSpaceOnUse" color-interpolation-filters="sRGB">
<feFlood flood-opacity="0" result="BackgroundImageFix"/>
<feGaussianBlur in="BackgroundImageFix" stdDeviation="22.7765"/>
<feComposite in2="SourceAlpha" operator="in" result="effect1_backgroundBlur_401_1712"/>
<feBlend mode="normal" in="SourceGraphic" in2="effect1_backgroundBlur_401_1712" result="shape"/>
</filter>
<clipPath id="clip0_401_1712">
<rect width="45.7563" height="28" fill="white" transform="translate(10.2423 10.5365)"/>
</clipPath>
</defs>
</svg>
