<svg width="67" height="51" viewBox="0 0 67 51" fill="none" xmlns="http://www.w3.org/2000/svg">
<g opacity="0.75" filter="url(#filter0_b_401_1731)">
<g clip-path="url(#clip0_401_1731)">
<path fill-rule="evenodd" clip-rule="evenodd" d="M32.7199 20.7481C32.8407 20.5676 32.9633 20.3865 33.1178 20.231C34.0423 21.3564 34.5825 22.7642 34.6557 24.198C34.7482 25.8679 34.1985 27.5698 33.1151 28.878C32.8216 28.5532 32.5927 28.1769 32.3805 27.7994C31.5939 26.363 31.3618 24.6566 31.7207 23.0714C31.9013 22.2462 32.2431 21.4542 32.7199 20.7481ZM21.6365 20.331L21.6404 20.3359C22.452 21.3892 22.9688 22.661 23.0662 23.9737C23.2292 25.6702 22.6994 27.4088 21.6416 28.7694L21.6386 28.7734C21.566 28.6702 21.4927 28.5681 21.4189 28.4654C20.5552 27.2492 20.1304 25.7558 20.187 24.2849C20.2394 23.0243 20.6379 21.7741 21.363 20.722C21.4546 20.592 21.547 20.4623 21.6365 20.331ZM44.5821 20.3362L44.5857 20.331C44.9169 20.7973 45.2386 21.2745 45.4572 21.8014C46.1551 23.3669 46.2257 25.1782 45.662 26.7927C45.4215 27.5042 45.0404 28.1631 44.5871 28.7681L44.5833 28.7739C43.5457 27.4349 43.0085 25.7343 43.1472 24.0643C43.2308 22.7202 43.7508 21.4139 44.5821 20.3362Z" fill="#704FAD"/>
<path fill-rule="evenodd" clip-rule="evenodd" d="M18.8112 18.1597C16.9706 17.3583 14.7794 17.354 12.9343 18.1436C11.5241 18.7392 10.3247 19.785 9.56141 21.0752C8.83992 22.2846 8.51106 23.7076 8.62807 25.0981C8.73072 26.4629 9.26795 27.7925 10.1436 28.8682C11.0997 30.0535 12.4616 30.9293 13.966 31.3154C15.3872 31.6842 16.9251 31.6253 18.3097 31.1432C19.6265 30.6885 20.7975 29.8527 21.6385 28.7737C21.566 28.6705 21.4927 28.5684 21.4189 28.4657C20.5552 27.2494 20.1304 25.7561 20.187 24.2851C20.2394 23.0245 20.6379 21.7743 21.363 20.7222C21.3812 20.6964 21.3995 20.6705 21.4178 20.6446C21.4912 20.5406 21.5648 20.4365 21.6365 20.3312C20.9025 19.3944 19.9227 18.6378 18.8112 18.1597ZM53.8703 18.4231C52.2827 17.5656 50.3548 17.3373 48.5937 17.7639C47.0072 18.1454 45.5678 19.0684 44.5856 20.3312C44.9169 20.7975 45.2386 21.2747 45.4572 21.8017C46.1551 23.3672 46.2256 25.1785 45.6619 26.7929C45.4214 27.5045 45.0404 28.1633 44.5871 28.7684C45.7345 30.276 47.5531 31.2814 49.4746 31.502C50.9933 31.6831 52.5707 31.3939 53.9051 30.6675C55.1662 29.9859 56.21 28.9334 56.8545 27.6839C57.3509 26.7167 57.6304 25.6363 57.6024 24.5542C57.6318 23.3273 57.2742 22.1026 56.641 21.0425C55.9844 19.9495 55.0171 19.0319 53.8703 18.4231ZM29.0931 17.7395C27.7433 17.4365 26.302 17.5055 24.9954 17.9548C23.6697 18.411 22.4803 19.2441 21.6403 20.3361C22.452 21.3895 22.9687 22.6613 23.0661 23.974C23.2292 25.6704 22.6994 27.409 21.6416 28.7696C22.6181 30.0428 24.0697 30.9635 25.6603 31.3468C26.8435 31.6293 28.1009 31.6241 29.2797 31.324C30.7842 30.9428 32.1474 30.075 33.1109 28.8966C33.597 29.4822 34.1732 30.0011 34.8262 30.4105C36.5761 31.5362 38.8467 31.8501 40.8585 31.2674C42.3342 30.8495 43.6579 29.9594 44.5833 28.7742C43.5457 27.4351 43.0084 25.7345 43.1472 24.0646C43.2308 22.7204 43.7508 21.4142 44.582 20.3365C43.9501 19.5169 43.1203 18.8433 42.1875 18.363C40.6668 17.5791 38.8527 17.3597 37.1746 17.7297C35.5778 18.0773 34.1226 18.9738 33.1085 20.2128C32.1102 18.9827 30.6685 18.0962 29.0931 17.7395ZM47.8844 21.1931C47.6492 21.1939 47.4141 21.1947 47.179 21.1939C47.1803 22.7443 47.1799 24.2947 47.1796 25.8452C47.1795 26.5402 47.1794 27.2351 47.1794 27.9301C47.3341 27.9302 47.4889 27.93 47.6436 27.9297C47.9867 27.9292 48.3296 27.9287 48.6726 27.9318C48.6757 27.1857 48.6751 26.4397 48.6745 25.6937C48.6738 24.8426 48.6732 23.9915 48.6779 23.1403C49.602 24.6341 50.5217 26.1304 51.4415 27.6269L51.6267 27.9283C51.9253 27.931 52.224 27.9304 52.5228 27.9299C52.8757 27.9292 53.2287 27.9286 53.5816 27.9332C53.5877 26.6532 53.5868 25.3733 53.586 24.0933C53.5853 23.1266 53.5847 22.1598 53.587 21.193C53.3798 21.1939 53.1727 21.1936 52.9656 21.1932C52.6733 21.1926 52.3811 21.1921 52.0887 21.1953C52.0907 22.755 52.0901 24.3146 52.0887 25.8747C51.1257 24.3195 50.165 22.7631 49.2178 21.1993C48.7733 21.1901 48.3288 21.1916 47.8844 21.1931ZM38.2785 24.3022C38.4269 23.9269 38.5752 23.5517 38.7171 23.1742C38.993 23.8622 39.2683 24.5506 39.5376 25.2411C39.1161 25.2391 38.6947 25.2397 38.2735 25.2403C38.1529 25.2405 38.0322 25.2406 37.9116 25.2408C38.0314 24.927 38.1549 24.6146 38.2785 24.3022ZM38.3576 21.1933C38.2858 21.1935 38.2141 21.1937 38.1423 21.1939C37.609 22.4262 37.0741 23.6579 36.5393 24.8895C36.0993 25.9029 35.6592 26.9163 35.22 27.9301C35.4511 27.9293 35.6824 27.9296 35.9137 27.9299C36.2357 27.9303 36.5578 27.9307 36.8799 27.9283C37.0088 27.5877 37.1434 27.249 37.278 26.9104C37.3315 26.7758 37.3849 26.6413 37.438 26.5066C38.3095 26.5057 39.181 26.5048 40.052 26.5071C40.1376 26.7225 40.2254 26.937 40.3132 27.1513C40.4188 27.4092 40.5244 27.6671 40.6261 27.9264C40.9645 27.9315 41.3029 27.9307 41.6412 27.9299C41.8693 27.9293 42.0973 27.9288 42.3254 27.9301C41.9438 27.0548 41.5612 26.1799 41.1785 25.305C40.5798 23.936 39.9811 22.5669 39.3862 21.1962C39.0433 21.1914 38.7005 21.1923 38.3576 21.1933ZM26.4015 26.6658C26.3968 26.1604 26.3982 25.6556 26.4009 25.15C26.5411 25.1502 26.6813 25.1499 26.8215 25.1495C27.0985 25.1488 27.3757 25.1482 27.6528 25.1514C27.9677 25.1667 28.3117 25.2201 28.5466 25.4421C28.821 25.7201 28.7612 26.2179 28.4556 26.4533C28.2579 26.6057 27.9978 26.665 27.748 26.6646C27.6003 26.6647 27.4525 26.6644 27.3048 26.6642C27.0036 26.6637 26.7025 26.6631 26.4015 26.6658ZM26.3989 23.1499C26.3993 22.9202 26.3996 22.6904 26.3973 22.4608C26.7128 22.4578 27.0288 22.4583 27.3444 22.4589L27.423 22.459C27.6826 22.4639 27.9597 22.5038 28.1701 22.6622C28.51 22.9141 28.4752 23.4827 28.126 23.712C27.9352 23.8411 27.6965 23.8851 27.4676 23.8842C27.3355 23.8838 27.2034 23.8838 27.0712 23.8839C26.8477 23.8839 26.6243 23.8839 26.4009 23.8819C26.3982 23.638 26.3985 23.3939 26.3989 23.1499ZM26.1223 21.193C25.7152 21.1925 25.3082 21.1921 24.9013 21.1948C24.9034 22.4779 24.9031 23.7611 24.9028 25.0443C24.9026 26.0065 24.9024 26.9687 24.9031 27.9309C25.4101 27.9293 25.9172 27.9296 26.4244 27.9299C26.8958 27.9302 27.3672 27.9305 27.8385 27.9292C28.4915 27.9027 29.1818 27.753 29.68 27.3198C30.2866 26.7914 30.3783 25.8451 29.9847 25.1739C29.725 24.7424 29.2419 24.4635 28.7329 24.4048C29.0044 24.3106 29.2687 24.1801 29.4725 23.9788C29.7348 23.729 29.8783 23.38 29.9015 23.0271C29.9224 22.6473 29.8542 22.2463 29.6235 21.9298C29.4098 21.6279 29.0603 21.4454 28.705 21.3428C28.179 21.1929 27.628 21.193 27.0838 21.1931C27.0256 21.1932 26.9675 21.1932 26.9095 21.193C26.6471 21.1935 26.3846 21.1933 26.1223 21.193ZM16.4604 21.1933C16.0048 21.1928 15.549 21.1923 15.0934 21.1939C15.0943 22.2223 15.094 23.2508 15.0938 24.2794C15.0935 25.4965 15.0932 26.7135 15.0947 27.9304C15.6084 27.9295 16.1218 27.9292 16.6355 27.9304C16.6373 26.6132 16.637 25.2958 16.6367 23.9783C16.6365 23.0501 16.6362 22.1218 16.6368 21.1935C16.578 21.1935 16.5192 21.1934 16.4604 21.1933Z" fill="#704FAD"/>
</g>
</g>
<defs>
<filter id="filter0_b_401_1731" x="-69.96" y="-70.3544" width="206.929" height="190.929" filterUnits="userSpaceOnUse" color-interpolation-filters="sRGB">
<feFlood flood-opacity="0" result="BackgroundImageFix"/>
<feGaussianBlur in="BackgroundImageFix" stdDeviation="35.2324"/>
<feComposite in2="SourceAlpha" operator="in" result="effect1_backgroundBlur_401_1731"/>
<feBlend mode="normal" in="SourceGraphic" in2="effect1_backgroundBlur_401_1731" result="shape"/>
</filter>
<clipPath id="clip0_401_1731">
<rect width="48.9995" height="14" fill="white" transform="translate(8.61975 17.5367)"/>
</clipPath>
</defs>
</svg>
