<svg width="67" height="51" viewBox="0 0 67 51" fill="none" xmlns="http://www.w3.org/2000/svg">
<g opacity="0.75" filter="url(#filter0_b_401_1720)">
<path d="M20.9203 22.3642H17.9153C17.9153 21.8713 17.8573 21.5403 17.7419 21.3719C17.5631 21.1228 17.0699 20.998 16.262 20.998C15.4776 20.998 14.9577 21.0695 14.704 21.2133C14.4503 21.3575 14.3232 21.6711 14.3232 22.1535C14.3232 22.5903 14.4357 22.8783 14.661 23.0161C14.8226 23.1139 15.0358 23.1715 15.3016 23.1886L15.9075 23.2314C17.2064 23.3173 18.0173 23.3783 18.3407 23.4128C19.3678 23.5164 20.1124 23.7893 20.5743 24.232C20.9377 24.5773 21.1546 25.0287 21.2236 25.5857C21.2643 25.9193 21.2842 26.2964 21.2842 26.7156C21.2842 27.6819 21.1921 28.3893 21.0076 28.8375C20.6733 29.6602 19.9216 30.18 18.7523 30.3982C18.2623 30.4903 17.5129 30.5365 16.5047 30.5365C14.8219 30.5365 13.6494 30.4364 12.9873 30.235C12.1748 29.9884 11.6389 29.4888 11.3797 28.7367C11.2352 28.3177 11.1639 27.6202 11.1639 26.6436H14.1685L14.1687 26.8934C14.1687 27.4145 14.3184 27.7493 14.6176 27.8986C14.8246 28.0014 15.0747 28.0556 15.3686 28.062H16.4734C17.037 28.062 17.3968 28.0332 17.5519 27.9751C17.8283 27.8666 18.0095 27.6917 18.0961 27.4499C18.1421 27.3007 18.1649 27.1083 18.1649 26.8722C18.1649 26.344 17.9723 26.0226 17.5871 25.9072C17.4427 25.8617 16.773 25.798 15.5773 25.7178C14.6169 25.6492 13.9498 25.5831 13.5763 25.5191C12.5926 25.3352 11.9369 24.9567 11.6098 24.3821C11.3221 23.8942 11.1786 23.1557 11.1786 22.1675C11.1786 21.4153 11.2563 20.8119 11.4117 20.3583C11.5671 19.9044 11.8176 19.5597 12.1632 19.3241C12.6701 18.9621 13.318 18.75 14.1068 18.6864C14.7636 18.6291 15.4916 18.5998 16.2926 18.5998C17.5535 18.5998 18.4524 18.6725 18.9882 18.8162C20.2957 19.1675 20.9494 20.1514 20.9494 21.7684C20.9494 21.901 20.9395 22.0994 20.9201 22.3645M34.1329 30.5365V18.5365H40.1502C40.9755 18.5365 41.6051 18.6037 42.038 18.7385C43.0276 19.0485 43.6916 19.6836 44.0317 20.6428C44.2072 21.1465 44.2952 21.9049 44.2952 22.9173C44.2952 24.1346 44.1978 25.009 44.0049 25.5418C43.6189 26.5949 42.8247 27.2017 41.625 27.3587C41.484 27.3825 40.8838 27.4033 39.824 27.4205L39.2881 27.4383H37.3625V30.5365H34.1329ZM37.3628 24.6548H39.3763C40.0146 24.6319 40.403 24.5828 40.5426 24.506C40.7334 24.4011 40.8617 24.1908 40.9254 23.8756C40.9663 23.6661 40.9867 23.3541 40.9867 22.9397C40.9867 22.4321 40.946 22.0559 40.8646 21.8102C40.7485 21.4658 40.4704 21.2565 40.0297 21.1801C39.9424 21.1687 39.7338 21.1625 39.4033 21.1625H37.363L37.3628 24.6548ZM51.1892 28.4626H46.871L46.2907 30.5365H42.9492L46.5551 18.5365H51.4269L55.0766 30.5365H51.8054L51.1892 28.4626ZM50.5479 26.125L49.0344 20.9232L47.566 26.125H50.5479Z" fill="#704FAD"/>
<path d="M29.6756 20.2246C31.0076 20.2246 32.1965 20.8383 32.9779 21.7993L33.6741 20.3066C32.5853 19.2773 31.1036 18.6426 29.469 18.6426C26.9241 18.6426 24.7471 20.1798 23.8539 22.3556H22.4963L21.6946 24.0741H23.4409C23.4271 24.2342 23.4198 24.3949 23.4192 24.5556C23.4192 24.7524 23.4295 24.9473 23.4489 25.1396H22.5713L21.77 26.8585H23.8955C24.8143 28.9792 26.9641 30.468 29.469 30.468C30.7315 30.468 31.903 30.0897 32.8728 29.4434V27.3368C32.0916 28.2261 30.9493 28.7881 29.6756 28.7881C28.1868 28.7881 26.8772 28.0204 26.1148 26.8585H30.5653L31.3669 25.1396H25.4602C25.4079 24.7867 25.3995 24.4288 25.435 24.0738H31.864L32.6653 22.3556H25.9904C26.7287 21.0817 28.1022 20.2246 29.6756 20.2246Z" fill="#704FAD"/>
<path d="M29.6762 20.276C30.9456 20.276 32.1345 20.8432 32.9385 21.8319L32.9904 21.8959L33.0256 21.8212L33.7215 20.3285L33.7371 20.2945L33.7103 20.2689C32.566 19.1872 31.0598 18.5916 29.4696 18.5916C28.2278 18.5916 27.0332 18.9543 26.0139 19.6408C25.019 20.3112 24.2556 21.2432 23.807 22.3361L23.8545 22.3041H22.4638L22.4501 22.3338L21.6485 24.0525L21.6143 24.1259H23.4415L23.3901 24.0699C23.3762 24.2315 23.369 24.3936 23.3684 24.5558C23.3684 24.7487 23.3784 24.9473 23.3981 25.145L23.4495 25.0883H22.5394L22.5257 25.118L21.7237 26.8367L21.6897 26.9101H23.8961L23.8488 26.879C24.8069 29.0904 27.0133 30.5196 29.4696 30.5196C30.701 30.5196 31.8876 30.1628 32.9019 29.4867L32.9246 29.4717V27.2001L32.8345 27.303C32.4403 27.7527 31.9546 28.1132 31.41 28.3604C30.8654 28.6076 30.2743 28.7358 29.6762 28.7364C28.2564 28.7364 26.9413 28.0233 26.1583 26.8303L26.1153 26.9103H30.5991L30.6128 26.8806L31.4143 25.1614L31.4486 25.0883H25.4605L25.5117 25.1324C25.4601 24.7838 25.4517 24.4301 25.4868 24.0795L25.4354 24.1259H31.8975L31.9112 24.0962L32.7125 22.3775L32.747 22.3041H25.991L26.0356 22.3816C26.7882 21.0827 28.1833 20.276 29.6762 20.276ZM25.991 22.4072H32.6656L32.6188 22.3338L31.8177 24.0525L31.8643 24.0228H25.3888L25.3838 24.0694C25.3485 24.4285 25.3571 24.7905 25.4094 25.1475L25.4162 25.1916H31.3675L31.3208 25.118L30.5195 26.8367L30.5659 26.807H26.0196L26.0722 26.8865C26.8744 28.1097 28.2217 28.839 29.6764 28.839C30.9129 28.839 32.0922 28.3042 32.9122 27.3711L32.8217 27.337V29.4435L32.8446 29.401C31.8472 30.0654 30.6802 30.4165 29.4696 30.4165C27.0542 30.4165 24.8853 29.0116 23.9437 26.8379L23.9299 26.807H21.7706L21.8177 26.8808L22.6187 25.1614L22.5719 25.1916H23.5067L23.5009 25.1345C23.4815 24.9402 23.4712 24.7453 23.4712 24.5558C23.4712 24.4102 23.4786 24.2539 23.4929 24.0786L23.4975 24.0228H21.6954L21.7418 24.0962L22.5433 22.3775L22.4969 22.4072H23.8888L23.9018 22.3752C24.3432 21.3012 25.0935 20.3854 26.0717 19.7263C27.0732 19.0519 28.2486 18.6951 29.4696 18.6951C31.0335 18.6951 32.5139 19.2802 33.6393 20.3441L33.6278 20.2846L32.9321 21.7775L33.019 21.7666C32.1946 20.7541 30.9766 20.1729 29.6762 20.1729C28.1463 20.1729 26.7176 20.9993 25.9462 22.3297L25.9014 22.4072H25.991Z" fill="#704FAD"/>
</g>
<defs>
<filter id="filter0_b_401_1720" x="-69.96" y="-70.3544" width="206.929" height="190.929" filterUnits="userSpaceOnUse" color-interpolation-filters="sRGB">
<feFlood flood-opacity="0" result="BackgroundImageFix"/>
<feGaussianBlur in="BackgroundImageFix" stdDeviation="35.2324"/>
<feComposite in2="SourceAlpha" operator="in" result="effect1_backgroundBlur_401_1720"/>
<feBlend mode="normal" in="SourceGraphic" in2="effect1_backgroundBlur_401_1720" result="shape"/>
</filter>
</defs>
</svg>
