<svg width="67" height="51" viewBox="0 0 67 51" fill="none" xmlns="http://www.w3.org/2000/svg">
<g opacity="0.75" filter="url(#filter0_b_401_1725)">
<g clip-path="url(#clip0_401_1725)">
<path d="M28.5228 17.5365L27.2677 23.6763H27.3063C28.1367 22.4218 29.3341 21.7646 30.5894 21.7646C32.6367 21.7646 33.4091 23.4645 33.4091 25.1252C33.4091 27.9831 31.3424 31.5365 27.5963 31.5365C25.9546 31.5365 24.7189 30.8608 24.7189 29.123C24.7189 28.6787 24.7959 28.1184 24.8735 27.6741L26.9198 17.5365H28.523H28.5228ZM26.4762 27.7125C26.3987 28.0215 26.3409 28.4078 26.36 28.891C26.36 29.7791 26.8623 30.2812 27.8666 30.2812C30.2807 30.2812 31.7481 27.404 31.7481 25.3373C31.7481 24.1784 31.2458 23.097 29.9717 23.097C28.5807 23.097 27.152 24.5258 26.6886 26.728L26.4762 27.7122V27.7125ZM40.0324 31.3239C40.0324 30.7639 40.1296 29.8755 40.2448 28.9098H40.2061C39.1824 30.8412 37.9078 31.5362 36.5754 31.5362C34.9342 31.5362 33.8915 30.2237 33.8915 28.4462C33.8915 25.2023 36.2854 21.7646 40.3607 21.7646C41.2493 21.7646 42.2336 21.9192 42.8712 22.1319L41.9251 26.9983C41.6161 28.6207 41.4802 30.2819 41.5194 31.3241H40.0324V31.3239ZM41.0751 23.1748C40.8437 23.1169 40.496 23.0393 39.9551 23.0393C37.5413 23.0393 35.5713 25.5696 35.5517 28.1568C35.5517 29.1995 35.919 30.2237 37.155 30.2237C38.4876 30.2237 40.0708 28.4854 40.5347 25.9945L41.0751 23.1748ZM49.2604 29.6825C48.7774 29.9147 48.044 30.2044 47.0974 30.2044C45.5722 30.2044 44.7802 29.2188 44.7802 27.7127C44.7802 25.5116 46.3059 23.1171 48.7385 23.1171C49.4346 23.1171 49.9549 23.2903 50.3222 23.4648L50.7858 22.1901C50.4964 22.0357 49.7042 21.7845 48.8351 21.7845C45.4756 21.7845 43.1195 24.7199 43.1195 27.906C43.1195 29.8959 44.2975 31.5368 46.7116 31.5368C47.9667 31.5368 48.9321 31.1891 49.415 30.9571L49.2604 29.6827V29.6825ZM50.4212 30.8798C50.8465 31.2079 51.7343 31.5169 52.7386 31.536C54.7083 31.536 56.3111 30.4162 56.3111 28.4465C56.3111 27.4043 55.5969 26.5932 54.5542 25.9948C53.7239 25.5306 53.2795 25.1059 53.2795 24.4302C53.2795 23.6189 53.9746 23.0199 54.9408 23.0199C55.6353 23.0199 56.234 23.2524 56.5626 23.4452L57.0064 22.2288C56.6593 21.9968 55.9059 21.7651 55.0563 21.7651C53.0865 21.7651 51.6771 23.0202 51.6771 24.6619C51.6771 25.6085 52.2752 26.4383 53.3569 27.0373C54.3225 27.5777 54.6506 28.022 54.6506 28.7557C54.6506 29.5861 53.9555 30.2817 52.8742 30.2817C52.1209 30.2817 51.3101 29.9721 50.8658 29.7023L50.4215 30.8804L50.4212 30.8798Z" fill="#704FAD"/>
<path d="M11.6365 27.0586C11.1117 27.0586 10.6022 27.0114 10.1148 26.9246L11.8512 17.8586C15.2667 17.9409 18.0006 19.9674 18.0006 22.4561C18.0006 24.9448 15.1512 27.0586 11.6365 27.0586ZM14.8438 27.5328C17.9553 26.8753 20.2171 24.8937 20.2171 22.5477C20.2171 20.2017 17.8933 18.1665 14.7162 17.5366H13.943C17.139 18.0455 19.5305 20.1003 19.5305 22.5599C19.5305 25.0195 16.9118 27.2664 13.4937 27.6459C13.58 27.6424 13.6666 27.6406 13.7537 27.6363C14.1241 27.617 14.4871 27.581 14.8438 27.5328ZM16.5207 17.5366C19.8586 18.2523 22.2858 20.2472 22.4158 22.7185C22.5887 25.9904 18.6676 28.8578 13.6578 29.1215C12.2751 29.1949 10.9544 29.0614 9.76313 28.7619L9.23145 31.5342H17.2454C20.4236 31.5128 22.4005 28.925 22.9168 26.3932L24.6064 17.5366H16.5207ZM21.7144 22.1052C21.5929 19.8045 19.0285 17.9918 15.6146 17.5366H15.2354C18.5757 18.1679 21.0191 20.1715 21.0191 22.5474C21.0191 24.3488 19.616 25.9375 17.4803 26.8756C20.091 25.8895 21.8188 24.0816 21.7144 22.1052Z" fill="#704FAD"/>
</g>
</g>
<defs>
<filter id="filter0_b_401_1725" x="-69.96" y="-70.3544" width="206.929" height="190.929" filterUnits="userSpaceOnUse" color-interpolation-filters="sRGB">
<feFlood flood-opacity="0" result="BackgroundImageFix"/>
<feGaussianBlur in="BackgroundImageFix" stdDeviation="35.2324"/>
<feComposite in2="SourceAlpha" operator="in" result="effect1_backgroundBlur_401_1725"/>
<feBlend mode="normal" in="SourceGraphic" in2="effect1_backgroundBlur_401_1725" result="shape"/>
</filter>
<clipPath id="clip0_401_1725">
<rect width="47.7771" height="14" fill="white" transform="translate(9.23047 17.5365)"/>
</clipPath>
</defs>
</svg>
