<svg width="25" height="25" viewBox="0 0 25 25" fill="none" xmlns="http://www.w3.org/2000/svg">
<path d="M22.561 5.33374C22.5581 7.86896 21.5496 10.2995 19.7569 12.0922C17.9643 13.8848 15.5337 14.8933 12.9985 14.8962H5.35697L8.89603 18.4362C8.95129 18.4877 8.99562 18.5498 9.02636 18.6188C9.05711 18.6878 9.07364 18.7623 9.07497 18.8378C9.0763 18.9134 9.06241 18.9884 9.03412 19.0584C9.00583 19.1285 8.96372 19.1921 8.91031 19.2455C8.85689 19.2989 8.79327 19.341 8.72323 19.3693C8.65319 19.3976 8.57816 19.4115 8.50264 19.4102C8.42711 19.4089 8.35262 19.3923 8.28362 19.3616C8.21462 19.3308 8.15252 19.2865 8.10103 19.2312L3.60103 14.7312C3.49569 14.6258 3.43652 14.4828 3.43652 14.3337C3.43652 14.1847 3.49569 14.0417 3.60103 13.9362L8.10103 9.43624C8.20766 9.33688 8.34869 9.28279 8.49442 9.28536C8.64015 9.28793 8.77918 9.34696 8.88224 9.45002C8.9853 9.55308 9.04434 9.69212 9.04691 9.83785C9.04948 9.98357 8.99539 10.1246 8.89603 10.2312L5.35697 13.7712H12.9985C15.2355 13.7688 17.3802 12.879 18.962 11.2972C20.5438 9.71541 21.4335 7.57074 21.436 5.33374C21.436 5.18456 21.4953 5.04148 21.6008 4.93599C21.7063 4.8305 21.8493 4.77124 21.9985 4.77124C22.1477 4.77124 22.2908 4.8305 22.3963 4.93599C22.5018 5.04148 22.561 5.18456 22.561 5.33374Z" fill="#F7F1FF"/>
</svg>
