<svg width="25" height="25" viewBox="0 0 25 25" fill="none" xmlns="http://www.w3.org/2000/svg">
<path d="M22.5048 0.360352H2.50476C2.04063 0.360352 1.59551 0.544726 1.26732 0.872915C0.939135 1.2011 0.754761 1.64622 0.754761 2.11035V9.45661C0.754761 20.4879 10.0898 24.1466 11.961 24.7679C12.3136 24.8879 12.696 24.8879 13.0485 24.7679C14.9235 24.1429 24.2548 20.4879 24.2548 9.45661V2.11035C24.2548 1.64622 24.0704 1.2011 23.7422 0.872915C23.414 0.544726 22.9689 0.360352 22.5048 0.360352ZM22.7548 2.11035V9.45661C22.7548 9.76411 22.746 10.0641 22.731 10.3579H13.2548V1.86035H22.5048C22.5711 1.86035 22.6347 1.88669 22.6816 1.93358C22.7284 1.98046 22.7548 2.04405 22.7548 2.11035ZM2.25476 2.11035C2.25476 2.04405 2.2811 1.98046 2.32799 1.93358C2.37487 1.88669 2.43846 1.86035 2.50476 1.86035H11.7548V10.3604H2.27851C2.26351 10.0666 2.25476 9.76661 2.25476 9.45911V2.11035ZM2.42976 11.8604H11.7548V23.0979C9.40102 22.1654 3.51476 19.1329 2.42976 11.8604ZM13.2548 23.0979V11.8604H22.5798C21.4948 19.1316 15.6085 22.1654 13.2548 23.0979Z" fill="#704FAD"/>
</svg>
