<svg width="29" height="24" viewBox="0 0 29 24" fill="none" xmlns="http://www.w3.org/2000/svg">
<path d="M28.201 12.8316L24.201 2.8316C24.135 2.66666 24.0126 2.53051 23.8555 2.44741C23.6985 2.36431 23.517 2.33966 23.3435 2.37785L15.2548 4.17535V1.11035C15.2548 0.91144 15.1758 0.720674 15.0351 0.580022C14.8945 0.439369 14.7037 0.360352 14.5048 0.360352C14.3059 0.360352 14.1151 0.439369 13.9744 0.580022C13.8338 0.720674 13.7548 0.91144 13.7548 1.11035V4.50911L5.34227 6.38411C5.22309 6.41059 5.11217 6.46576 5.01916 6.54483C4.92614 6.62391 4.85383 6.72449 4.80851 6.83786L0.808511 16.8379C0.774062 16.9246 0.755843 17.017 0.754761 17.1104C0.754761 19.8429 3.66851 20.8604 5.50477 20.8604C7.34102 20.8604 10.2548 19.8429 10.2548 17.1104C10.2545 17.0149 10.2362 16.9204 10.201 16.8316L6.52852 7.65161L13.7548 6.04536V22.3604H11.5048C11.3059 22.3604 11.1151 22.4394 10.9744 22.58C10.8338 22.7207 10.7548 22.9115 10.7548 23.1104C10.7548 23.3093 10.8338 23.5001 10.9744 23.6407C11.1151 23.7814 11.3059 23.8604 11.5048 23.8604H17.5048C17.7037 23.8604 17.8945 23.7814 18.0351 23.6407C18.1758 23.5001 18.2548 23.3093 18.2548 23.1104C18.2548 22.9115 18.1758 22.7207 18.0351 22.58C17.8945 22.4394 17.7037 22.3604 17.5048 22.3604H15.2548V5.71161L22.281 4.15036L18.8085 12.8316C18.7733 12.9203 18.7551 13.0149 18.7548 13.1104C18.7548 15.8429 21.6685 16.8604 23.5048 16.8604C25.341 16.8604 28.2548 15.8429 28.2548 13.1104C28.2545 13.0149 28.2362 12.9203 28.201 12.8316ZM5.50477 19.3604C4.74045 19.3544 3.9896 19.1585 3.31976 18.7904C2.64851 18.3991 2.30101 17.8929 2.25851 17.2441L5.50852 9.13036L8.75852 17.2441C8.63727 18.9666 6.32727 19.3604 5.50477 19.3604ZM23.5048 15.3604C22.7405 15.3544 21.9896 15.1585 21.3198 14.7904C20.6485 14.3991 20.301 13.8929 20.2585 13.2441L23.5085 5.13036L26.7585 13.2441C26.6373 14.9666 24.3273 15.3604 23.5048 15.3604Z" fill="#704FAD"/>
</svg>
