<svg width="31" height="18" viewBox="0 0 31 18" fill="none" xmlns="http://www.w3.org/2000/svg">
<path d="M15.5048 13.8604C16.4442 13.8604 17.3626 13.5818 18.1437 13.0598C18.9249 12.5379 19.5337 11.7961 19.8932 10.9281C20.2527 10.0602 20.3468 9.10509 20.1635 8.18368C19.9802 7.26227 19.5278 6.4159 18.8635 5.7516C18.1992 5.0873 17.3529 4.6349 16.4315 4.45162C15.51 4.26834 14.555 4.36241 13.687 4.72193C12.8191 5.08144 12.0772 5.69026 11.5553 6.4714C11.0334 7.25253 10.7548 8.1709 10.7548 9.11036C10.7548 10.3701 11.2552 11.5783 12.146 12.4691C13.0368 13.3599 14.245 13.8604 15.5048 13.8604ZM15.5048 5.86036C16.1476 5.86036 16.7759 6.05097 17.3104 6.40808C17.8448 6.7652 18.2614 7.27278 18.5074 7.86664C18.7534 8.4605 18.8177 9.11396 18.6923 9.7444C18.5669 10.3748 18.2574 10.9539 17.8029 11.4085C17.3484 11.863 16.7693 12.1725 16.1388 12.2979C15.5084 12.4233 14.8549 12.359 14.2611 12.113C13.6672 11.867 13.1596 11.4504 12.8025 10.916C12.4454 10.3815 12.2548 9.75315 12.2548 9.11036C12.2548 8.2484 12.5972 7.42175 13.2067 6.81226C13.8162 6.20277 14.6428 5.86036 15.5048 5.86036ZM29.5048 0.360352H1.50476C1.30585 0.360352 1.11508 0.439369 0.974431 0.580022C0.833778 0.720674 0.754761 0.91144 0.754761 1.11035V17.1104C0.754761 17.3093 0.833778 17.5 0.974431 17.6407C1.11508 17.7813 1.30585 17.8604 1.50476 17.8604H29.5048C29.7037 17.8604 29.8945 17.7813 30.0351 17.6407C30.1758 17.5 30.2548 17.3093 30.2548 17.1104V1.11035C30.2548 0.91144 30.1758 0.720674 30.0351 0.580022C29.8945 0.439369 29.7037 0.360352 29.5048 0.360352ZM2.25476 6.71286C3.41931 6.40305 4.48136 5.79115 5.33346 4.93905C6.18555 4.08695 6.79746 3.0249 7.10727 1.86035H23.9023C24.2121 3.0249 24.824 4.08695 25.6761 4.93905C26.5282 5.79115 27.5902 6.40305 28.7548 6.71286V11.5079C27.5902 11.8177 26.5282 12.4296 25.6761 13.2817C24.824 14.1338 24.2121 15.1958 23.9023 16.3604H7.10727C6.79746 15.1958 6.18555 14.1338 5.33346 13.2817C4.48136 12.4296 3.41931 11.8177 2.25476 11.5079V6.71286ZM28.7548 5.14661C27.9952 4.88123 27.3052 4.44793 26.7362 3.87895C26.1672 3.30998 25.7339 2.61999 25.4685 1.86035H28.7548V5.14661ZM5.54102 1.86035C5.27564 2.61999 4.84234 3.30998 4.27336 3.87895C3.70439 4.44793 3.0144 4.88123 2.25476 5.14661V1.86035H5.54102ZM2.25476 13.0741C3.0144 13.3395 3.70439 13.7728 4.27336 14.3418C4.84234 14.9107 5.27564 15.6007 5.54102 16.3604H2.25476V13.0741ZM25.4685 16.3604C25.7339 15.6007 26.1672 14.9107 26.7362 14.3418C27.3052 13.7728 27.9952 13.3395 28.7548 13.0741V16.3604H25.4685Z" fill="#704FAD"/>
</svg>
