<svg width="197" height="37" viewBox="0 0 197 37" fill="none" xmlns="http://www.w3.org/2000/svg">
<path d="M0.42749 1.24251C0.42749 0.932536 0.42749 0.777552 0.525563 0.681256C0.623636 0.584961 0.78148 0.584961 1.09717 0.584961H20.3093C20.8471 0.584961 21.3579 0.59816 21.8418 0.624558C22.3258 0.650957 22.998 0.743352 23.8582 0.901744C24.7455 1.03374 25.5386 1.24493 26.2376 1.53531C26.9635 1.7993 27.7297 2.19527 28.5363 2.72324C29.3429 3.25121 30.015 3.88478 30.5527 4.62394C31.1173 5.3367 31.5743 6.27385 31.9238 7.43539C32.3003 8.57053 32.4885 9.85084 32.4885 11.2764C32.4885 12.6755 32.3137 13.9558 31.9642 15.1174C31.6416 16.2789 31.2114 17.2557 30.6738 18.0476C30.1359 18.8132 29.4908 19.4995 28.7379 20.1067C27.9851 20.6875 27.2458 21.1494 26.5199 21.4926C25.794 21.8094 25.0277 22.0734 24.2212 22.2846C23.4415 22.4693 22.7694 22.6014 22.2047 22.6806C21.6401 22.7333 21.1159 22.7598 20.632 22.7598H10.4936C10.178 22.7598 10.0201 22.7598 9.92203 22.8561C9.82395 22.9523 9.82395 23.1073 9.82395 23.4173V27.7251C9.82395 28.035 9.82395 28.1901 9.72596 28.2863C9.6278 28.3827 9.46999 28.3827 9.15428 28.3827H1.09717C0.78148 28.3827 0.623636 28.3827 0.525563 28.2863C0.42749 28.1901 0.42749 28.035 0.42749 27.7251V1.24251ZM20.0271 14.5631C22.5005 14.5631 23.7372 13.5599 23.7372 11.5535C23.7372 11.1047 23.67 10.722 23.5356 10.4052C23.428 10.0884 23.2533 9.83771 23.0113 9.65283C22.7694 9.44168 22.5274 9.27009 22.2854 9.13814C22.0434 9.0061 21.7477 8.92691 21.3982 8.90049C21.0756 8.84772 20.8067 8.80817 20.5917 8.78175C20.3766 8.75524 20.1346 8.74211 19.8658 8.74211H10.4936C10.178 8.74211 10.0201 8.74211 9.92203 8.8384C9.82395 8.9347 9.82395 9.08975 9.82395 9.3997V13.9055C9.82395 14.2154 9.82395 14.3704 9.92203 14.4667C10.0201 14.5631 10.178 14.5631 10.4936 14.5631H20.0271Z" fill="#F7F1FF"/>
<path d="M67.8646 27.7219C67.8652 28.0319 67.8656 28.187 67.7676 28.2835C67.6694 28.3801 67.5114 28.3801 67.1956 28.3801H59.2587C58.9438 28.3801 58.7863 28.3801 58.6884 28.2853C58.5906 28.1904 58.5886 28.0345 58.5846 27.7226C58.5833 27.6128 58.5815 27.502 58.5795 27.39C58.5703 26.9033 58.5658 26.66 58.4068 26.5662C58.2479 26.4723 58.0183 26.587 57.5592 26.8163C54.9438 28.1228 51.9798 28.7761 48.6672 28.7761C47.5648 28.7761 46.6238 28.7628 45.844 28.7365C45.0911 28.7101 44.15 28.6441 43.0207 28.5385C41.8914 28.433 40.9369 28.2877 40.1572 28.1029C39.3774 27.9181 38.5574 27.6409 37.6969 27.2713C36.8365 26.9017 36.1374 26.4661 35.5997 25.9645C35.0618 25.4365 34.6182 24.7765 34.2686 23.9846C33.9191 23.1662 33.7444 22.2685 33.7444 21.2917C33.7444 20.051 34.1477 18.9818 34.9543 18.0842C35.7879 17.1603 36.9171 16.4343 38.3423 15.9062C39.7673 15.3782 41.3268 14.9954 43.0207 14.7578C44.7147 14.4938 46.543 14.3618 48.5059 14.3618C51.3033 14.3618 53.8734 14.7056 56.2165 15.3931C56.8246 15.5716 57.1286 15.6609 57.2694 15.4842C57.4101 15.3075 57.2639 15.0643 56.9711 14.5781C56.4348 13.6876 55.7104 13.0743 54.7978 12.7382C53.5339 12.2367 51.5173 11.9859 48.7479 11.9859C46.4893 11.9859 44.3113 12.1443 42.2141 12.461C40.1437 12.7514 38.8128 12.989 38.2212 13.1739C37.9291 13.2557 37.6587 13.3341 37.4097 13.409C37.1032 13.5013 36.9498 13.5474 36.8285 13.4857C36.7071 13.424 36.6578 13.2767 36.5591 12.9824L34.8738 7.95462C34.778 7.66902 34.7301 7.52622 34.7905 7.4058C34.8509 7.28538 34.9936 7.23603 35.279 7.13735C39.6743 5.61771 44.3522 4.85791 49.3126 4.85791C50.4418 4.85791 51.5443 4.89751 52.6198 4.97671C53.6952 5.02951 54.9725 5.1879 56.4514 5.4519C57.9301 5.6895 59.2477 6.01951 60.4039 6.44189C61.587 6.86429 62.7028 7.48469 63.7515 8.30308C64.8001 9.09503 65.5664 10.019 66.0504 11.0751C66.8301 12.8174 67.3276 15.0218 67.5426 17.6882C67.7471 20.1977 67.8544 23.5423 67.8646 27.7219ZM49.7158 22.9549C51.6786 22.9549 53.4802 22.7569 55.1204 22.3609C56.5524 21.9921 57.4515 21.6535 57.8177 21.3451C57.8522 21.3162 57.8693 21.3016 57.8977 21.2541C57.9055 21.241 57.9203 21.2095 57.9253 21.1951C57.9436 21.143 57.9436 21.0832 57.9436 20.9633C57.9436 20.9001 57.9436 20.8685 57.9184 20.8085C57.9105 20.7892 57.8931 20.7585 57.8808 20.7417C57.8423 20.6889 57.8075 20.6677 57.7381 20.6251C56.7841 20.0399 54.2713 19.7473 50.1999 19.7473C47.9682 19.7473 46.3683 19.8794 45.4003 20.1434C44.4324 20.381 43.9484 20.7637 43.9484 21.2917C43.9484 22.4005 45.8709 22.9549 49.7158 22.9549Z" fill="#F7F1FF"/>
<path d="M79.0088 27.9446C79.0923 27.789 79.1341 27.7113 79.1329 27.6273C79.1317 27.5433 79.0875 27.4668 78.9993 27.3138L67.0803 6.62533C66.8288 6.18858 66.7029 5.97021 66.7999 5.80705C66.8967 5.64389 67.1522 5.64389 67.6632 5.64389H77.0491C77.2423 5.64389 77.3388 5.64389 77.4177 5.6897C77.4966 5.73551 77.5431 5.81862 77.636 5.98486L84.0187 17.394C84.2849 17.8704 84.4183 18.1086 84.6202 18.106C84.8212 18.1034 84.9474 17.8618 85.2013 17.3786L93.8587 0.874991C93.9507 0.701457 93.9955 0.61469 94.0761 0.566623C94.1566 0.518555 94.2559 0.518555 94.4545 0.518555H104.255C104.758 0.518555 105.008 0.518555 105.105 0.679092C105.204 0.839628 105.084 1.0562 104.846 1.48933L85.9029 35.8377C85.8109 36.0056 85.7653 36.0895 85.6856 36.1358C85.6058 36.1821 85.509 36.1821 85.3144 36.1821H75.6922C75.196 36.1821 74.9479 36.1821 74.8501 36.0231C74.7526 35.8641 74.8684 35.6486 75.1001 35.2176L79.0088 27.9446Z" fill="#F7F1FF"/>
<path d="M121.632 5.79778C121.719 5.61213 121.762 5.5193 121.845 5.46742C121.927 5.41556 122.032 5.41556 122.24 5.41556H131.364C131.846 5.41556 132.086 5.41556 132.184 5.57022C132.283 5.7249 132.177 5.93722 131.965 6.36187L121.086 28.0127C120.996 28.1922 120.952 28.2818 120.871 28.3317C120.789 28.3816 120.688 28.3816 120.484 28.3816H109.015C108.812 28.3816 108.711 28.3816 108.63 28.3322C108.549 28.2826 108.505 28.1936 108.415 28.0156L100.981 13.2636C100.916 13.1349 100.883 13.0706 100.88 13.0011C100.878 12.9316 100.904 12.8648 100.958 12.7311L105.085 2.4364C105.33 1.82487 105.453 1.51912 105.673 1.51279C105.894 1.50647 106.035 1.80472 106.316 2.40119L114.121 18.9691C114.384 19.5271 114.516 19.8061 114.73 19.806C114.944 19.8059 115.076 19.5267 115.338 18.9684L121.632 5.79778Z" fill="#F7F1FF"/>
<path d="M148.053 4.8252C150.823 4.8252 153.23 5.06279 155.273 5.53799C157.317 6.01318 159.092 6.79198 160.599 7.87437C162.104 8.95676 163.207 10.4351 163.906 12.3095C164.55 14.0131 164.807 16.0421 164.675 18.3964C164.658 18.6801 164.65 18.8219 164.553 18.9118C164.457 19.0019 164.308 19.0019 164.014 19.0019H141.477C141.107 19.0019 140.921 19.0019 140.829 19.1883C140.738 19.3749 140.829 19.4863 141.012 19.7093C141.339 20.1094 141.884 20.4544 142.648 20.7443C143.832 21.193 145.606 21.4174 147.973 21.4174C150.043 21.4174 152.1 21.2854 154.144 21.0214C156.214 20.7574 157.775 20.4934 158.823 20.2294L159.877 19.9573C160.108 19.8977 160.223 19.8678 160.325 19.9081C160.429 19.9483 160.491 20.0482 160.617 20.2478L164.125 25.8261C164.208 25.9582 164.249 26.0244 164.256 26.1024C164.262 26.1763 164.236 26.267 164.19 26.3265C164.142 26.3894 164.077 26.4217 163.946 26.4862C163.731 26.5653 163.18 26.7237 162.292 26.9613C161.432 27.199 160.451 27.4101 159.348 27.5949C158.246 27.7797 156.712 27.9513 154.75 28.1097C152.787 28.2418 150.635 28.3077 148.296 28.3077C145.552 28.3077 143.159 28.123 141.116 27.7534C139.098 27.3837 137.445 26.8689 136.154 26.2089C134.89 25.5489 133.868 24.7174 133.089 23.7143C132.308 22.711 131.77 21.6418 131.475 20.5066C131.18 19.3715 131.031 18.0515 131.031 16.5467C131.031 12.8507 132.457 9.97309 135.307 7.91396C138.184 5.85479 142.433 4.8252 148.053 4.8252ZM148.134 11.9135C146.655 11.9135 145.391 12.0191 144.343 12.2303C143.294 12.4415 142.527 12.7187 142.043 13.062C141.559 13.3787 141.209 13.6955 140.994 14.0123C140.923 14.1168 140.864 14.2213 140.817 14.3258C140.715 14.5505 140.663 14.6628 140.762 14.8128C140.862 14.9627 141.021 14.9627 141.342 14.9627H154.442C154.77 14.9627 154.934 14.9627 155.034 14.825C155.134 14.6874 155.091 14.5639 155.005 14.3167C154.799 13.7262 154.297 13.2155 153.499 12.7847C152.45 12.2039 150.662 11.9135 148.134 11.9135Z" fill="#F7F1FF"/>
<path d="M187.118 5.44879C190.936 5.44879 194.013 6.20135 196.353 7.70648C196.435 7.75245 196.475 7.77543 196.519 7.83695C196.552 7.88261 196.579 7.97073 196.579 8.02621C196.578 8.10097 196.555 8.14751 196.508 8.24059L193.477 14.3321C193.332 14.6222 193.26 14.7672 193.133 14.8126C193.007 14.8581 192.849 14.7895 192.532 14.6525C192.406 14.5977 192.267 14.54 192.119 14.4795C191.661 14.2683 190.801 13.9911 189.537 13.6477C188.274 13.3045 187.077 13.0932 185.948 13.014C184.953 12.9613 184.012 13.014 183.125 13.1725C182.237 13.3309 181.539 13.5026 181.028 13.6874C180.516 13.8458 179.939 14.1495 179.293 14.5984C178.675 15.0208 178.286 15.3113 178.124 15.4698C178.01 15.5816 177.77 15.8071 177.406 16.1464C177.302 16.2426 177.251 16.2907 177.223 16.353C177.197 16.4151 177.197 16.4849 177.197 16.6246V27.7246C177.197 28.0346 177.197 28.1895 177.098 28.2858C177 28.3821 176.842 28.3821 176.527 28.3821H168.468C168.153 28.3821 167.995 28.3821 167.897 28.2858C167.799 28.1895 167.799 28.0346 167.799 27.7246V6.06673C167.799 5.75676 167.799 5.60177 167.897 5.50548C167.995 5.40918 168.153 5.40918 168.468 5.40918H168.485H176.527C176.842 5.40918 177 5.40918 177.098 5.50548C177.197 5.60177 177.197 5.75676 177.197 6.06673V6.74279C177.197 7.49446 177.197 7.8703 177.375 7.96278C177.554 8.05526 177.901 7.82135 178.596 7.35352C180.483 6.0837 183.323 5.44879 187.118 5.44879Z" fill="#F7F1FF"/>
</svg>
