<svg width="25" height="25" viewBox="0 0 25 25" fill="none" xmlns="http://www.w3.org/2000/svg">
<path d="M15.5048 1.79785C14.3409 1.79859 13.194 2.07695 12.1593 2.60981C11.1246 3.14268 10.2319 3.91469 9.55535 4.86174C8.87882 5.80878 8.43796 6.90355 8.26937 8.05514C8.10079 9.20674 8.20934 10.3819 8.58601 11.4832L3.10726 16.9629C3.00174 17.0682 2.94239 17.2112 2.94226 17.3604V21.1104C2.94226 21.2595 3.00152 21.4026 3.10701 21.5081C3.2125 21.6136 3.35558 21.6729 3.50476 21.6729H7.25476C7.40394 21.6729 7.54702 21.6136 7.65251 21.5081C7.758 21.4026 7.81726 21.2595 7.81726 21.1104V19.4229H9.50476C9.65394 19.4229 9.79702 19.3636 9.90251 19.2581C10.008 19.1526 10.0673 19.0095 10.0673 18.8604V17.1729H11.7548C11.9039 17.1727 12.0469 17.1134 12.1523 17.0079L13.1319 16.0291C14.1364 16.3728 15.2036 16.4936 16.2594 16.3832C17.3152 16.2729 18.3343 15.9339 19.246 15.39C20.1576 14.846 20.9399 14.1101 21.5384 13.2334C22.137 12.3567 22.5375 11.3601 22.7121 10.313C22.8866 9.26586 22.8311 8.19328 22.5494 7.16977C22.2677 6.14625 21.7665 5.19635 21.0807 4.38606C20.3948 3.57577 19.5408 2.92452 18.5779 2.47757C17.615 2.03061 16.5663 1.79867 15.5048 1.79785ZM15.5048 15.2979C14.7204 15.2992 13.943 15.1506 13.2144 14.86C13.1108 14.8149 12.996 14.802 12.885 14.8231C12.7739 14.8442 12.6718 14.8982 12.5919 14.9782L11.5213 16.0479H9.50476C9.35558 16.0479 9.2125 16.1071 9.10701 16.2126C9.00152 16.3181 8.94226 16.4612 8.94226 16.6104V18.2979H7.25476C7.10558 18.2979 6.9625 18.3571 6.85701 18.4626C6.75152 18.5681 6.69226 18.7112 6.69226 18.8604V20.5479H4.06726V17.5938L9.63695 12.0232C9.7169 11.9433 9.77093 11.8412 9.792 11.7301C9.81307 11.6191 9.8002 11.5043 9.75507 11.4007C9.26507 10.1709 9.18239 8.81641 9.51918 7.53618C9.85596 6.25595 10.5945 5.11748 11.6262 4.28804C12.6579 3.45859 13.9284 2.98189 15.2511 2.92798C16.5738 2.87408 17.8789 3.24579 18.9747 3.98853C20.0705 4.73127 20.8992 5.80586 21.339 7.05444C21.7789 8.30301 21.8067 9.65974 21.4184 10.9253C21.0301 12.1909 20.2462 13.2985 19.1817 14.0856C18.1173 14.8726 16.8285 15.2975 15.5048 15.2979ZM18.3173 7.23535C18.3173 7.42077 18.2623 7.60203 18.1593 7.7562C18.0562 7.91037 17.9098 8.03053 17.7385 8.10149C17.5672 8.17245 17.3787 8.19101 17.1969 8.15484C17.015 8.11866 16.848 8.02938 16.7168 7.89826C16.5857 7.76715 16.4964 7.60011 16.4603 7.41825C16.4241 7.23639 16.4427 7.04789 16.5136 6.87659C16.5846 6.70528 16.7047 6.55886 16.8589 6.45585C17.0131 6.35283 17.1943 6.29785 17.3798 6.29785C17.6284 6.29785 17.8669 6.39662 18.0427 6.57244C18.2185 6.74825 18.3173 6.98671 18.3173 7.23535Z" fill="#F7F1FF"/>
</svg>
