<svg width="25" height="25" viewBox="0 0 25 25" fill="none" xmlns="http://www.w3.org/2000/svg">
<path d="M10.0515 17.4961C10.0159 17.6415 9.13839 20.9227 4.25495 20.9227C4.10577 20.9227 3.96269 20.8634 3.85721 20.758C3.75172 20.6525 3.69245 20.5094 3.69245 20.3602C3.69245 15.4768 6.97933 14.5993 7.11902 14.5646C7.26272 14.5313 7.41376 14.5557 7.5396 14.6327C7.66543 14.7097 7.756 14.833 7.79177 14.9761C7.82755 15.1192 7.80568 15.2707 7.73087 15.3978C7.65606 15.5249 7.5343 15.6176 7.39183 15.6558C7.29808 15.6811 5.06308 16.3196 4.8362 19.7808C8.33683 19.5493 8.9537 17.2496 8.9612 17.2252C8.99738 17.0804 9.08961 16.9558 9.2176 16.879C9.3456 16.8022 9.49887 16.7793 9.6437 16.8155C9.78854 16.8517 9.91307 16.9439 9.9899 17.0719C10.0667 17.1999 10.0896 17.3532 10.0534 17.498L10.0515 17.4961ZM18.82 11.0911L18.3175 11.5927V17.1399C18.3178 17.3122 18.284 17.4828 18.218 17.6419C18.1521 17.8011 18.0552 17.9456 17.9331 18.0671L14.7128 21.2874C14.5406 21.4595 14.3239 21.5802 14.087 21.6362C13.8501 21.6922 13.6023 21.6813 13.3713 21.6045C13.1403 21.5278 12.9351 21.3883 12.7788 21.2017C12.6225 21.015 12.5212 20.7886 12.4862 20.5477L11.9743 16.8774L7.74058 12.6408L4.07214 12.129C3.83066 12.0948 3.60348 11.994 3.41607 11.838C3.22866 11.6819 3.08845 11.4767 3.01115 11.2454C2.93385 11.0141 2.92253 10.7658 2.97846 10.5284C3.03438 10.291 3.15534 10.0739 3.32777 9.90146L6.54808 6.68114C6.66962 6.55913 6.81414 6.46243 6.97329 6.39661C7.13243 6.3308 7.30305 6.29718 7.47527 6.29771H13.0225L13.524 5.79615C15.9718 3.34833 18.9212 3.24333 20.0753 3.31177C20.3946 3.33149 20.6958 3.46718 20.9221 3.69334C21.1484 3.91951 21.2844 4.22056 21.3043 4.5399C21.3728 5.69396 21.2668 8.64146 18.82 11.0911ZM4.22964 11.0152L7.80527 11.514L11.8975 7.42271H7.47527C7.42562 7.42292 7.37808 7.44281 7.34308 7.47802L4.1237 10.6965C4.09976 10.7206 4.08284 10.7508 4.07475 10.7838C4.06666 10.8169 4.0677 10.8515 4.07777 10.884C4.0873 10.9184 4.10681 10.9492 4.13383 10.9726C4.16086 10.9959 4.1942 11.0108 4.22964 11.0152ZM17.1925 12.7177L13.1003 16.8099L13.599 20.3874C13.6042 20.4218 13.6188 20.4541 13.6413 20.4807C13.6637 20.5073 13.6932 20.5271 13.7263 20.5379C13.7593 20.5487 13.7948 20.55 13.8286 20.5418C13.8624 20.5336 13.8933 20.5162 13.9178 20.4915L17.1371 17.2721C17.1724 17.2371 17.1922 17.1895 17.1925 17.1399V12.7177ZM20.1812 4.61021C20.1776 4.56592 20.1583 4.52436 20.1269 4.49294C20.0955 4.46151 20.0539 4.44227 20.0096 4.43865C18.9623 4.37143 17.9128 4.52906 16.9314 4.90097C15.9501 5.27288 15.0597 5.85045 14.32 6.59489L8.80089 12.1102L12.505 15.8143L17.3575 10.9627L18.024 10.2961C18.7681 9.55695 19.3456 8.66718 19.7177 7.68652C20.0897 6.70585 20.2478 5.65696 20.1812 4.61021Z" fill="#704FAD"/>
</svg>
