<svg width="81" height="46" viewBox="0 0 81 46" fill="none" xmlns="http://www.w3.org/2000/svg">
<path d="M27.1972 36.2151C27.2224 36.2402 27.2224 36.2653 27.2224 36.2904C27.2224 36.3658 27.172 36.3909 27.1216 36.3658C27.0964 36.3407 27.0712 36.3155 27.0459 36.2904C27.0207 36.2151 26.9703 36.1649 26.8947 36.1398C26.8443 36.1147 26.7939 36.0393 26.7687 35.9891C26.7687 35.964 26.7687 35.9389 26.7687 35.9138C26.7687 35.9138 26.8191 35.8887 26.8443 35.9138C26.9703 36.0142 27.0712 36.1147 27.1972 36.2151ZM27.3736 30.8919C27.424 30.9421 27.4996 30.9923 27.6005 30.9923C27.6005 30.917 27.4996 30.8417 27.4492 30.7915C27.172 30.5153 26.9955 30.1888 26.9451 30.1135C26.441 29.31 26.315 28.1299 26.3654 28.0043C26.3654 27.9792 26.3654 27.3263 26.2898 27.2259C26.2646 27.2761 26.2646 27.3263 26.2394 27.3515C26.189 27.6779 26.2142 28.0294 26.2394 28.3809C26.2394 28.4814 26.4914 30.0382 27.3736 30.8919ZM24.3742 28.3809H24.3994C24.3994 28.0545 24.4246 27.477 24.4498 27.1506C24.4246 27.1506 24.3994 27.1506 24.3994 27.1506C24.349 27.4519 24.3994 28.0043 24.3742 28.3056C24.349 28.3307 24.349 28.3558 24.3742 28.3809ZM27.5753 31.2936C27.5753 31.3188 27.5753 31.3439 27.5753 31.369C27.6257 31.4192 27.6761 31.4443 27.7517 31.3941C27.7265 31.3188 27.7013 31.2685 27.6257 31.2685L27.5753 31.2936ZM24.9287 31.0426C24.9791 31.1932 25.0043 31.3439 25.0799 31.4945C25.1303 31.595 25.332 32.1223 25.4076 32.1474C25.4328 32.1223 25.0547 31.3439 25.0043 30.8417C24.9791 30.8417 24.9539 30.8417 24.9287 30.8417C24.9287 30.917 24.9287 30.9923 24.9287 31.0426ZM24.6262 29.3351C24.5506 29.5611 24.5506 29.7118 24.727 29.988C24.6514 29.7369 24.7775 29.7369 24.6262 29.3351ZM25.5336 33.0262C25.5084 33.0011 25.5084 32.976 25.4832 32.9509C25.4328 33.2271 25.4328 33.2271 25.6849 33.3024C25.6344 33.202 25.584 33.1015 25.5336 33.0262ZM24.2985 30.0633C24.2733 29.9126 24.2229 29.1845 24.2229 28.9585C24.2229 28.9082 24.2229 28.8329 24.2229 28.7827C24.1725 28.8329 24.1725 28.858 24.1725 28.9082C24.1221 29.2598 24.1725 29.9628 24.1725 30.1386C24.1977 30.5906 24.5254 32.072 24.6514 32.5742C24.9035 33.3275 25.4076 34.2064 25.584 34.4072C25.6092 34.4826 25.7101 34.5077 25.7857 34.5328C25.5084 34.2315 25.2816 33.7544 25.2816 33.7544C24.5506 32.2729 24.349 30.3646 24.2985 30.0633ZM43.9588 38.5001C43.9084 38.4499 43.8076 38.4499 43.7824 38.5252C43.732 38.6256 43.6312 38.6507 43.5555 38.701C43.5051 38.7261 43.4799 38.7763 43.5051 38.8265C43.5303 38.8516 43.5807 38.8767 43.606 38.8767C43.7572 38.8265 43.8832 38.8014 43.9588 38.6507C43.984 38.6005 44.0344 38.5503 43.9588 38.5001ZM43.1775 38.9772C43.2027 39.0023 43.2531 39.0525 43.2783 39.0274C43.3035 39.0274 43.3287 38.952 43.3539 38.9269C43.3287 38.9018 43.2783 38.8767 43.2279 38.8516C43.2027 38.9269 43.1523 38.9772 43.1775 38.9772ZM26.8443 35.9138C26.8191 35.9138 26.7939 35.9138 26.7687 35.9138C26.7687 35.9389 26.7435 35.964 26.7687 35.9891C26.8191 36.0393 26.8443 36.1147 26.8947 36.1398C26.9703 36.19 27.0207 36.2151 27.0459 36.2904C27.0459 36.3155 27.0964 36.3407 27.1216 36.3658C27.172 36.3909 27.2224 36.3658 27.2224 36.2904C27.2224 36.2653 27.2224 36.2151 27.1972 36.2151C27.0712 36.1147 26.9703 36.0142 26.8443 35.9138ZM56.5364 22.7062C56.5364 22.7313 56.5364 22.7564 56.5364 22.7815C56.5112 22.8569 56.486 22.9322 56.4608 23.0075C56.4608 23.0075 54.2931 35.9138 53.8898 36.1147C53.7134 36.0393 52.8816 33.8548 52.8816 33.8548L52.806 33.7795L52.7555 33.5535L52.7051 33.4782C52.6043 33.6037 52.4783 33.7042 52.3523 33.8046C52.327 33.8297 52.3018 33.8297 52.2514 33.8548C52.2514 33.8046 52.2514 33.7795 52.2514 33.7293C52.1002 33.8548 51.8986 34.0557 51.5709 34.3319C51.1424 34.7839 50.5123 35.3363 49.6049 35.8887C49.5292 36.0142 49.252 36.19 49.2772 36.19C49.1512 36.2653 49.0503 36.3407 48.9243 36.416C48.8739 36.5164 48.7983 36.5415 48.7731 36.5666C48.6723 36.6671 48.5462 36.7424 48.4202 36.8177C48.1177 36.9684 47.8153 37.1191 47.4876 37.2948C47.286 37.4204 47.0591 37.5459 46.8575 37.6464C46.7818 37.6966 46.7314 37.7468 46.6558 37.7719C46.0005 38.1737 45.3199 38.5001 44.5638 38.7512C44.4125 38.8014 44.2613 38.8516 44.1101 38.9269C43.8076 39.1529 43.4799 39.3036 43.1018 39.3789C42.7238 39.4542 42.3457 39.63 41.9424 39.7053C40.3292 40.1573 38.9177 40.308 37.2794 40.4335C36.2207 40.5088 34.8092 40.3331 34.5824 40.308C34.658 40.2326 34.7084 40.1824 34.8092 40.2326C34.8596 40.2577 34.9353 40.2577 35.0109 40.2577C35.0865 40.2577 35.1873 40.2075 35.2629 40.2075C36.0695 40.3331 37.8591 40.1573 38.1868 40.1322C41.4383 39.8309 43.8076 38.1234 43.8076 38.1234C43.8076 38.1234 40.5309 39.7053 37.9599 39.9062C35.6662 40.082 33.5994 39.8811 33.3977 39.856C33.2717 39.8309 32.8684 39.7807 32.3391 39.6551C32.0366 39.63 31.6586 39.5296 31.1544 39.3538C31.0788 39.3538 31.0032 39.3538 30.9528 39.2785C30.8772 39.2534 30.8016 39.2282 30.7259 39.2031C30.7007 39.2031 30.6755 39.2031 30.6503 39.2031C30.5999 39.178 30.5243 39.1529 30.4739 39.1278C30.4235 39.1027 30.3983 39.0776 30.3479 39.0525C29.995 38.9018 29.6421 38.7261 29.3144 38.5252C29.0372 38.3494 28.7599 38.1736 28.4827 37.9728C28.3314 37.8974 28.2054 37.8221 28.0794 37.6966C27.9786 37.571 27.8525 37.4706 27.7265 37.345C26.5418 36.2653 25.8613 35.1856 25.8109 35.1354C25.8865 35.0852 25.9117 35.1354 25.9369 35.1605C25.9873 35.2107 26.4662 35.7882 26.567 35.7882C26.6175 35.7129 26.567 35.6627 26.5166 35.5874C26.3402 35.3865 26.4662 35.4869 26.2898 35.2861C26.2142 35.2107 26.2646 35.1605 26.3906 35.2861C26.6931 35.512 26.6931 35.4367 26.8443 35.5623C26.8695 35.5874 27.0207 35.6376 27.1216 35.6125C27.172 35.5372 26.9451 35.2609 26.8695 35.1605C26.7435 34.9596 26.4914 34.7337 26.441 34.7085C26.3402 34.6583 26.4914 34.6583 26.441 34.5579C26.4158 34.4826 26.1133 34.2817 26.1386 34.1561C26.1638 34.0557 26.3654 34.3821 26.5166 34.5328C26.567 34.583 26.6427 34.583 26.7183 34.6583C26.7939 34.7085 27.2728 35.4618 27.3736 35.5623C27.4996 35.6627 28.1046 36.2904 28.3818 36.5164C28.5331 36.6169 29.3396 37.2697 30.5999 37.7217C31.5577 38.0732 33.8262 38.1988 33.8262 38.1988C33.8262 38.1988 31.6081 37.7468 30.7764 37.4204C28.5331 36.5164 27.8273 35.512 27.7769 35.4367C27.4996 35.1354 26.2142 33.7042 26.0881 33.5535C26.0629 33.4028 25.8613 33.1769 25.8613 33.1015C25.8613 33.0262 25.9621 33.0513 25.9873 33.0764C26.0377 33.1266 26.189 33.4782 26.2646 33.3777C26.3654 33.3024 26.1638 33.2271 26.1638 33.1518C26.1133 32.9007 26.0125 32.5993 25.8865 32.4989C25.7857 32.4236 25.7353 32.2729 25.6092 32.0218C25.5588 31.9465 25.5588 31.8461 25.584 31.7707C25.6092 31.7707 25.6092 31.7707 25.6344 31.7456C25.6596 31.7958 25.7101 31.8461 25.7353 31.9214C25.8109 32.072 26.2898 32.9007 26.315 32.9258C26.441 33.1015 26.567 33.2522 26.6931 33.4028C26.8947 33.6791 27.172 34.0055 27.4744 34.2566C27.9533 34.7085 28.4322 34.9094 28.4322 34.9094C27.298 34.131 26.9199 33.5535 26.2898 32.4487C26.0377 31.9967 25.9621 31.6201 25.8865 31.5196C25.8109 31.3439 25.7605 31.1681 25.7101 31.0677C25.6344 30.917 25.5084 30.7915 25.4076 30.6408C25.332 30.691 25.4328 30.9672 25.458 31.0426C25.4832 31.1179 25.5336 31.1681 25.5084 31.2685C25.458 31.2936 25.4076 31.2183 25.4076 31.2183C25.332 31.0928 25.1807 30.7161 25.1303 30.6157C24.8027 29.9126 24.8531 29.3602 24.8531 29.0589C24.8279 28.6823 24.8531 28.4061 24.8531 28.155C24.8531 27.7783 25.0043 26.4977 25.0547 26.1462C25.0547 26.096 25.0799 26.0709 25.1051 25.9955C25.1807 26.1713 25.1555 26.2969 25.1555 26.4475C25.1555 26.5731 25.1555 27.3012 25.1555 27.4519C25.1051 28.0043 25.1051 28.5065 25.332 29.0087C25.5336 29.4858 25.4076 29.536 25.9117 30.7412C27.5249 34.4323 30.7512 34.7588 30.7512 34.7588C30.7512 34.7588 27.5753 33.6288 26.2142 30.9672C25.8109 30.1637 26.0881 30.917 25.7353 29.5611C25.6849 29.3602 25.6344 29.084 25.7353 29.084C25.8109 29.084 25.8109 28.858 25.8361 28.7576C25.8361 28.6823 25.8109 28.5567 25.8613 28.5065C25.9369 28.4814 25.9117 28.8831 25.9873 29.0338C26.0629 29.2096 25.8109 29.0338 26.189 29.9126C26.2142 29.988 26.6931 31.143 28.029 32.1976C28.0794 32.2227 28.1298 32.2478 28.1802 32.2729C28.3566 32.3985 28.5331 32.5491 28.7347 32.6496C28.8607 32.7249 29.012 32.75 29.138 32.8253C29.4153 32.9509 29.6673 33.1015 29.9446 33.2271C29.9446 33.2271 30.0706 33.2773 30.2723 33.3777C30.3479 33.4028 30.4235 33.428 30.4991 33.4531C30.6503 33.5033 30.8268 33.5535 30.978 33.5786C31.0032 33.5786 31.0284 33.5786 31.0536 33.5786C31.2805 33.6288 31.4821 33.6791 31.709 33.7042C31.8602 33.7293 32.3643 33.7544 32.4651 33.8046C32.944 33.8548 33.4481 33.8799 33.9523 33.8799C34.0531 33.8799 34.1791 33.8548 34.2799 33.8548C34.3303 33.8548 34.3807 33.8297 34.4059 33.8799C34.4059 33.8799 34.4059 33.8799 34.4312 33.8799C35.0361 33.8548 35.6158 33.7795 36.1703 33.6791C36.3972 33.6288 36.6744 33.6037 36.8761 33.5786H36.9013C36.9769 33.5786 37.0777 33.5535 37.1029 33.5535C37.0525 33.5535 37.229 33.5284 37.2794 33.5033C37.355 33.4782 37.4306 33.428 37.5062 33.4028C37.7835 33.3275 38.0355 33.202 38.3128 33.1015C38.8673 32.9007 39.447 32.6496 40.0016 32.4487C40.0016 32.4487 40.2536 32.3482 40.6569 32.1725C41.1862 31.9214 41.6903 31.6452 42.1944 31.3941C42.2701 31.3439 42.3457 31.2937 42.4213 31.3439C42.6481 31.2434 42.875 31.1179 43.1018 30.9923C44.2361 30.2893 45.9249 28.9334 45.8997 28.9334C46.0509 28.8329 46.3533 28.5567 46.3533 28.5818C46.6306 28.3558 46.681 28.3056 46.681 28.2303C46.681 28.155 46.3281 28.0796 46.3281 28.0796C46.3281 28.0796 43.5303 27.5021 43.5303 27.4017C43.5303 27.3012 45.1435 26.8242 46.2777 26.3973C46.3533 26.3471 46.429 26.2718 46.5046 26.2466C47.5632 25.9704 49.378 24.9661 50.4366 24.7401C53.7386 23.3591 55.7046 22.3547 55.9566 22.2291C56.5364 21.9529 56.5616 22.5304 56.5616 22.5304L56.5364 22.7062ZM47.0843 28.6572C46.7314 28.9585 46.4038 29.2598 46.0509 29.536C45.698 29.8373 45.3451 30.1135 44.9923 30.3646C44.6394 30.6408 44.2613 30.8919 43.8832 31.143C43.6816 31.2685 43.5051 31.3941 43.3035 31.4945C43.1018 31.6201 42.9002 31.7205 42.6986 31.8209C43.127 31.6703 43.5303 31.4694 43.9336 31.2434C44.3369 31.0174 44.715 30.7664 45.0679 30.4901C45.4207 30.2139 45.7988 29.9377 46.1265 29.6113C46.3029 29.4607 46.4542 29.2849 46.6306 29.1342C46.7818 28.9836 46.9331 28.8329 47.0843 28.6572Z" fill="url(#paint0_linear_401_1935)"/>
<path d="M52.2264 15.9768C52.2517 16.1275 52.2012 16.253 52.1004 16.253C51.9996 14.7716 51.3947 13.717 51.3443 13.6165C51.4703 13.5914 51.5459 13.6417 51.5963 13.717C51.6719 13.8928 52.0752 14.7967 52.2264 15.9768ZM51.3695 13.4659C51.3695 13.2399 49.9328 11.7584 49.7815 11.7082C49.7563 11.7082 49.7311 11.7082 49.6807 11.7333C49.7059 11.7836 50.8654 12.7879 51.1426 13.3152C51.193 13.4157 51.2686 13.4659 51.3695 13.4659ZM49.0758 11.2563C49.0506 11.2563 49.0254 11.2563 48.9749 11.2563C49.0758 11.3567 49.4286 11.5576 49.5043 11.5827C49.5295 11.5827 49.2522 11.3567 49.0758 11.2563ZM52.1508 17.0314C52.1508 17.0817 52.2012 17.1319 52.2517 17.1319C52.2517 16.9059 52.3021 16.6548 52.2012 16.479C52.176 16.479 52.1508 16.5041 52.1508 16.5041C52.1508 16.6799 52.1508 16.8557 52.1508 17.0314ZM58.6034 17.6843C58.553 17.9605 58.5026 18.2116 58.427 18.4627C58.4018 18.7138 58.2506 19.0904 58.0741 19.4419C58.0489 19.5173 58.0237 19.5675 57.9733 19.6428C57.8725 19.8437 57.7969 19.9944 57.7212 20.0697C57.6204 20.2706 57.4944 20.4463 57.444 20.4965C57.3684 20.6221 57.2927 20.7225 57.2171 20.8481C57.1919 20.8983 57.0911 20.8481 57.1163 20.7979C57.3432 20.2957 57.444 19.8437 57.4692 19.4419C57.3432 19.7433 56.9903 20.0697 56.9399 20.1952C56.9147 20.2957 56.6878 20.6472 56.6626 20.6472C56.4862 20.7728 56.2593 21.049 56.1585 21.2498C56.0829 21.3754 55.8056 21.526 55.7804 21.5763C55.73 21.6516 55.6544 21.7018 55.5284 21.7269C55.5788 21.5009 55.7048 21.5009 55.7804 21.3001C55.8812 21.1243 55.9569 21.0238 56.0325 20.823C55.9317 20.823 55.8056 21.1243 55.7048 21.1494C55.604 21.1996 55.5284 21.1243 55.5032 21.1243C55.5536 20.9987 55.5788 20.8481 55.6544 20.7476C55.8056 20.6221 56.0325 19.693 56.0325 19.6177C56.0325 19.4168 56.2089 18.8895 56.2593 18.7389C56.2845 18.6384 56.1585 18.2869 56.2089 18.0358C56.2341 17.9605 56.1333 17.8852 56.0829 17.8852C55.9821 17.9103 55.9317 18.3371 55.9317 18.4376C55.9317 18.4376 55.9317 18.4878 55.9064 18.538C55.9317 18.6384 55.9569 18.6887 55.9569 18.7138C55.9569 18.7891 55.9317 18.99 55.9064 19.2913C55.856 19.5926 55.6292 20.3459 55.4275 20.597C55.2511 20.8481 55.3015 20.7476 55.0495 20.9234C54.7974 21.0992 55.2763 20.8983 54.7218 21.1745C54.1673 21.4507 54.0917 21.5511 54.0664 21.6265C54.0412 21.7018 54.016 21.3503 54.1673 21.2498C54.1673 21.2247 54.1925 21.1996 54.2177 21.1745L54.8478 19.5424C54.9991 18.9398 55.0495 18.1865 55.0495 18.1614C55.1755 17.3076 54.6714 15.4998 54.6714 15.4998C54.6714 15.4998 54.9738 17.4332 54.7974 18.312C54.747 18.8142 54.5454 20.0446 53.8648 21.0992C53.8144 21.1745 53.3103 21.9278 53.2851 21.9278C53.0582 22.0282 52.8062 22.6811 52.6801 22.656C52.6045 22.5555 52.6801 22.2542 52.8566 22.1538C52.9826 22.0784 53.159 21.9278 53.159 21.7771C53.159 21.7269 53.3859 21.0741 53.4615 20.9987C53.5371 20.8983 53.6127 20.5719 53.5119 20.5468C53.4363 20.5217 53.3607 20.5719 53.3355 20.6472C53.2851 20.7979 53.1086 21.1745 53.0582 21.1745C52.907 21.2498 52.8314 21.3754 52.7306 21.4758C52.6801 21.526 51.9492 22.6057 51.8232 22.6057C51.7475 22.6057 51.3443 22.9071 51.2686 22.9824C51.2182 23.0577 51.1426 23.133 51.067 23.2084C51.0418 23.2335 50.9158 23.2335 50.8401 23.2586C50.8149 23.2586 50.7645 23.2586 50.7645 23.2837L50.7897 23.2586C50.7897 23.2586 50.941 23.1079 51.067 22.8819C51.0418 22.9322 51.0166 22.9824 50.9914 23.0326C51.0166 23.0075 51.0166 22.9824 51.0418 22.9573C51.0418 22.9573 51.0418 22.9573 51.0418 22.9322C51.067 22.9071 51.067 22.8568 51.0922 22.8317C51.0922 22.8317 51.0922 22.8317 51.0922 22.8066C51.1174 22.7815 51.1174 22.7313 51.1426 22.7062V22.6811C51.1678 22.656 51.1678 22.6057 51.193 22.5806C51.2182 22.5555 51.2182 22.5304 51.2434 22.4802C51.2434 22.4802 51.2434 22.4551 51.2686 22.4551C51.3443 22.3044 51.4199 22.1538 51.4703 22.0031C51.9492 20.9987 52.1256 20.4463 52.3777 19.3666C52.4533 19.0151 52.5793 17.6341 52.5793 17.4583C52.5793 17.1821 52.5793 17.0314 52.5541 16.931C52.4281 13.8676 51.067 12.0598 49.479 11.0303C49.4286 11.0052 49.3782 10.9801 49.353 10.9549C49.1514 10.8294 48.9749 10.7038 48.7733 10.6034C48.6473 10.5281 48.496 10.503 48.3448 10.4528C48.0675 10.3523 47.7903 10.2268 47.513 10.1012C47.513 10.1012 47.387 10.051 47.1601 9.97567C46.8829 9.90034 46.5804 9.82501 46.3032 9.74969C46.278 9.74969 46.2527 9.74969 46.2527 9.72458C45.6478 9.62414 45.1437 9.57392 44.816 9.57392C43.7574 9.57392 42.5727 9.64925 41.4385 9.85012C41.3629 9.87523 41.2873 9.90034 41.2117 9.90034C41.0604 9.92545 40.9344 10.0008 40.7832 10.0259C40.4807 10.1012 40.2034 10.1514 39.901 10.2268C39.901 10.2268 39.7749 10.2519 39.5733 10.3021C39.5481 10.3021 39.5481 10.3021 39.5229 10.3272C39.2456 10.4276 38.9936 10.5281 38.7163 10.6285C38.6911 10.6285 38.6659 10.6536 38.6407 10.6536H38.6155C37.7837 10.9549 37.0527 11.2563 36.347 11.5827C36.2966 11.6078 36.1958 11.6831 36.1706 11.6831C35.7925 11.8589 35.4396 12.0849 35.0615 12.3109L36.2966 12.7126C36.0697 12.813 34.1289 13.4157 32.7678 13.7421C32.541 13.8174 32.3393 13.9179 32.1125 13.943C32.1125 13.9179 32.1881 13.8928 32.2133 13.8676C31.9612 13.9179 31.7596 13.9681 31.6084 13.9681C31.5327 13.9681 31.4823 13.9681 31.4571 13.943C31.3059 13.7672 34.1793 9.92545 34.1793 9.92545L34.1541 11.1056C34.1541 11.1056 37.1284 8.89596 40.5059 7.81625C40.5563 7.79114 40.6067 7.79114 40.6571 7.76604C40.6823 7.76604 40.7075 7.74093 40.7075 7.74093C41.0352 7.61538 41.3881 7.48983 41.741 7.4145C41.8166 7.4145 41.8922 7.38939 41.9678 7.33917C42.119 7.26385 42.6484 7.18852 42.7492 7.18852C44.1859 6.86209 45.6478 6.68633 47.0845 6.68633C47.2358 6.68633 47.387 6.66122 47.5634 6.66122C47.6138 6.66122 47.6895 6.66122 47.7399 6.66122C47.7651 6.63611 47.8155 6.63611 47.8407 6.63611C47.8659 6.63611 47.9163 6.63611 47.9667 6.66122C48.0423 6.66122 48.0927 6.66122 48.1684 6.68633C48.2188 6.66122 48.244 6.63611 48.2692 6.63611C48.3448 6.63611 48.3952 6.63611 48.4708 6.63611C48.6725 6.68633 48.8993 6.73655 49.101 6.76166C49.2018 6.78677 49.3026 6.78677 49.3782 6.78677C49.7311 6.83698 50.084 6.8872 50.4369 7.01275C50.5125 7.03786 50.5881 7.06297 50.6889 7.06297C50.8654 7.06297 51.0166 7.11319 51.1678 7.18852C51.2434 7.23874 51.3443 7.26385 51.4199 7.31406C53.3355 7.9418 55.1251 9.04662 56.6626 10.7792C56.6626 10.7792 56.7634 10.9047 56.9399 11.1307C56.9651 11.1558 56.9903 11.206 57.0407 11.2814L57.0659 11.3065C57.0659 11.3065 57.0659 11.3316 57.0911 11.3316C57.0911 11.3567 57.1163 11.3818 57.1415 11.3818C57.5952 12.0598 58.6286 13.9681 58.5278 16.4037C58.6538 16.931 58.6538 17.2574 58.6034 17.6843ZM56.2089 11.1307C56.6626 11.6078 57.0911 12.1602 57.444 12.7879C57.5196 12.9386 57.6204 13.0641 57.696 13.2148C57.5952 12.8633 57.444 12.5368 57.2928 12.2104C57.0659 11.7836 56.8138 11.3818 56.5114 11.0303C56.0577 10.4779 55.604 10.051 55.2511 9.77479C54.6966 9.32282 53.89 8.82063 53.0834 8.51932C53.0582 8.51932 54.7974 9.64925 55.604 10.4779C55.8056 10.7038 56.0073 10.9298 56.2089 11.1307ZM38.9936 8.87085C38.2374 9.19728 36.6243 10.0259 36.1706 10.4528C36.6747 10.1765 38.3886 9.29771 39.0692 9.02151C40.6823 8.36866 41.7662 7.99202 42.3207 7.81625C41.3377 7.96691 39.9262 8.4691 38.9936 8.87085Z" fill="url(#paint1_linear_401_1935)"/>
<path d="M24.6005 21.0488C25.2306 19.9691 25.7347 19.1907 26.1632 18.6886C26.5665 18.1864 27.0202 17.7846 27.4991 17.4582C27.978 17.1318 28.5325 16.8807 29.1122 16.73C29.692 16.5794 30.3725 16.504 31.1035 16.504H33.624L32.767 17.9604H30.0953C29.3895 17.9604 28.7594 18.111 28.2553 18.4375C27.7512 18.7639 27.2722 19.2912 26.8438 19.9942H31.5572L30.7254 21.4757H26.012L24.0207 24.9408H22.3572L24.6005 21.0488Z" fill="#575756"/>
<path d="M34.9092 16.504H38.4884C39.0933 16.504 39.547 16.5291 39.8747 16.6044C40.2023 16.6798 40.4292 16.7802 40.5552 16.9309C40.7568 17.182 40.8577 17.4833 40.8073 17.885C40.7568 18.2868 40.5804 18.7387 40.2779 19.2409C39.9755 19.7431 39.6478 20.17 39.2949 20.5466C38.9421 20.8982 38.5388 21.1995 38.0851 21.4506C37.707 21.6514 37.3541 21.777 36.9508 21.8774C36.5727 21.9528 36.0434 22.003 35.3629 22.003H33.3716L31.6829 24.9408H30.0445L34.9092 16.504ZM37.6062 18.0106H35.6905L34.2538 20.4964H36.2703C36.7744 20.4964 37.2029 20.396 37.5558 20.1951C37.9086 19.9942 38.2111 19.6678 38.4632 19.266C38.7152 18.8141 38.7908 18.4876 38.6648 18.3119C38.5136 18.111 38.1859 18.0106 37.6062 18.0106Z" fill="#575756"/>
<path d="M48.9739 18.0106H44.9158C44.4873 18.0106 44.1092 18.0859 43.8067 18.2617C43.5043 18.4375 43.227 18.7137 43.0254 19.0903C42.8489 19.3916 42.7985 19.6176 42.8993 19.7683C42.975 19.9189 43.2018 19.9942 43.5547 19.9942H45.7224C46.6298 19.9942 47.1591 20.17 47.3355 20.5466C47.512 20.9233 47.3355 21.5259 46.8566 22.3796C46.3525 23.2585 45.7728 23.8862 45.0922 24.288C44.4117 24.6897 43.6051 24.8906 42.6725 24.8906H38.2363L39.1185 23.384H43.2522C43.7311 23.384 44.084 23.3087 44.3613 23.158C44.6385 23.0074 44.8654 22.7563 45.067 22.4299C45.2687 22.0783 45.3191 21.8272 45.2435 21.6766C45.1426 21.5259 44.8906 21.4506 44.4621 21.4506H42.5213C41.6139 21.4506 41.0846 21.2497 40.8829 20.8731C40.6813 20.4964 40.8325 19.8687 41.3114 19.0401C41.8407 18.1361 42.4204 17.4833 43.101 17.0815C43.7815 16.6798 44.5881 16.4538 45.5459 16.4538H49.8561L48.9739 18.0106Z" fill="#575756"/>
<rect x="0.904883" y="1.01035" width="79.2" height="44.2" stroke="#E2CEFC" stroke-width="0.8"/>
<defs>
<linearGradient id="paint0_linear_401_1935" x1="22.3381" y1="23.5517" x2="58.6302" y2="23.5517" gradientUnits="userSpaceOnUse">
<stop stop-color="#5BC4F1"/>
<stop offset="0.1279" stop-color="#56BBE9"/>
<stop offset="0.3366" stop-color="#47A3D3"/>
<stop offset="0.6" stop-color="#307BAE"/>
<stop offset="0.905" stop-color="#0F447D"/>
<stop offset="1" stop-color="#04326C"/>
</linearGradient>
<linearGradient id="paint1_linear_401_1935" x1="22.5319" y1="23.6836" x2="58.6589" y2="23.6836" gradientUnits="userSpaceOnUse">
<stop stop-color="#04326C"/>
<stop offset="0.1279" stop-color="#093B74"/>
<stop offset="0.3366" stop-color="#18538A"/>
<stop offset="0.6" stop-color="#2F7BAE"/>
<stop offset="0.905" stop-color="#50B2E0"/>
<stop offset="1" stop-color="#5BC4F1"/>
</linearGradient>
</defs>
</svg>
