<svg width="642" height="754" viewBox="0 0 642 754" fill="none" xmlns="http://www.w3.org/2000/svg">
<rect width="642" height="754" fill="#F7F1FF"/>
<path d="M1958.1 119.115C1977.71 124.988 1987.52 127.892 1993.24 134.173C1998.96 140.389 1999.4 148.69 2000.26 165.1L2038.19 886.466C2040.19 924.561 2041.19 943.544 2025.56 952.174C2009.93 960.803 1987.48 953.596 1942.56 939.18L-347.857 197.069C-366.838 190.969 -376.317 187.984 -381.833 181.821C-387.344 175.593 -387.763 167.613 -388.609 151.526L-436.292 -755.297C-437.135 -771.32 -437.555 -779.3 -432.766 -786.004C-427.969 -792.709 -418.922 -796.669 -400.836 -804.718L1098.03 -1472.93C1111.11 -1478.78 1117.65 -1481.71 1124.84 -1482.34C1132.04 -1482.92 1139.08 -1481.16 1153.16 -1477.64L2237.88 -1207.52C2302.31 -1191.42 2334.53 -1183.37 2336.1 -1166.03C2337.67 -1148.56 2307.33 -1135.8 2246.65 -1110.35L561.011 -402.888C504.234 -379.06 475.851 -367.114 476.758 -350.191C477.656 -333.267 507.152 -324.365 566.145 -306.689L1958.1 119.115Z" fill="url(#paint0_linear_422_3579)"/>
<path d="M871.932 2286.43C894.581 2293.21 905.904 2296.56 912.514 2303.81C919.118 2310.99 919.623 2320.58 920.619 2339.53L964.419 3172.51C966.733 3216.5 967.885 3238.42 949.838 3248.39C931.79 3258.35 905.857 3250.03 853.992 3233.38L-1790.82 2376.44C-1812.74 2369.4 -1823.69 2365.95 -1830.06 2358.83C-1836.42 2351.64 -1836.91 2342.43 -1837.88 2323.85L-1892.94 1276.71C-1893.92 1258.21 -1894.4 1249 -1888.87 1241.26C-1883.33 1233.51 -1872.89 1228.94 -1852 1219.65L-121.21 448.037C-106.109 441.282 -98.5593 437.905 -90.257 437.17C-81.9412 436.509 -73.8147 438.541 -57.5519 442.604L1195 754.521C1269.41 773.111 1306.61 782.406 1308.42 802.429C1310.24 822.6 1275.21 837.334 1205.13 866.726L-741.327 1683.65C-806.889 1711.17 -839.663 1724.96 -838.616 1744.5C-837.579 1764.05 -803.519 1774.33 -735.398 1794.74L871.932 2286.43Z" fill="url(#paint1_linear_422_3579)"/>
<defs>
<linearGradient id="paint0_linear_422_3579" x1="1126.32" y1="-1482.42" x2="765.445" y2="-201.724" gradientUnits="userSpaceOnUse">
<stop stop-color="#CCB0FF"/>
<stop offset="0.959779" stop-color="white"/>
</linearGradient>
<linearGradient id="paint1_linear_422_3579" x1="-88.5489" y1="437.08" x2="-505.26" y2="1915.94" gradientUnits="userSpaceOnUse">
<stop stop-color="#CCB0FF"/>
<stop offset="0.959779" stop-color="white"/>
</linearGradient>
</defs>
</svg>
