<svg width="81" height="46" viewBox="0 0 81 46" fill="none" xmlns="http://www.w3.org/2000/svg">
<path d="M51.1759 25.1325L51.7598 25.3081C51.7209 25.474 51.6625 25.6106 51.5749 25.7179C51.4873 25.8252 51.39 25.913 51.2635 25.9618C51.137 26.0203 50.9813 26.0496 50.7866 26.0496C50.5531 26.0496 50.3682 26.0203 50.2125 25.952C50.0665 25.8837 49.94 25.7666 49.8329 25.591C49.7259 25.4252 49.6675 25.2008 49.6675 24.9374C49.6675 24.5862 49.7648 24.313 49.9497 24.1179C50.1346 23.9227 50.4071 23.8349 50.7477 23.8349C51.0202 23.8349 51.2246 23.8935 51.3803 24.0008C51.536 24.1081 51.6528 24.274 51.7209 24.5081L51.137 24.6349C51.1175 24.5667 51.098 24.5179 51.0689 24.4886C51.0299 24.4398 50.991 24.4008 50.9326 24.3715C50.8742 24.3423 50.8158 24.3325 50.7574 24.3325C50.6115 24.3325 50.4947 24.391 50.4168 24.5179C50.3584 24.6057 50.3292 24.752 50.3292 24.9374C50.3292 25.1715 50.3682 25.3374 50.4363 25.4252C50.5044 25.513 50.6115 25.5618 50.738 25.5618C50.8645 25.5618 50.9618 25.5227 51.0202 25.4545C51.098 25.3666 51.1467 25.2691 51.1759 25.1325Z" fill="#225E63"/>
<path d="M51.9933 24.9372C51.9933 24.586 52.0907 24.3129 52.2853 24.1177C52.4799 23.9226 52.7524 23.825 53.1028 23.825C53.4628 23.825 53.7353 23.9226 53.93 24.108C54.1246 24.3031 54.2219 24.5665 54.2219 24.9177C54.2219 25.1714 54.183 25.3763 54.0954 25.5324C54.0078 25.6885 53.891 25.8153 53.7256 25.9031C53.5699 25.9909 53.3655 26.0397 53.132 26.0397C52.8887 26.0397 52.694 26.0007 52.5286 25.9226C52.3729 25.8446 52.2464 25.7275 52.1393 25.5519C52.0323 25.3763 51.9933 25.1909 51.9933 24.9372ZM52.6551 24.9372C52.6551 25.1519 52.694 25.308 52.7719 25.4055C52.8497 25.5031 52.9568 25.5519 53.1028 25.5519C53.2487 25.5519 53.3558 25.5031 53.4336 25.4153C53.5115 25.3177 53.5504 25.1519 53.5504 24.9177C53.5504 24.7129 53.5115 24.5665 53.4239 24.4787C53.3461 24.3811 53.2293 24.3421 53.093 24.3421C52.9568 24.3421 52.8497 24.3909 52.7719 24.4885C52.694 24.5665 52.6551 24.7226 52.6551 24.9372Z" fill="#225E63"/>
<path d="M55.4285 23.8641L55.7594 25.1714L56.0903 23.8641H56.9564V26.0105H56.4114V24.3714L55.993 26.0105H55.5064L55.0879 24.3714V26.0105H54.543V23.8641H55.4285Z" fill="#225E63"/>
<path d="M57.3846 23.8641H58.4842C58.7275 23.8641 58.9027 23.9226 59.0195 24.0397C59.1363 24.1568 59.1947 24.3129 59.1947 24.5275C59.1947 24.7421 59.1265 24.9178 59 25.0348C58.8735 25.1617 58.6691 25.2202 58.4064 25.2202H58.0463V26.0202H57.3846V23.8641ZM58.0463 24.7812H58.2118C58.3383 24.7812 58.4259 24.7617 58.4842 24.7129C58.5329 24.6641 58.5621 24.6153 58.5621 24.547C58.5621 24.4787 58.5426 24.4202 58.494 24.3714C58.4453 24.3226 58.3675 24.3031 58.241 24.3031H58.056V24.7812H58.0463Z" fill="#225E63"/>
<path d="M59.5449 23.8641H60.2067V25.4836H61.2382V26.0105H59.5449V23.8641Z" fill="#225E63"/>
<path d="M61.5694 23.8641H62.2311V26.0104H61.5694V23.8641Z" fill="#225E63"/>
<path d="M64.022 25.6495H63.2727L63.1656 26.0007H62.4941L63.3019 23.8543H64.022L64.8297 26.0007H64.1388L64.022 25.6495ZM63.8858 25.1909L63.6522 24.4202L63.4186 25.1909H63.8858Z" fill="#225E63"/>
<path d="M65.0339 23.8641H65.647L66.4547 25.0543V23.8641H67.0775V26.0104H66.4547L65.6567 24.8299V26.0104H65.0339V23.8641Z" fill="#225E63"/>
<path d="M67.3695 23.8641H69.384V24.3909H68.7125V26.0105H68.0507V24.3909H67.3792V23.8641H67.3695Z" fill="#225E63"/>
<path d="M43.2153 27.1324L45.1325 26.5275L44.5097 25.1421C44.0523 25.7177 43.5949 26.4592 43.2153 27.1324ZM42.5633 20.8006L38.8069 12.4104L11.3051 13.9714L18.925 34.8104L33.5907 30.1763C32.6564 28.8299 32.3158 27.2299 33.396 26.4494C34.6028 25.5714 36.4226 26.586 37.5807 28.0202C38.6998 26.147 41.8432 21.786 42.5633 20.8006Z" fill="#225E63"/>
<path d="M37.9499 18.4738C39.0982 18.4738 40.0324 17.5958 40.0324 16.5031C40.0324 15.4104 39.0982 14.5323 37.9499 14.5323C36.8015 14.5323 35.8673 15.4104 35.8673 16.5031C35.8673 17.586 36.8015 18.4738 37.9499 18.4738ZM36.2468 19.3226H39.6529V28.2494H36.2468V19.3226Z" fill="#FEFEFE"/>
<path d="M34.563 21.9274C34.5922 21.9372 34.6117 21.9274 34.6117 21.8982V19.6348C34.6117 19.6055 34.5922 19.5762 34.563 19.5567C34.563 19.5567 34.1154 19.264 32.7529 19.186C32.6848 19.147 31.4878 19.1372 31.1666 19.186C26.2035 19.586 26.0186 23.186 26.0186 23.3421V24.2201C26.0186 24.3274 26.0186 28.0055 31.1666 28.3274C31.6727 28.3665 32.6556 28.3274 32.7529 28.3274C33.9402 28.3274 34.7576 27.9665 34.7576 27.9665C34.7868 27.9567 34.8063 27.9274 34.8063 27.8982V25.7811C34.8063 25.7518 34.7868 25.7421 34.7674 25.7616C34.7674 25.7616 34.3976 26.0543 32.7821 26.2201C32.3247 26.2689 32.1009 26.2494 31.9354 26.2201C29.6388 25.8299 29.5317 24.1518 29.5317 24.1518C29.5317 24.1226 29.522 24.0738 29.522 24.0543V23.4104C29.522 23.3811 29.522 23.3323 29.5317 23.3128C29.5317 23.3128 29.6874 21.5079 31.9354 21.3128H32.7821C33.765 21.4396 34.563 21.9274 34.563 21.9274Z" fill="#FEFEFE"/>
<path d="M16.5595 28.2202C16.5595 28.2495 16.5789 28.269 16.6081 28.269H19.9267C19.9559 28.269 19.9753 28.2495 19.9753 28.2202V25.6251C19.9753 25.5958 19.9948 25.5763 20.024 25.5763C20.024 25.5763 25.3278 25.9568 25.3278 22.3958C25.3278 19.5763 21.9995 19.2739 20.9096 19.3226C20.8901 19.3226 16.6081 19.3226 16.6081 19.3226C16.5789 19.3226 16.5595 19.3422 16.5595 19.3714V28.2202ZM19.9169 23.5958V21.2641H20.7344C20.7344 21.2641 21.9119 21.3129 22.0092 22.1226C22.0287 22.1812 22.0287 22.5812 22.0092 22.6007C21.8535 23.547 20.8317 23.5958 20.8317 23.5958H19.9169Z" fill="#FEFEFE"/>
<path d="M38.0478 32.5568C38.3203 32.5568 38.5344 32.5568 38.8847 32.4007C40.0915 31.7665 44.1691 21.786 48.4705 18.7129C48.4997 18.6933 48.5289 18.6641 48.5483 18.6348C48.5775 18.5958 48.5775 18.5568 48.5775 18.5568C48.5775 18.5568 48.5775 18.3519 47.945 18.3519C44.1204 18.2446 40.1401 26.2934 38.0478 29.4738C38.0186 29.5129 37.8824 29.4738 37.8824 29.4738C37.8824 29.4738 36.481 27.8153 35.2645 27.1812C35.2353 27.1714 35.0991 27.1226 34.9531 27.1324C34.8558 27.1324 34.2914 27.2494 34.0286 27.5226C33.7172 27.8543 33.7269 28.0397 33.7269 28.4397C33.7269 28.469 33.7464 28.6055 33.7853 28.6738C34.087 29.2007 35.4397 31.0738 36.5589 32.108C36.7243 32.2348 36.987 32.5568 38.0478 32.5568Z" fill="#2BBC5D"/>
<path d="M49.5991 15.6983H52.7813C53.4139 15.6983 53.9199 15.7861 54.2995 15.9519C54.6888 16.1276 55.0099 16.3715 55.2532 16.6836C55.5062 17.0056 55.6911 17.3763 55.7982 17.7958C55.9149 18.2154 55.9733 18.6641 55.9733 19.1422C55.9733 19.8836 55.8858 20.4593 55.7203 20.869C55.5549 21.2788 55.3213 21.6202 55.0196 21.9032C54.7179 22.1763 54.3968 22.3617 54.0562 22.4593C53.5891 22.5861 53.1609 22.6446 52.7813 22.6446H49.5991V15.6983ZM51.74 17.269V21.0641H52.2656C52.7132 21.0641 53.0344 21.0154 53.2193 20.9178C53.4042 20.8202 53.5599 20.6446 53.6669 20.4007C53.774 20.1568 53.8324 19.7471 53.8324 19.191C53.8324 18.4495 53.7156 17.9519 53.4723 17.6788C53.229 17.4056 52.8397 17.269 52.2753 17.269H51.74Z" fill="#225E63"/>
<path d="M56.5672 20.3519L58.6109 20.2251C58.6596 20.5568 58.7471 20.8104 58.8834 20.986C59.1072 21.269 59.4186 21.4056 59.8274 21.4056C60.129 21.4056 60.3723 21.3373 60.5378 21.1909C60.7032 21.0446 60.7908 20.8787 60.7908 20.6934C60.7908 20.5178 60.7129 20.3519 60.5572 20.2056C60.4015 20.0592 60.0317 19.9324 59.4576 19.8056C58.5136 19.5909 57.8518 19.308 57.4431 18.9568C57.0344 18.6056 56.8397 18.1568 56.8397 17.6104C56.8397 17.2495 56.9468 16.9178 57.1511 16.5958C57.3555 16.2739 57.6669 16.03 58.0854 15.8446C58.5038 15.6592 59.0683 15.5714 59.7884 15.5714C60.674 15.5714 61.3552 15.7373 61.8126 16.069C62.2797 16.4007 62.5522 16.9275 62.6398 17.6495L60.6156 17.7665C60.5572 17.4543 60.4502 17.23 60.275 17.0836C60.0998 16.9373 59.8663 16.869 59.5646 16.869C59.3116 16.869 59.1267 16.9178 59.0002 17.0251C58.8737 17.1324 58.8153 17.2592 58.8153 17.4153C58.8153 17.5226 58.8639 17.63 58.971 17.7178C59.0683 17.8056 59.3116 17.8934 59.6911 17.9714C60.6254 18.1763 61.2968 18.3812 61.7056 18.586C62.1143 18.7909 62.4063 19.0543 62.5912 19.3568C62.7761 19.6592 62.8637 20.0104 62.8637 20.3909C62.8637 20.8397 62.7371 21.2495 62.4938 21.6202C62.2506 22.0007 61.9002 22.2836 61.4623 22.4787C61.0244 22.6739 60.4599 22.7714 59.7884 22.7714C58.6109 22.7714 57.7934 22.547 57.336 22.0885C56.8884 21.63 56.6354 21.0543 56.5672 20.3519Z" fill="#225E63"/>
<path d="M63.4081 20.3518L65.4518 20.2249C65.5004 20.5566 65.588 20.8103 65.7243 20.9859C65.9481 21.2688 66.2595 21.4054 66.6682 21.4054C66.9699 21.4054 67.2132 21.3371 67.3786 21.1908C67.5441 21.0444 67.6317 20.8786 67.6317 20.6932C67.6317 20.5176 67.5538 20.3518 67.3981 20.2054C67.2424 20.0591 66.8726 19.9323 66.2984 19.8054C65.3544 19.5908 64.6927 19.3079 64.284 18.9566C63.885 18.6054 63.6806 18.1566 63.6806 17.6103C63.6806 17.2493 63.7876 16.9176 63.992 16.5957C64.1964 16.2737 64.5078 16.0298 64.9263 15.8445C65.3447 15.6591 65.9092 15.5713 66.6293 15.5713C67.5149 15.5713 68.1961 15.7371 68.6535 16.0688C69.1206 16.4005 69.3931 16.9274 69.4807 17.6493L67.4565 17.7664C67.3981 17.4542 67.2911 17.2298 67.1159 17.0835C66.9407 16.9371 66.7072 16.8688 66.4055 16.8688C66.1524 16.8688 65.9675 16.9176 65.841 17.0249C65.7145 17.1323 65.6561 17.2591 65.6561 17.4152C65.6561 17.5225 65.7048 17.6298 65.8118 17.7176C65.9092 17.8054 66.1524 17.8932 66.532 17.9713C67.4662 18.1762 68.1377 18.381 68.5464 18.5859C68.9552 18.7908 69.2471 19.0542 69.432 19.3566C69.6169 19.6591 69.7045 20.0103 69.7045 20.3908C69.7045 20.8396 69.578 21.2493 69.3347 21.6201C69.0914 22.0005 68.7411 22.2835 68.3032 22.4786C67.8652 22.6737 67.3008 22.7713 66.6293 22.7713C65.4518 22.7713 64.6343 22.5469 64.1769 22.0884C63.7195 21.6298 63.4665 21.0542 63.4081 20.3518Z" fill="#225E63"/>
<rect x="0.904761" y="1.01035" width="79.2" height="44.2" stroke="#E2CEFC" stroke-width="0.8"/>
</svg>
