<svg width="81" height="46" viewBox="0 0 81 46" fill="none" xmlns="http://www.w3.org/2000/svg">
<path d="M36.3972 33.7106H31.4072L34.5283 13.5756H39.5181L36.3972 33.7106Z" fill="#00579F"/>
<path d="M54.4868 14.0679C53.5025 13.6605 51.9414 13.2107 50.0111 13.2107C45.0833 13.2107 41.6131 15.9523 41.5919 19.872C41.5509 22.764 44.0764 24.3703 45.9652 25.3345C47.8958 26.3199 48.552 26.963 48.552 27.8413C48.5324 29.1902 46.992 29.812 45.5553 29.812C43.5631 29.812 42.4956 29.4914 40.8734 28.7409L40.2163 28.4192L39.518 32.9391C40.6884 33.4954 42.8446 33.9891 45.0833 34.0107C50.3192 34.0107 53.7279 31.3115 53.7683 27.1344C53.7882 24.8423 52.4547 23.086 49.5797 21.6508C47.8344 20.7296 46.7655 20.1083 46.7655 19.1657C46.786 18.3088 47.6696 17.431 49.6397 17.431C51.2619 17.3881 52.4538 17.7949 53.3568 18.202L53.8081 18.4158L54.4868 14.0679Z" fill="#00579F"/>
<path d="M61.1185 26.5775C61.5294 25.4208 63.1107 20.9439 63.1107 20.9439C63.09 20.9869 63.5209 19.7658 63.7673 19.0162L64.116 20.7512C64.116 20.7512 65.0609 25.5708 65.2661 26.5775C64.4863 26.5775 62.1041 26.5775 61.1185 26.5775ZM67.278 13.5756H63.4182C62.228 13.5756 61.3237 13.9395 60.8101 15.2462L53.3981 33.7103H58.634C58.634 33.7103 59.496 31.2252 59.6812 30.6899C60.2556 30.6899 65.3491 30.6899 66.088 30.6899C66.2313 31.3968 66.6834 33.7103 66.6834 33.7103H71.3037L67.278 13.5756Z" fill="#00579F"/>
<path d="M27.2394 13.5758L22.3525 27.306L21.8185 24.5213C20.915 21.3082 18.0815 17.8173 14.9194 16.0815L19.3956 33.6894H24.6725L32.5159 13.5758H27.2394Z" fill="#00579F"/>
<path d="M17.8147 13.5757H9.78624L9.7041 13.9825C15.9668 15.6534 20.1144 19.6803 21.8185 24.5213L20.0733 15.2682C19.7859 13.9822 18.9029 13.6181 17.8147 13.5757Z" fill="#FAA61A"/>
<rect x="0.904761" y="1.01035" width="79.2" height="44.2" stroke="#E2CEFC" stroke-width="0.8"/>
</svg>
