<svg width="81" height="46" viewBox="0 0 81 46" fill="none" xmlns="http://www.w3.org/2000/svg">
<path d="M27.2445 39.1422V37.0715C27.2445 36.2795 26.7449 35.7608 25.8873 35.7608C25.4585 35.7608 24.9922 35.8975 24.6716 36.3478C24.4218 35.9699 24.0638 35.7608 23.5267 35.7608C23.1686 35.7608 22.8106 35.8654 22.5275 36.2433V35.8292H21.7781V39.1422H22.5275V37.3128C22.5275 36.7258 22.8481 36.4483 23.3477 36.4483C23.8473 36.4483 24.0971 36.7579 24.0971 37.3128V39.1422H24.8465V37.3128C24.8465 36.7258 25.2045 36.4483 25.6666 36.4483C26.1662 36.4483 26.416 36.7579 26.416 37.3128V39.1422H27.2445ZM38.3606 35.8292H37.1449V34.828H36.3955V35.8292H35.7169V36.4845H36.3955V38.0043C36.3955 38.7642 36.7161 39.2105 37.5738 39.2105C37.8943 39.2105 38.2524 39.106 38.5022 38.9693L38.2857 38.3461C38.0692 38.4828 37.8194 38.519 37.6404 38.519C37.2823 38.519 37.1408 38.3099 37.1408 37.9681V36.4845H38.3565V35.8292H38.3606ZM44.7222 35.7568C44.2934 35.7568 44.0061 35.9659 43.8271 36.2393V35.8251H43.0777V39.1381H43.8271V37.2726C43.8271 36.7217 44.0769 36.4081 44.5432 36.4081C44.6847 36.4081 44.8638 36.4443 45.0095 36.4765L45.226 35.7849C45.0761 35.7568 44.8638 35.7568 44.7222 35.7568ZM35.1091 36.1026C34.751 35.8613 34.2514 35.7568 33.7144 35.7568C32.8567 35.7568 32.2863 36.1709 32.2863 36.8263C32.2863 37.3771 32.7152 37.6907 33.4646 37.7912L33.8226 37.8274C34.214 37.8958 34.4305 38.0003 34.4305 38.1732C34.4305 38.4144 34.1432 38.5873 33.6436 38.5873C33.144 38.5873 32.7485 38.4144 32.4987 38.2415L32.1406 38.7924C32.532 39.0698 33.069 39.2065 33.6061 39.2065C34.6053 39.2065 35.1799 38.7562 35.1799 38.137C35.1799 37.55 34.7136 37.2404 34.0016 37.1359L33.6436 37.0997C33.323 37.0635 33.0732 36.9951 33.0732 36.7901C33.0732 36.5489 33.323 36.4122 33.7185 36.4122C34.1473 36.4122 34.5762 36.585 34.7927 36.6896L35.1091 36.1026ZM55.0473 35.7568C54.6185 35.7568 54.3312 35.9659 54.1522 36.2393V35.8251H53.4028V39.1381H54.1522V37.2726C54.1522 36.7217 54.402 36.4081 54.8682 36.4081C55.0098 36.4081 55.1888 36.4443 55.3345 36.4765L55.551 35.793C55.4053 35.7568 55.193 35.7568 55.0473 35.7568ZM45.4716 37.4857C45.4716 38.4868 46.1877 39.2105 47.2951 39.2105C47.7947 39.2105 48.1528 39.106 48.5108 38.8326L48.1528 38.2456C47.8655 38.4546 47.5824 38.5551 47.2577 38.5551C46.6498 38.5551 46.221 38.141 46.221 37.4857C46.221 36.8625 46.6498 36.4483 47.2577 36.4162C47.5783 36.4162 47.8655 36.5207 48.1528 36.7258L48.5108 36.1388C48.1528 35.8613 47.7947 35.7608 47.2951 35.7608C46.1877 35.7568 45.4716 36.4845 45.4716 37.4857ZM52.4036 35.8292H51.6542V36.2433C51.4044 35.9337 51.0463 35.7608 50.58 35.7608C49.6141 35.7608 48.8647 36.4845 48.8647 37.4857C48.8647 38.4868 49.6141 39.2105 50.58 39.2105C51.0796 39.2105 51.4377 39.0376 51.6542 38.728V39.1422H52.4036V35.8292ZM49.6516 37.4857C49.6516 36.8986 50.0429 36.4162 50.6883 36.4162C51.2961 36.4162 51.7249 36.8665 51.7249 37.4857C51.7249 38.0727 51.2961 38.5551 50.6883 38.5551C50.0471 38.519 49.6516 38.0686 49.6516 37.4857ZM40.6838 35.7568C39.6846 35.7568 38.9685 36.4483 38.9685 37.4816C38.9685 38.519 39.6846 39.2065 40.7212 39.2065C41.2208 39.2065 41.7204 39.0698 42.116 38.7562L41.7579 38.2375C41.4706 38.4466 41.1126 38.5833 40.7587 38.5833C40.2924 38.5833 39.8303 38.3742 39.722 37.7912H42.2575C42.2575 37.6867 42.2575 37.6183 42.2575 37.5138C42.2908 36.4483 41.6455 35.7568 40.6838 35.7568ZM40.6838 36.38C41.1501 36.38 41.4706 36.6574 41.5414 37.1721H39.7554C39.8261 36.7258 40.1467 36.38 40.6838 36.38ZM59.3022 34.5184H58.5528V36.2433C58.303 35.9337 57.945 35.7608 57.4787 35.7608C56.5128 35.7608 55.7634 36.4845 55.7634 37.4857C55.7634 38.4868 56.5128 39.2105 57.4787 39.2105C57.9783 39.2105 58.3363 39.0376 58.5528 38.728V39.1422H59.3022V34.5184ZM56.5502 37.4857C56.5502 36.8986 56.9416 36.4162 57.5869 36.4162C58.1948 36.4162 58.6236 36.8665 58.6236 37.4857C58.6236 38.0727 58.1948 38.5551 57.5869 38.5551C56.9416 38.519 56.5502 38.0686 56.5502 37.4857ZM31.462 35.8292H30.7126V36.2433C30.4628 35.9337 30.1047 35.7608 29.6385 35.7608C28.6726 35.7608 27.9232 36.4845 27.9232 37.4857C27.9232 38.4868 28.6726 39.2105 29.6385 39.2105C30.1381 39.2105 30.4961 39.0376 30.7126 38.728V39.1422H31.462V35.8292ZM28.6767 37.4857C28.6767 36.8986 29.0681 36.4162 29.7134 36.4162C30.3212 36.4162 30.7501 36.8665 30.7501 37.4857C30.7501 38.0727 30.3212 38.5551 29.7134 38.5551C29.0681 38.519 28.6767 38.0686 28.6767 37.4857Z" fill="black"/>
<path d="M46.117 10.6679H34.8593V30.2001H46.117V10.6679Z" fill="#FF5A00"/>
<path d="M35.6088 20.4341C35.6088 16.4658 37.5405 12.9437 40.5048 10.668C38.3233 9.01155 35.5713 8.01041 32.5695 8.01041C25.4586 8.01041 19.7048 13.5669 19.7048 20.4341C19.7048 27.3013 25.4586 32.8578 32.5695 32.8578C35.5713 32.8578 38.3233 31.8567 40.5048 30.2002C37.5364 27.9567 35.6088 24.4025 35.6088 20.4341Z" fill="#EB001B"/>
<path d="M61.305 20.4341C61.305 27.3013 55.5513 32.8578 48.4404 32.8578C45.4386 32.8578 42.6864 31.8567 40.5048 30.2002C43.5066 27.9205 45.4011 24.4024 45.4011 20.4341C45.4011 16.4657 43.4691 12.9437 40.5048 10.668C42.6823 9.01155 45.4344 8.01038 48.4362 8.01038C55.5513 8.01038 61.305 13.6031 61.305 20.4341Z" fill="#F79E1B"/>
<rect x="0.904883" y="1.01035" width="79.2" height="44.2" stroke="#E2CEFC" stroke-width="0.8"/>
</svg>
