<svg width="81" height="46" viewBox="0 0 81 46" fill="none" xmlns="http://www.w3.org/2000/svg">
<path d="M26.7637 10.4104C23.8286 10.4104 21.323 12.5766 20.8377 15.5338L20.0842 20.128H62.096L63.6633 10.4104H26.7637Z" fill="#FFC82B"/>
<path d="M20.0842 20.128L17.3473 36.8104H54.2554C57.2258 36.8104 59.7597 34.6138 60.2424 31.6197L62.096 20.128H20.0842Z" fill="#1B397C"/>
<path d="M27.4101 25.5572C26.9422 25.5572 26.5208 25.7039 26.1471 25.9975C25.7729 26.2908 25.4724 26.7228 25.2456 27.2934C25.0187 27.8636 24.9053 28.4768 24.9053 29.1321C24.9053 29.7369 25.0265 30.186 25.2697 30.4796C25.5126 30.7729 25.9001 30.92 26.432 30.92C26.9497 30.92 27.5488 30.7805 28.2294 30.5017V31.9142C27.5239 32.193 26.8147 32.3324 26.1021 32.3324C25.2013 32.3324 24.501 32.0619 24.0011 31.5202C23.5013 30.9788 23.2514 30.2118 23.2514 29.2191C23.2514 28.2701 23.4358 27.3963 23.8044 26.5978C24.173 25.7992 24.6661 25.1925 25.2831 24.7776C25.9001 24.3632 26.6094 24.1557 27.4105 24.1557C27.8538 24.1557 28.2473 24.1964 28.5913 24.2781C28.9353 24.3597 29.3039 24.5091 29.6977 24.7264L29.0699 26.0845C28.6943 25.8706 28.3838 25.7297 28.1394 25.6609C27.8943 25.5914 27.6515 25.5572 27.4101 25.5572ZM35.2976 32.2234H33.6701L34.3827 28.7951H31.8779L31.1653 32.2234H29.543L31.1865 24.2803H32.814L32.1702 27.3933H34.6754L35.3188 24.2803H36.9411L35.2976 32.2234ZM41.3664 30.3326H38.8508L37.9359 32.2234H36.2341L40.308 24.2477H42.2917L43.0735 32.2234H41.494L41.3664 30.3326ZM41.2865 28.9201L41.1485 27.0187C41.1128 26.5442 41.0953 26.086 41.0953 25.6442V25.4486C40.9391 25.8832 40.7461 26.3432 40.5155 26.8284L39.5154 28.9201H41.2865ZM50.0573 26.5947C50.0573 27.4678 49.7567 28.1531 49.1557 28.6512C48.5547 29.1492 47.7257 29.3981 46.6691 29.3981H46.2117L45.6319 32.2234H44.0096L45.6531 24.2803H47.4509C48.3089 24.2803 48.9579 24.4733 49.3975 24.8589C49.8371 25.2445 50.0573 25.8235 50.0573 26.5947ZM46.5044 28.0182H46.8023C47.3059 28.0182 47.7019 27.8932 47.9909 27.6433C48.2799 27.3933 48.4242 27.0586 48.4242 26.6384C48.4242 25.9865 48.0787 25.6605 47.3873 25.6605H46.9938L46.5044 28.0182ZM55.0781 29.8764C55.0781 30.6335 54.8155 31.2319 54.2907 31.6722C53.766 32.1121 53.0549 32.3321 52.1582 32.3321C51.3742 32.3321 50.7434 32.1691 50.2648 31.8431V30.3547C50.9487 30.746 51.584 30.9412 52.1686 30.9412C52.5658 30.9412 52.876 30.8645 53.0995 30.7102C53.323 30.5564 53.4346 30.3452 53.4346 30.0773C53.4346 29.9216 53.4108 29.7848 53.3628 29.667C53.3152 29.5496 53.2468 29.4398 53.1582 29.3384C53.0694 29.237 52.8496 29.0523 52.4989 28.7841C52.0094 28.4255 51.6654 28.0707 51.4668 27.7193C51.2682 27.3678 51.1689 26.9895 51.1689 26.5837C51.1689 26.1164 51.2786 25.6989 51.4988 25.3312C51.7186 24.9638 52.0314 24.6773 52.4375 24.4726C52.8436 24.2682 53.3104 24.1656 53.8392 24.1656C54.6083 24.1656 55.3124 24.3449 55.9506 24.7036L55.3708 25.9694C54.8177 25.7016 54.3071 25.5675 53.8388 25.5675C53.5443 25.5675 53.3033 25.6491 53.1155 25.8121C52.9273 25.9751 52.8336 26.1905 52.8336 26.4587C52.8336 26.6798 52.892 26.8724 53.0091 27.0373C53.1259 27.2022 53.3885 27.4203 53.7965 27.6919C54.2253 27.9818 54.5462 28.3013 54.759 28.6508C54.9717 29.0007 55.0781 29.4091 55.0781 29.8764ZM52.9336 16.3365C53.1731 16.0112 53.3258 15.6279 53.3765 15.2241C53.4272 14.8204 53.3743 14.4101 53.223 14.0335L52.3527 11.8669C52.2772 11.5877 52.5684 11.3537 52.8165 11.4943L58.9935 14.9974C59.2238 15.1277 59.2078 15.4707 58.9671 15.579L51.4389 18.9552C51.2723 19.0301 51.1113 18.8405 51.2068 18.6824L52.9336 16.3365Z" fill="white"/>
<rect x="0.904883" y="1.01035" width="79.2" height="44.2" stroke="#E2CEFC" stroke-width="0.8"/>
</svg>
