<svg width="81" height="46" viewBox="0 0 81 46" fill="none" xmlns="http://www.w3.org/2000/svg">
<path d="M27.1047 9.61057H38.0666C39.5968 9.61057 40.5485 10.8805 40.1916 12.4437L35.088 34.7536C34.7278 36.3114 33.1958 37.5824 31.6645 37.5824H20.7036C19.1756 37.5824 18.2217 36.3114 18.5787 34.7536L23.6844 12.4437C24.0413 10.8805 25.5726 9.61057 27.1047 9.61057Z" fill="#E21836"/>
<path d="M37.1544 9.61047H49.7604C51.2903 9.61047 50.6004 10.8804 50.2405 12.4436L45.1377 34.7536C44.7797 36.3113 44.8914 37.5823 43.3583 37.5823H30.7523C29.2192 37.5823 28.2704 36.3113 28.6305 34.7536L33.733 12.4436C34.0954 10.8804 35.6234 9.61047 37.1544 9.61047Z" fill="#00447C"/>
<path d="M49.2605 9.6105H60.2225C61.7548 9.6105 62.7065 10.8804 62.3466 12.4436L57.2439 34.7536C56.8837 36.3113 55.3506 37.5823 53.8185 37.5823H42.8616C41.3285 37.5823 40.3776 36.3113 40.7367 34.7536L45.8403 12.4436C46.1972 10.8804 47.7274 9.6105 49.2605 9.6105Z" fill="#007B84"/>
<path d="M29.9675 16.7602C28.8402 16.7719 28.5073 16.7602 28.401 16.7346C28.3601 16.9324 27.5994 20.5052 27.5973 20.5082C27.4335 21.231 27.3143 21.7463 26.9095 22.079C26.6797 22.2724 26.4115 22.3657 26.1005 22.3657C25.6006 22.3657 25.3093 22.113 25.2604 21.6337L25.2511 21.4691C25.2511 21.4691 25.4034 20.5009 25.4034 20.4954C25.4034 20.4954 26.2017 17.2396 26.3447 16.8092C26.3522 16.7847 26.3543 16.7719 26.3562 16.7602C24.8022 16.7741 24.5267 16.7602 24.5078 16.7346C24.4973 16.7697 24.4589 16.9716 24.4589 16.9716L23.6437 20.6412L23.5737 20.9525L23.4382 21.9705C23.4382 22.2724 23.4964 22.5189 23.6124 22.7273C23.9838 23.3881 25.0432 23.4871 25.6425 23.4871C26.4147 23.4871 27.139 23.3201 27.6285 23.0151C28.4782 22.5039 28.7005 21.7049 28.8987 20.9949L28.9906 20.6306C28.9906 20.6306 29.813 17.2491 29.9528 16.8092C29.9581 16.7847 29.9603 16.7719 29.9675 16.7602ZM32.7657 19.4881C32.5674 19.4881 32.2051 19.5371 31.8797 19.6995C31.7616 19.7613 31.6499 19.8325 31.5321 19.9036L31.6384 19.5126L31.5802 19.4468C30.89 19.5891 30.7356 19.6081 30.0981 19.6995L30.0446 19.7357C29.9706 20.3606 29.9049 20.8304 29.6305 22.0587C29.526 22.5114 29.4175 22.9684 29.3088 23.42L29.3382 23.4774C29.9915 23.4423 30.1897 23.4423 30.7575 23.4519L30.8034 23.401C30.8756 23.0247 30.8849 22.9366 31.0447 22.1746C31.1198 21.8133 31.2764 21.0195 31.3536 20.7368C31.4955 20.6699 31.6355 20.6041 31.7691 20.6041C32.0873 20.6041 32.0485 20.8867 32.0362 20.9994C32.0226 21.1884 31.9067 21.806 31.7878 22.3362L31.7084 22.6784C31.6531 22.9312 31.5924 23.1768 31.5371 23.4274L31.5612 23.4774C32.2051 23.4423 32.4015 23.4423 32.9514 23.4519L33.016 23.401C33.1154 22.8134 33.1445 22.6561 33.3209 21.8005L33.4096 21.4074C33.5819 20.6381 33.6685 20.248 33.5381 19.9302C33.4002 19.5741 33.0695 19.4881 32.7657 19.4881ZM35.8916 20.2936C35.5493 20.3606 35.331 20.4052 35.114 20.434C34.899 20.4691 34.6892 20.5009 34.3584 20.5477L34.3322 20.5719L34.3082 20.5913C34.2737 20.8421 34.2497 21.0589 34.204 21.3138C34.1653 21.5774 34.1057 21.8769 34.0087 22.3073C33.9336 22.6368 33.8949 22.7516 33.8521 22.8675C33.8104 22.9834 33.7645 23.096 33.68 23.42L33.6998 23.4499L33.7164 23.4774C34.0255 23.4624 34.2278 23.4518 34.4357 23.4499C34.6433 23.4423 34.8583 23.4499 35.1913 23.4518L35.2204 23.4276L35.2516 23.401C35.2997 23.1088 35.307 23.0302 35.3363 22.8876C35.3655 22.7347 35.4157 22.5231 35.5389 21.9577C35.5971 21.6922 35.662 21.4275 35.7224 21.1566C35.7852 20.8867 35.8509 20.6209 35.9135 20.3554L35.9041 20.3233L35.8916 20.2936ZM35.8989 19.2076C35.5878 19.0207 35.042 19.08 34.6746 19.3382C34.3083 19.5912 34.2666 19.9503 34.5765 20.1396C34.8822 20.3213 35.4302 20.2672 35.7944 20.0068C36.1599 19.7484 36.2056 19.3926 35.8989 19.2076ZM37.7797 23.536C38.409 23.536 39.054 23.3594 39.5394 22.8355C39.913 22.4105 40.0842 21.7783 40.1435 21.5179C40.3367 20.655 40.1863 20.2521 39.9974 20.0067C39.7104 19.6326 39.2033 19.5127 38.6772 19.5127C38.3609 19.5127 37.6074 19.5445 37.0188 20.097C36.5961 20.4956 36.4008 21.0364 36.2829 21.5549C36.164 22.0832 36.0272 23.0343 36.8862 23.3883C37.1513 23.5041 37.5334 23.536 37.7797 23.536ZM37.7306 21.5944C37.8757 20.9409 38.0469 20.3925 38.484 20.3925C38.8266 20.3925 38.8514 20.8005 38.6991 21.4562C38.6719 21.6017 38.5468 22.1428 38.3777 22.3732C38.2596 22.5433 38.1199 22.6464 37.9654 22.6464C37.9195 22.6464 37.6461 22.6464 37.6419 22.2331C37.6397 22.0291 37.6806 21.8207 37.7306 21.5944ZM41.7165 23.4519L41.7656 23.4011C41.8354 23.0248 41.8469 22.9364 42.0013 22.1747C42.0785 21.8134 42.2383 21.0196 42.3134 20.7369C42.4555 20.6697 42.5931 20.6039 42.731 20.6039C43.0471 20.6039 43.0086 20.8865 42.9961 20.9992C42.9846 21.1885 42.8686 21.8058 42.7476 22.336L42.6725 22.6782C42.615 22.9312 42.5525 23.1766 42.4972 23.4275L42.5213 23.4775C43.1673 23.4424 43.3562 23.4424 43.9093 23.4519L43.9761 23.4011C44.0731 22.8132 44.0993 22.6559 44.281 21.8006L44.3675 21.4072C44.5407 20.6379 44.6283 20.248 44.5001 19.9303C44.3582 19.5742 44.0253 19.4882 43.7257 19.4882C43.5272 19.4882 43.163 19.5369 42.8395 19.6996C42.7238 19.7614 42.6078 19.8324 42.494 19.9036L42.5931 19.5127L42.54 19.4466C41.8501 19.5891 41.6924 19.6082 41.0557 19.6996L41.0068 19.7358C40.9296 20.3607 40.8668 20.8302 40.5924 22.0588C40.488 22.5115 40.3795 22.9685 40.271 23.4201L40.3001 23.4775C40.9545 23.4424 41.1498 23.4424 41.7165 23.4519ZM46.4632 23.4774C46.5038 23.2755 46.7451 22.0791 46.7472 22.0791C46.7472 22.0791 46.9527 21.2012 46.9653 21.1693C46.9653 21.1693 47.0299 21.0779 47.0946 21.0417H47.1897C48.0872 21.0417 49.1006 21.0417 49.895 20.4468C50.4355 20.0387 50.805 19.4361 50.9699 18.7038C51.0126 18.5242 51.0442 18.3107 51.0442 18.0971C51.0442 17.8166 50.9889 17.5391 50.8291 17.3223C50.424 16.7453 49.6174 16.7347 48.6862 16.7303C48.6833 16.7303 48.2272 16.7347 48.2272 16.7347C47.0353 16.7497 46.5573 16.7453 46.3609 16.7208C46.3443 16.8092 46.3131 16.9665 46.3131 16.9665C46.3131 16.9665 45.8861 18.9813 45.8861 18.9845C45.8861 18.9845 44.8644 23.2682 44.8163 23.47C45.857 23.4572 46.2837 23.4572 46.4632 23.4774ZM47.2544 19.8983C47.2544 19.8983 47.7083 17.8876 47.7062 17.8952L47.7209 17.7921L47.7273 17.7135L47.9087 17.7326C47.9087 17.7326 48.8449 17.8145 48.8669 17.8166C49.2364 17.9622 49.3887 18.3373 49.2823 18.827C49.1853 19.2745 48.9003 19.6508 48.5339 19.8325C48.2323 19.9865 47.8628 19.9993 47.482 19.9993H47.2357L47.2544 19.8983ZM50.0808 21.6316C49.9608 22.1523 49.823 23.1034 50.6777 23.4424C50.9502 23.5604 51.1944 23.5955 51.4427 23.5827C51.7048 23.5683 51.9476 23.4345 52.1726 23.2419C52.1523 23.321 52.132 23.4002 52.1117 23.4796L52.1504 23.5305C52.7652 23.5041 52.956 23.5041 53.6221 23.5093L53.6825 23.4625C53.7798 22.8803 53.8714 22.315 54.1242 21.2012C54.2473 20.6678 54.3702 20.1394 54.4966 19.6081L54.4769 19.5496C53.7891 19.6794 53.6053 19.7072 52.9437 19.8027L52.8935 19.8443C52.8868 19.8984 52.8799 19.9504 52.8735 20.0023C52.7706 19.8331 52.6215 19.6887 52.3914 19.5986C52.0973 19.4808 51.4063 19.6326 50.8124 20.1832C50.395 20.5764 50.1946 21.115 50.0808 21.6316ZM51.5252 21.6634C51.6724 21.0217 51.8416 20.4787 52.2798 20.4787C52.5568 20.4787 52.7027 20.739 52.6731 21.183C52.6496 21.2937 52.6242 21.4104 52.594 21.5424C52.5502 21.7331 52.5026 21.9222 52.4564 22.1115C52.4094 22.241 52.3546 22.3632 52.2945 22.4445C52.1817 22.6072 51.9134 22.7081 51.759 22.7081C51.7152 22.7081 51.4448 22.7081 51.4354 22.3022C51.4333 22.1001 51.4742 21.892 51.5252 21.6634ZM59.0681 19.5445L59.0149 19.4827C58.3344 19.6231 58.2112 19.6454 57.586 19.7313L57.54 19.7781C57.5379 19.7858 57.536 19.7975 57.5328 19.8081L57.5307 19.7975C57.0652 20.8908 57.0789 20.6549 56.7 21.5157C56.6979 21.4765 56.6979 21.452 56.6957 21.4104L56.6009 19.5445L56.5413 19.4827C55.8284 19.6231 55.8116 19.6454 55.1532 19.7313L55.1019 19.7781C55.0947 19.8004 55.0947 19.8249 55.0905 19.8516L55.0947 19.8611C55.177 20.2893 55.1572 20.1938 55.2398 20.8696C55.2783 21.2012 55.3296 21.5347 55.3681 21.8623C55.433 22.4105 55.4693 22.6803 55.5487 23.5169C55.1041 24.2639 54.9988 24.5466 54.5708 25.2022L54.5737 25.2087L54.2723 25.6941C54.2379 25.7452 54.2066 25.7803 54.1628 25.7953C54.1147 25.8195 54.0522 25.8238 53.9653 25.8238H53.7983L53.5501 26.6645L54.4016 26.6794C54.9015 26.6772 55.2158 26.4392 55.3849 26.1193L55.9203 25.1851H55.9118L55.9682 25.1192C56.3283 24.3297 59.0681 19.5445 59.0681 19.5445ZM50.0808 30.5848H49.7195L51.0565 26.0821H51.5001L51.6409 25.6183L51.6545 26.1341C51.6379 26.4529 51.8843 26.7356 52.5314 26.6888H53.2798L53.5374 25.8218H53.2558C53.0939 25.8218 53.0188 25.7802 53.0281 25.6909L53.0145 25.1662H51.6286V25.1689C51.1805 25.1784 49.8424 25.2127 49.5715 25.2861C49.2437 25.3721 48.8982 25.6251 48.8982 25.6251L49.0339 25.1607H47.7375L47.4674 26.0821L46.1125 30.6536H45.8496L45.5917 31.5144H48.1738L48.0873 31.8014H49.3596L49.4441 31.5144H49.801L50.0808 30.5848ZM49.0214 26.997C48.8138 27.0555 48.4274 27.2329 48.4274 27.2329L48.771 26.0821H49.801L49.5525 26.9206C49.5525 26.9206 49.2343 26.9396 49.0214 26.997ZM49.0411 28.641C49.0411 28.641 48.7176 28.6824 48.5046 28.7313C48.2949 28.7961 47.9016 29.0001 47.9016 29.0001L48.2564 27.8026H49.2918L49.0411 28.641ZM48.464 30.5954H47.4308L47.7303 29.5847H48.7603L48.464 30.5954ZM50.9522 27.8026H52.4415L52.2275 28.5082H50.7184L50.4919 29.2798H51.8123L50.8125 30.7132C50.7425 30.8185 50.6797 30.8557 50.61 30.8854C50.54 30.9216 50.448 30.964 50.3417 30.964H49.9754L49.7237 31.809H50.6818C51.1799 31.809 51.4741 31.5783 51.6913 31.2755L52.3769 30.3201L52.5241 31.2902C52.5554 31.4719 52.6836 31.5783 52.7705 31.6196C52.8664 31.6686 52.9655 31.7527 53.1055 31.7652C53.2557 31.7717 53.3641 31.7769 53.4363 31.7769H53.9071L54.1898 30.8313H54.0041C53.8975 30.8313 53.7139 30.813 53.6826 30.779C53.6514 30.7377 53.6514 30.674 53.6345 30.5772L53.4852 29.6049H52.8736L53.1418 29.2798H54.648L54.8796 28.5082H53.4852L53.7024 27.8026H55.0926L55.3504 26.9323H51.2058L50.9522 27.8026ZM38.3735 30.7919L38.7211 29.6145H40.1497L40.4108 28.7388H38.9808L39.1991 28.014H40.5965L40.8554 27.1661H37.359L37.1054 28.014H37.8998L37.6879 28.7388H36.8914L36.6274 29.6294H37.4215L36.9582 31.1872C36.8957 31.3934 36.9876 31.472 37.0458 31.5678C37.1054 31.6611 37.1658 31.7228 37.3015 31.7579C37.4415 31.7898 37.5374 31.8088 37.6678 31.8088H39.2784L39.5654 30.8387L38.8515 30.9385C38.7136 30.9385 38.3318 30.9217 38.3735 30.7919ZM38.5373 25.1554L38.1753 25.8217C38.0978 25.9672 38.0281 26.0575 37.9653 26.0991C37.91 26.1342 37.8004 26.1489 37.6417 26.1489H37.4528L37.2003 27.0012H37.8277C38.1293 27.0012 38.361 26.8886 38.4716 26.8323C38.5905 26.7676 38.6218 26.8046 38.7137 26.7142L38.9256 26.5273H40.8846L41.1446 25.6399H39.7106L39.9609 25.1554H38.5373ZM41.4295 30.809C41.3961 30.76 41.4201 30.6738 41.4712 30.4942L42.0066 28.6898H43.9114C44.189 28.6857 44.3894 28.6824 44.5198 28.6729C44.6598 28.6579 44.8121 28.6071 44.978 28.5156C45.1493 28.4199 45.2369 28.319 45.3109 28.2031C45.3935 28.0874 45.526 27.8344 45.6399 27.4443L46.3129 25.1608L44.3362 25.1725C44.3362 25.1725 43.7276 25.2639 43.4596 25.3648C43.1892 25.4774 42.8029 25.7919 42.8029 25.7919L42.9813 25.1659H41.7603L40.0508 30.9385C39.9902 31.1627 39.9495 31.3253 39.9402 31.423C39.937 31.5283 40.0706 31.6325 40.1571 31.7111C40.2595 31.7897 40.4107 31.7769 40.5558 31.7897C40.7084 31.8014 40.9253 31.8088 41.2248 31.8088H42.1632L42.4512 30.8185L41.6112 30.8993C41.5214 30.8993 41.4565 30.8504 41.4295 30.809ZM42.3521 27.471H44.3528L44.2256 27.8769C44.2077 27.8864 44.165 27.8568 43.9614 27.8812H42.2289L42.3521 27.471ZM42.7529 26.1097H44.7704L44.6253 26.5985C44.6253 26.5985 43.6744 26.589 43.5221 26.6176C42.852 26.7356 42.4606 27.1002 42.4606 27.1002L42.7529 26.1097ZM44.2704 29.2361C44.2538 29.2968 44.2277 29.3338 44.1911 29.3615C44.1504 29.3882 44.0847 29.3977 43.9867 29.3977H43.7016L43.7184 28.9034H42.5326L42.4845 31.32C42.4826 31.4944 42.4992 31.5953 42.6245 31.6761C42.7498 31.777 43.1359 31.7898 43.6556 31.7898H44.3987L44.6669 30.8853L44.0201 30.9214L43.805 30.9342C43.7756 30.9214 43.7475 30.9097 43.7163 30.8779C43.689 30.8504 43.6431 30.8673 43.6505 30.6929L43.6556 30.0735L44.334 30.0449C44.7003 30.0449 44.8569 29.9236 44.9905 29.8079C45.1179 29.6972 45.1596 29.5699 45.2077 29.3977L45.3215 28.8493H44.3893L44.2704 29.2361Z" fill="#FEFEFE"/>
<rect x="0.904883" y="1.01035" width="79.2" height="44.2" stroke="#E2CEFC" stroke-width="0.8"/>
</svg>
