<svg width="81" height="46" viewBox="0 0 81 46" fill="none" xmlns="http://www.w3.org/2000/svg">
<path d="M28.9593 13.6105H11.7428L8.10627 33.6071H18.9749C23.2862 33.5764 25.9667 29.8808 26.6663 26.265L28.9593 13.6105Z" fill="white"/>
<path d="M34.2724 13.6105L32.5701 22.3817H32.6225C33.7488 20.5895 35.3727 19.6507 37.0754 19.6507C39.8521 19.6507 40.8997 22.0791 40.8997 24.4516C40.8997 28.5342 38.0967 33.6105 33.0158 33.6105C30.7892 33.6105 29.1132 32.6452 29.1132 30.1626C29.1132 29.5279 29.2177 28.7275 29.3229 28.0928L32.0982 13.6105H34.2724ZM31.4967 28.1476C31.3915 28.5891 31.3132 29.1409 31.339 29.8313C31.339 31.1 32.0203 31.8172 33.3825 31.8172C36.6566 31.8172 38.6469 27.7069 38.6469 24.7546C38.6469 23.0989 37.9656 21.5541 36.2375 21.5541C34.351 21.5541 32.4132 23.5952 31.7847 26.7412L31.4967 28.1476ZM49.8829 33.3068C49.8829 32.5067 50.0147 31.2377 50.1709 29.8581H50.1185C48.7301 32.6172 47.0013 33.6101 45.1941 33.6101C42.9683 33.6101 41.554 31.7351 41.554 29.1958C41.554 24.5617 44.8009 19.6507 50.3282 19.6507C51.5334 19.6507 52.8683 19.8716 53.7331 20.1753L52.4499 27.1274C52.0308 29.4451 51.8466 31.8183 51.8997 33.3072L49.8829 33.3068ZM51.2971 21.6653C50.9833 21.5825 50.5117 21.4716 49.778 21.4716C46.5042 21.4716 43.8323 25.0863 43.8058 28.7823C43.8058 30.272 44.3039 31.7351 45.9803 31.7351C47.7878 31.7351 49.935 29.2518 50.5642 25.6934L51.2971 21.6653ZM62.3988 30.9619C61.7438 31.2936 60.749 31.7075 59.4651 31.7075C57.3965 31.7075 56.3224 30.2996 56.3224 28.148C56.3224 25.0035 58.3917 21.5828 61.691 21.5828C62.6351 21.5828 63.3408 21.8302 63.8389 22.0795L64.4678 20.2585C64.0752 20.038 63.0007 19.679 61.8221 19.679C57.2655 19.679 54.07 23.8725 54.07 28.4241C54.07 31.2668 55.6677 33.6109 58.9419 33.6109C60.6441 33.6109 61.9535 33.1142 62.6086 32.7829L62.3988 30.9619ZM63.9732 32.6724C64.55 33.1411 65.7541 33.5825 67.1163 33.6098C69.7879 33.6098 71.9616 32.0101 71.9616 29.1962C71.9616 27.7073 70.9931 26.5487 69.5788 25.6938C68.4526 25.0307 67.85 24.424 67.85 23.4586C67.85 22.2996 68.7927 21.444 70.1032 21.444C71.0452 21.444 71.8571 21.7761 72.3028 22.0515L72.9047 20.3138C72.4339 19.9824 71.4122 19.6514 70.2597 19.6514C67.5882 19.6514 65.6766 21.4444 65.6766 23.7896C65.6766 25.1419 66.4878 26.3274 67.9549 27.183C69.2646 27.9551 69.7096 28.5898 69.7096 29.638C69.7096 30.8242 68.7669 31.8179 67.3002 31.8179C66.2785 31.8179 65.1788 31.3757 64.5762 30.9903L63.9732 32.6724Z" fill="black"/>
<path d="M11.3668 27.2131C10.655 27.2131 9.96406 27.1458 9.3029 27.0217L11.6581 14.0703C16.2904 14.188 19.9984 17.0828 19.9984 20.6381C19.9984 24.1934 16.1339 27.2131 11.3668 27.2131ZM15.7169 27.8906C19.937 26.9514 23.0047 24.1204 23.0047 20.769C23.0047 17.4176 19.853 14.5102 15.5438 13.6104H14.4952C18.8298 14.3374 22.0734 17.2727 22.0734 20.7864C22.0734 24.3001 18.5217 27.5101 13.8857 28.0521C14.0028 28.0472 14.1202 28.0446 14.2384 28.0385C14.7408 28.0109 15.2332 27.9594 15.7169 27.8906ZM17.9913 13.6104C22.5184 14.6328 25.8105 17.4826 25.9869 21.013C26.2214 25.6872 20.9031 29.7834 14.1084 30.1602C12.233 30.265 10.4417 30.0743 8.82598 29.6465L8.10486 33.6069L18.9749 33.6071C23.2855 33.5764 25.966 29.8795 26.6663 26.2626L28.9579 13.6104H17.9913ZM25.0355 20.1369C24.8707 16.8502 21.3925 14.2606 16.7623 13.6104H16.2481C20.7784 14.5121 24.0925 17.3745 24.0925 20.7686C24.0925 23.342 22.1894 25.6116 19.2927 26.9518C22.8337 25.5431 25.177 22.9603 25.0355 20.1369Z" fill="#E40138"/>
<rect x="0.904761" y="1.01035" width="79.2" height="44.2" stroke="#E2CEFC" stroke-width="0.8"/>
</svg>
