<svg width="14" height="14" viewBox="0 0 14 14" fill="none" xmlns="http://www.w3.org/2000/svg">
<path d="M8.17493 7.00015L13.4249 1.75849C13.5818 1.60157 13.67 1.38874 13.67 1.16682C13.67 0.944903 13.5818 0.732074 13.4249 0.575155C13.268 0.418235 13.0552 0.330078 12.8333 0.330078C12.6113 0.330078 12.3985 0.418235 12.2416 0.575155L6.99993 5.82515L1.75826 0.575155C1.60134 0.418235 1.38851 0.330078 1.1666 0.330078C0.944677 0.330078 0.731849 0.418235 0.574929 0.575155C0.418009 0.732074 0.329853 0.944903 0.329853 1.16682C0.329853 1.38874 0.418009 1.60157 0.574929 1.75849L5.82493 7.00015L0.574929 12.2418C0.496822 12.3193 0.434827 12.4115 0.392519 12.513C0.350212 12.6146 0.32843 12.7235 0.32843 12.8335C0.32843 12.9435 0.350212 13.0524 0.392519 13.154C0.434827 13.2555 0.496822 13.3477 0.574929 13.4252C0.652398 13.5033 0.744565 13.5653 0.846115 13.6076C0.947664 13.6499 1.05659 13.6717 1.1666 13.6717C1.27661 13.6717 1.38553 13.6499 1.48708 13.6076C1.58863 13.5653 1.68079 13.5033 1.75826 13.4252L6.99993 8.17515L12.2416 13.4252C12.3191 13.5033 12.4112 13.5653 12.5128 13.6076C12.6143 13.6499 12.7233 13.6717 12.8333 13.6717C12.9433 13.6717 13.0522 13.6499 13.1537 13.6076C13.2553 13.5653 13.3475 13.5033 13.4249 13.4252C13.503 13.3477 13.565 13.2555 13.6073 13.154C13.6496 13.0524 13.6714 12.9435 13.6714 12.8335C13.6714 12.7235 13.6496 12.6146 13.6073 12.513C13.565 12.4115 13.503 12.3193 13.4249 12.2418L8.17493 7.00015Z" fill="#6A6874"/>
</svg>
