<svg width="1117" height="236" viewBox="0 0 1117 236" fill="none" xmlns="http://www.w3.org/2000/svg">
<path d="M0.425227 -22.1582C5.89737 -35.1797 8.61696 -41.6948 12.4987 -44.7423C16.3475 -47.7968 20.5567 -46.7397 28.8772 -44.65L394.653 47.2136C413.969 52.0649 423.595 54.4823 425.893 67.0519C428.191 79.6226 421.684 94.4518 408.669 124.111L-258.492 1635.38C-263.996 1647.92 -266.714 1654.18 -270.51 1657.1C-274.337 1660.01 -278.383 1658.99 -286.541 1656.94L-746.354 1541.46C-754.478 1539.42 -758.525 1538.4 -761.26 1533.88C-763.995 1529.36 -764.807 1522.25 -766.497 1508.03L-907.137 328.82C-908.374 318.529 -908.993 313.383 -908.382 308.15C-907.738 302.919 -905.948 298.19 -902.369 288.725L-627.098 -440.404C-610.719 -483.709 -602.53 -505.361 -593.653 -503.622C-584.71 -501.866 -582.247 -478.121 -577.354 -430.641L-441.21 888.242C-436.625 932.666 -434.316 954.878 -425.732 957.022C-417.15 959.171 -408.886 939.601 -392.421 900.439L0.425227 -22.1582Z" fill="#B08DE7"/>
</svg>
