<svg width="256" height="467" viewBox="0 0 256 467" fill="none" xmlns="http://www.w3.org/2000/svg">
<path d="M-0.0794725 93.6274C5.39267 80.606 8.11226 74.0908 11.994 71.0433C15.8428 67.9888 20.052 69.046 28.3725 71.1356L394.148 162.999C413.465 167.851 423.09 170.268 425.388 182.837C427.686 195.408 421.179 210.237 408.164 239.897L-258.997 1751.17C-264.501 1763.7 -267.219 1769.97 -271.015 1772.89C-274.842 1775.79 -278.888 1774.78 -287.045 1772.73L-746.858 1657.25C-754.983 1655.21 -759.029 1654.19 -761.765 1649.67C-764.499 1645.14 -765.312 1638.04 -767.002 1623.81L-907.642 444.606C-908.879 434.314 -909.497 429.169 -908.887 423.936C-908.243 418.705 -906.453 413.976 -902.874 404.511L-627.603 -324.618C-611.224 -367.923 -603.035 -389.575 -594.158 -387.836C-585.215 -386.08 -582.752 -362.336 -577.859 -314.856L-441.715 1004.03C-437.13 1048.45 -434.82 1070.66 -426.237 1072.81C-417.655 1074.96 -409.39 1055.39 -392.926 1016.22L-0.0794725 93.6274Z" fill="#B08DE7"/>
</svg>
