<svg width="114" height="44" viewBox="0 0 114 44" fill="none" xmlns="http://www.w3.org/2000/svg">
<path d="M77.3252 24.5604L78.4502 24.8979C78.3752 25.2166 78.2627 25.4791 78.0939 25.6854C77.9252 25.8916 77.7377 26.0604 77.4939 26.1541C77.2502 26.2666 76.9502 26.3229 76.5752 26.3229C76.1252 26.3229 75.7689 26.2666 75.4689 26.1354C75.1877 26.0041 74.9439 25.7791 74.7377 25.4416C74.5314 25.1229 74.4189 24.6916 74.4189 24.1854C74.4189 23.5104 74.6064 22.9854 74.9627 22.6104C75.3189 22.2354 75.8439 22.0666 76.5002 22.0666C77.0252 22.0666 77.4189 22.1791 77.7189 22.3854C78.0189 22.5916 78.2439 22.9104 78.3752 23.3604L77.2502 23.6041C77.2127 23.4729 77.1752 23.3791 77.1189 23.3229C77.0439 23.2291 76.9689 23.1541 76.8564 23.0979C76.7439 23.0416 76.6314 23.0229 76.5189 23.0229C76.2377 23.0229 76.0127 23.1354 75.8627 23.3791C75.7502 23.5479 75.6939 23.8291 75.6939 24.1854C75.6939 24.6354 75.7689 24.9541 75.9002 25.1229C76.0314 25.2916 76.2377 25.3854 76.4814 25.3854C76.7252 25.3854 76.9127 25.3104 77.0252 25.1791C77.1752 25.0104 77.2689 24.8229 77.3252 24.5604Z" fill="#F7F1FF"/>
<path d="M78.9002 24.1854C78.9002 23.5104 79.0877 22.9854 79.4627 22.6104C79.8377 22.2354 80.3627 22.0479 81.0377 22.0479C81.7314 22.0479 82.2564 22.2354 82.6314 22.5916C83.0064 22.9666 83.1939 23.4729 83.1939 24.1479C83.1939 24.6354 83.1189 25.0291 82.9502 25.3291C82.7814 25.6291 82.5564 25.8729 82.2377 26.0416C81.9377 26.2104 81.5439 26.3041 81.0939 26.3041C80.6252 26.3041 80.2502 26.2291 79.9314 26.0791C79.6314 25.9291 79.3877 25.7041 79.1814 25.3666C78.9752 25.0291 78.9002 24.6729 78.9002 24.1854ZM80.1752 24.1854C80.1752 24.5979 80.2502 24.8979 80.4002 25.0854C80.5502 25.2729 80.7564 25.3666 81.0377 25.3666C81.3189 25.3666 81.5252 25.2729 81.6752 25.1041C81.8252 24.9166 81.9002 24.5979 81.9002 24.1479C81.9002 23.7541 81.8252 23.4729 81.6564 23.3041C81.5064 23.1166 81.2814 23.0416 81.0189 23.0416C80.7564 23.0416 80.5502 23.1354 80.4002 23.3229C80.2502 23.4729 80.1752 23.7729 80.1752 24.1854Z" fill="#F7F1FF"/>
<path d="M85.519 22.1229L86.1565 24.6354L86.794 22.1229H88.4627V26.2479H87.4127V23.0979L86.6065 26.2479H85.669L84.8627 23.0979V26.2479H83.8127V22.1229H85.519Z" fill="#F7F1FF"/>
<path d="M89.2876 22.1229H91.4063C91.8751 22.1229 92.2126 22.2354 92.4376 22.4604C92.6626 22.6854 92.7751 22.9854 92.7751 23.3979C92.7751 23.8104 92.6438 24.1479 92.4001 24.3729C92.1563 24.6166 91.7626 24.7291 91.2563 24.7291H90.5626V26.2666H89.2876V22.1229ZM90.5626 23.8854H90.8813C91.1251 23.8854 91.2938 23.8479 91.4063 23.7541C91.5001 23.6604 91.5563 23.5666 91.5563 23.4354C91.5563 23.3041 91.5188 23.1916 91.4251 23.0979C91.3313 23.0041 91.1813 22.9666 90.9376 22.9666H90.5813V23.8854H90.5626Z" fill="#F7F1FF"/>
<path d="M93.4502 22.1229H94.7252V25.2354H96.7127V26.2479H93.4502V22.1229Z" fill="#F7F1FF"/>
<path d="M97.3501 22.1229H98.6251V26.2479H97.3501V22.1229Z" fill="#F7F1FF"/>
<path d="M102.075 25.5541H100.631L100.425 26.2291H99.1313L100.688 22.1041H102.075L103.631 26.2291H102.3L102.075 25.5541ZM101.813 24.6729L101.363 23.1916L100.913 24.6729H101.813Z" fill="#F7F1FF"/>
<path d="M104.025 22.1229H105.206L106.763 24.4104V22.1229H107.963V26.2479H106.763L105.225 23.9791V26.2479H104.025V22.1229Z" fill="#F7F1FF"/>
<path d="M108.525 22.1229H112.406V23.1354H111.113V26.2479H109.838V23.1354H108.544V22.1229H108.525Z" fill="#F7F1FF"/>
<path d="M65.6817 27.2416L61.9879 28.4041C62.7192 27.1104 63.6004 25.6854 64.4817 24.5791L65.6817 27.2416Z" fill="#F7F1FF"/>
<path d="M17.0997 17.1259V21.6071H18.8622C18.8622 21.6071 20.831 21.5134 21.131 19.6946C21.1685 19.6571 21.1685 18.8884 21.131 18.7759C20.9435 17.2196 18.6747 17.1259 18.6747 17.1259H17.0997Z" fill="#F7F1FF"/>
<path fill-rule="evenodd" clip-rule="evenodd" d="M53.4942 0.110352L60.7317 16.2354C59.9089 17.3584 57.4441 20.763 55.1246 24.0989V13.3946H48.5621V27.7248C47.657 27.1118 46.7046 26.6806 45.7872 26.5261V25.8071C45.7872 25.7509 45.7497 25.7321 45.7122 25.7696C45.7122 25.7696 44.9997 26.3321 41.8872 26.6509C41.006 26.7446 40.5747 26.7071 40.256 26.6509C35.831 25.9009 35.6247 22.6759 35.6247 22.6759C35.6247 22.6449 35.619 22.6026 35.6139 22.5646C35.6098 22.5335 35.606 22.5052 35.606 22.4884V21.2509C35.606 21.1946 35.606 21.1009 35.6247 21.0634C35.6247 21.0634 35.9247 17.5946 40.256 17.2196H41.8872C43.781 17.4634 45.3185 18.4009 45.3185 18.4009C45.3747 18.4196 45.4122 18.4009 45.4122 18.3446V13.9946C45.4122 13.9384 45.3747 13.8821 45.3185 13.8446C45.3185 13.8446 44.456 13.2821 41.831 13.1321C41.6997 13.0571 39.3935 13.0384 38.7747 13.1321C29.2122 13.9009 28.856 20.8196 28.856 21.1196V22.8071C28.856 23.0134 28.856 30.0822 38.7747 30.7009C39.5706 30.7621 40.9786 30.7234 41.5711 30.7071C41.7044 30.7034 41.7965 30.7009 41.831 30.7009L41.8627 30.7009C42.0716 31.8611 42.6452 33.1056 43.4442 34.2541L15.188 43.1604L0.506714 3.11035L53.4942 0.110352ZM55.8558 7.9759C55.8558 10.0759 54.0558 11.7634 51.8433 11.7634C49.6308 11.7634 47.8308 10.0571 47.8308 7.9759C47.8308 5.87589 49.6308 4.18839 51.8433 4.18839C54.0558 4.18839 55.8558 5.87589 55.8558 7.9759ZM10.7247 30.5884C10.6685 30.5884 10.631 30.5509 10.631 30.4947V13.4884C10.631 13.4321 10.6685 13.3946 10.7247 13.3946H19.0122C21.1122 13.3009 27.5247 13.8821 27.5247 19.3009C27.5247 26.1446 17.306 25.4134 17.306 25.4134C17.2497 25.4134 17.2122 25.4509 17.2122 25.5071V30.4947C17.2122 30.5509 17.1747 30.5884 17.1185 30.5884H10.7247Z" fill="#F7F1FF"/>
<path d="M52.0313 38.8291C52.5563 38.8291 52.9688 38.8291 53.6438 38.5291C55.9688 37.3104 63.8251 18.1291 72.1126 12.2229C72.1688 12.1854 72.2251 12.1291 72.2626 12.0729C72.3188 11.9979 72.3188 11.9229 72.3188 11.9229C72.3188 11.9229 72.3188 11.5291 71.1001 11.5291C63.7313 11.3229 56.0626 26.7916 52.0313 32.9041C51.9751 32.9791 51.7126 32.9041 51.7126 32.9041C51.7126 32.9041 49.0126 29.7166 46.6688 28.4979C46.6126 28.4791 46.3501 28.3854 46.0688 28.4041C45.8813 28.4041 44.7938 28.6291 44.2876 29.1541C43.6876 29.7916 43.7063 30.1479 43.7063 30.9166C43.7063 30.9729 43.7438 31.2354 43.8188 31.3666C44.4001 32.3791 47.0063 35.9791 49.1626 37.9666C49.4813 38.2104 49.9876 38.8291 52.0313 38.8291Z" fill="#F7F1FF"/>
<path d="M74.2874 6.42914H80.4186C81.6374 6.42914 82.6124 6.59789 83.3436 6.91664C84.0936 7.25414 84.7124 7.72289 85.1811 8.32289C85.6686 8.94164 86.0249 9.65414 86.2311 10.4604C86.4561 11.2666 86.5686 12.1291 86.5686 13.0479C86.5686 14.4729 86.3999 15.5791 86.0811 16.3666C85.7624 17.1541 85.3124 17.8104 84.7311 18.3541C84.1499 18.8791 83.5311 19.2354 82.8749 19.4229C81.9749 19.6666 81.1499 19.7792 80.4186 19.7792H74.2874V6.42914ZM78.4124 9.44789V16.7416H79.4249C80.2874 16.7416 80.9061 16.6479 81.2624 16.4604C81.6186 16.2729 81.9186 15.9354 82.1249 15.4666C82.3311 14.9979 82.4436 14.2104 82.4436 13.1416C82.4436 11.7166 82.2186 10.7604 81.7499 10.2354C81.2811 9.71039 80.5311 9.44789 79.4436 9.44789H78.4124Z" fill="#F7F1FF"/>
<path d="M87.7124 15.3729L91.6499 15.1291C91.7436 15.7666 91.9124 16.2541 92.1749 16.5916C92.6061 17.1354 93.2061 17.3979 93.9936 17.3979C94.5749 17.3979 95.0436 17.2666 95.3624 16.9854C95.6811 16.7041 95.8499 16.3854 95.8499 16.0291C95.8499 15.6916 95.6999 15.3729 95.3999 15.0916C95.0999 14.8104 94.3874 14.5666 93.2811 14.3229C91.4624 13.9104 90.1874 13.3666 89.3999 12.6916C88.6124 12.0166 88.2374 11.1541 88.2374 10.1041C88.2374 9.41039 88.4436 8.7729 88.8374 8.15415C89.2311 7.5354 89.8311 7.06664 90.6374 6.71039C91.4436 6.35414 92.5311 6.18539 93.9186 6.18539C95.6249 6.18539 96.9374 6.50414 97.8186 7.14164C98.7186 7.77914 99.2436 8.79164 99.4124 10.1791L95.5124 10.4041C95.3999 9.80415 95.1936 9.3729 94.8561 9.09165C94.5186 8.8104 94.0686 8.67914 93.4874 8.67914C92.9999 8.67914 92.6436 8.77289 92.3999 8.97914C92.1561 9.18539 92.0436 9.42914 92.0436 9.72914C92.0436 9.93539 92.1374 10.1416 92.3436 10.3104C92.5311 10.4791 92.9999 10.6479 93.7311 10.7979C95.5311 11.1916 96.8249 11.5854 97.6124 11.9791C98.3999 12.3729 98.9624 12.8791 99.3186 13.4604C99.6749 14.0416 99.8436 14.7166 99.8436 15.4479C99.8436 16.3104 99.5999 17.0979 99.1311 17.8104C98.6624 18.5416 97.9874 19.0854 97.1436 19.4604C96.2999 19.8354 95.2124 20.0229 93.9186 20.0229C91.6499 20.0229 90.0749 19.5916 89.1936 18.7104C88.3311 17.8291 87.8436 16.7229 87.7124 15.3729Z" fill="#F7F1FF"/>
<path d="M100.894 15.3729L104.831 15.1291C104.925 15.7666 105.094 16.2542 105.356 16.5917C105.787 17.1354 106.387 17.3979 107.175 17.3979C107.756 17.3979 108.225 17.2666 108.544 16.9854C108.862 16.7041 109.031 16.3854 109.031 16.0292C109.031 15.6917 108.881 15.3729 108.581 15.0917C108.281 14.8104 107.569 14.5667 106.462 14.3229C104.644 13.9104 103.369 13.3666 102.581 12.6916C101.812 12.0166 101.419 11.1542 101.419 10.1041C101.419 9.4104 101.625 8.7729 102.019 8.15415C102.412 7.5354 103.012 7.06665 103.819 6.7104C104.625 6.35415 105.712 6.1854 107.1 6.1854C108.806 6.1854 110.119 6.50415 111 7.14165C111.9 7.77915 112.425 8.79165 112.594 10.1791L108.694 10.4042C108.581 9.80415 108.375 9.3729 108.037 9.09165C107.7 8.8104 107.25 8.67915 106.669 8.67915C106.181 8.67915 105.825 8.7729 105.581 8.97915C105.337 9.1854 105.225 9.42915 105.225 9.72915C105.225 9.9354 105.319 10.1417 105.525 10.3104C105.712 10.4792 106.181 10.6479 106.912 10.7979C108.712 11.1916 110.006 11.5854 110.794 11.9791C111.581 12.3729 112.144 12.8791 112.5 13.4604C112.856 14.0416 113.025 14.7167 113.025 15.4479C113.025 16.3104 112.781 17.0979 112.312 17.8104C111.844 18.5417 111.169 19.0854 110.325 19.4604C109.481 19.8354 108.394 20.0229 107.1 20.0229C104.831 20.0229 103.256 19.5917 102.375 18.7104C101.494 17.8292 101.006 16.7229 100.894 15.3729Z" fill="#F7F1FF"/>
</svg>
