<svg width="33" height="33" viewBox="0 0 33 33" fill="none" xmlns="http://www.w3.org/2000/svg">
<path d="M26.0045 5.36035H6.00452C5.54039 5.36035 5.09527 5.54473 4.76708 5.87292C4.43889 6.2011 4.25452 6.64622 4.25452 7.11035V14.4566C4.25452 25.4866 13.5895 29.1466 15.4608 29.7679C15.8133 29.8879 16.1957 29.8879 16.5483 29.7679C18.4233 29.1429 27.7545 25.4866 27.7545 14.4566V7.11035C27.7545 6.64622 27.5702 6.2011 27.242 5.87292C26.9138 5.54473 26.4687 5.36035 26.0045 5.36035ZM26.2545 14.4591C26.2545 24.4591 17.7745 27.7829 16.0745 28.3466C16.0295 28.3641 15.9796 28.3641 15.9345 28.3466C14.2345 27.7829 5.75452 24.4591 5.75452 14.4591V7.11035C5.75452 7.04405 5.78086 6.98046 5.82774 6.93358C5.87463 6.88669 5.93821 6.86035 6.00452 6.86035H26.0045C26.0708 6.86035 26.1344 6.88669 26.1813 6.93358C26.2282 6.98046 26.2545 7.04405 26.2545 7.11035V14.4591ZM21.5345 12.5841C21.675 12.7247 21.7539 12.9154 21.7539 13.1141C21.7539 13.3129 21.675 13.5035 21.5345 13.6441L14.5345 20.6441C14.3939 20.7846 14.2033 20.8635 14.0045 20.8635C13.8058 20.8635 13.6152 20.7846 13.4745 20.6441L10.4745 17.6441C10.342 17.5019 10.2699 17.3139 10.2733 17.1196C10.2768 16.9253 10.3555 16.7399 10.4929 16.6025C10.6303 16.4651 10.8157 16.3864 11.01 16.3829C11.2043 16.3795 11.3923 16.4516 11.5345 16.5841L14.0045 19.0491L20.4745 12.5804C20.6152 12.4399 20.8058 12.361 21.0045 12.361C21.2033 12.361 21.3939 12.4399 21.5345 12.5804V12.5841Z" fill="#704FAD"/>
</svg>
