<svg width="33" height="33" viewBox="0 0 33 33" fill="none" xmlns="http://www.w3.org/2000/svg">
<path d="M12.7341 23.2915C12.6866 23.4853 11.5166 27.8603 5.00534 27.8603C4.80643 27.8603 4.61567 27.7812 4.47501 27.6406C4.33436 27.4999 4.25534 27.3092 4.25534 27.1103C4.25534 20.599 8.63785 19.429 8.8241 19.3828C9.0157 19.3383 9.21709 19.3709 9.38487 19.4736C9.55266 19.5762 9.67341 19.7407 9.72111 19.9315C9.76881 20.1223 9.73965 20.3242 9.63991 20.4937C9.54016 20.6632 9.37782 20.7868 9.18785 20.8378C9.06285 20.8715 6.08284 21.7228 5.78034 26.3378C10.4478 26.029 11.2703 22.9628 11.2803 22.9303C11.3286 22.7371 11.4516 22.5711 11.6222 22.4687C11.7929 22.3662 11.9972 22.3358 12.1904 22.384C12.3835 22.4322 12.5495 22.5552 12.6519 22.7259C12.7544 22.8965 12.7848 23.1009 12.7366 23.294L12.7341 23.2915ZM24.4254 14.7515L23.7554 15.4203V22.8165C23.7558 23.0462 23.7108 23.2737 23.6228 23.4859C23.5348 23.6981 23.4057 23.8908 23.2429 24.0528L18.9491 28.3465C18.7195 28.5759 18.4306 28.737 18.1148 28.8116C17.7989 28.8863 17.4685 28.8717 17.1604 28.7693C16.8524 28.667 16.5789 28.481 16.3705 28.2322C16.1621 27.9834 16.027 27.6815 15.9804 27.3603L15.2979 22.4665L9.65285 16.8178L4.76159 16.1353C4.43962 16.0897 4.13671 15.9553 3.88683 15.7473C3.63696 15.5392 3.45 15.2656 3.34694 14.9572C3.24387 14.6487 3.22878 14.3177 3.30335 14.0012C3.37791 13.6847 3.53919 13.3952 3.76909 13.1652L8.06285 8.87149C8.2249 8.70882 8.4176 8.57987 8.6298 8.49212C8.84199 8.40437 9.06947 8.35954 9.2991 8.36024H16.6954L17.3641 7.69149C20.6279 4.42774 24.5604 4.28774 26.0991 4.37899C26.5249 4.40528 26.9265 4.58621 27.2282 4.88776C27.53 5.18931 27.7113 5.59071 27.7379 6.01649C27.8291 7.55524 27.6879 11.4852 24.4254 14.7515ZM4.97159 14.6503L9.7391 15.3153L15.1954 9.86025H9.2991C9.2329 9.86053 9.16952 9.88705 9.12285 9.934L4.83034 14.2253C4.79842 14.2575 4.77586 14.2977 4.76507 14.3418C4.75428 14.3858 4.75567 14.4319 4.76909 14.4753C4.7818 14.5212 4.80782 14.5623 4.84385 14.5934C4.87989 14.6245 4.92434 14.6443 4.97159 14.6503ZM22.2554 16.9203L16.7991 22.3765L17.4641 27.1465C17.471 27.1924 17.4905 27.2355 17.5205 27.2709C17.5504 27.3063 17.5896 27.3327 17.6338 27.3471C17.6779 27.3615 17.7251 27.3634 17.7702 27.3524C17.8153 27.3415 17.8565 27.3183 17.8891 27.2853L22.1816 22.9928C22.2286 22.9461 22.2551 22.8827 22.2554 22.8165V16.9203ZM26.2404 6.11024C26.2355 6.05119 26.2099 5.99578 26.168 5.95388C26.1261 5.91199 26.0707 5.88633 26.0116 5.88149C24.6152 5.79187 23.2158 6.00205 21.9073 6.49793C20.5989 6.9938 19.4116 7.7639 18.4254 8.75649L11.0666 16.1103L16.0054 21.049L22.4754 14.5803L23.3641 13.6915C24.3563 12.7059 25.1262 11.5195 25.6223 10.212C26.1184 8.90444 26.3291 7.50592 26.2404 6.11024Z" fill="#704FAD"/>
</svg>
