<svg width="33" height="33" viewBox="0 0 33 33" fill="none" xmlns="http://www.w3.org/2000/svg">
<path d="M13.0043 5.36035H7.00427C6.54014 5.36035 6.09503 5.54473 5.76684 5.87292C5.43865 6.2011 5.25427 6.64622 5.25427 7.11035V13.1104C5.25427 13.3402 5.29954 13.5677 5.38748 13.7801C5.47543 13.9924 5.60433 14.1853 5.76684 14.3478C5.92934 14.5103 6.12226 14.6392 6.33458 14.7271C6.5469 14.8151 6.77446 14.8604 7.00427 14.8604H13.0043C13.2341 14.8604 13.4617 14.8151 13.674 14.7271C13.8863 14.6392 14.0792 14.5103 14.2417 14.3478C14.4042 14.1853 14.5331 13.9924 14.6211 13.7801C14.709 13.5677 14.7543 13.3402 14.7543 13.1104V7.11035C14.7543 6.88054 14.709 6.65298 14.6211 6.44066C14.5331 6.22834 14.4042 6.03542 14.2417 5.87292C14.0792 5.71041 13.8863 5.58151 13.674 5.49356C13.4617 5.40562 13.2341 5.36035 13.0043 5.36035ZM13.2543 13.1104C13.2543 13.1767 13.2279 13.2403 13.1811 13.2871C13.1342 13.334 13.0706 13.3604 13.0043 13.3604H7.00427C6.93797 13.3604 6.87438 13.334 6.8275 13.2871C6.78061 13.2403 6.75427 13.1767 6.75427 13.1104V7.11035C6.75427 7.04405 6.78061 6.98046 6.8275 6.93358C6.87438 6.88669 6.93797 6.86035 7.00427 6.86035H13.0043C13.0706 6.86035 13.1342 6.88669 13.1811 6.93358C13.2279 6.98046 13.2543 7.04405 13.2543 7.11035V13.1104ZM13.0043 17.3604H7.00427C6.54014 17.3604 6.09503 17.5447 5.76684 17.8729C5.43865 18.2011 5.25427 18.6462 5.25427 19.1104V25.1104C5.25427 25.5745 5.43865 26.0196 5.76684 26.3478C6.09503 26.676 6.54014 26.8604 7.00427 26.8604H13.0043C13.2341 26.8604 13.4617 26.8151 13.674 26.7272C13.8863 26.6392 14.0792 26.5103 14.2417 26.3478C14.4042 26.1853 14.5331 25.9924 14.6211 25.7801C14.709 25.5677 14.7543 25.3402 14.7543 25.1104V19.1104C14.7543 18.8805 14.709 18.653 14.6211 18.4407C14.5331 18.2283 14.4042 18.0354 14.2417 17.8729C14.0792 17.7104 13.8863 17.5815 13.674 17.4936C13.4617 17.4056 13.2341 17.3604 13.0043 17.3604ZM13.2543 25.1104C13.2543 25.1767 13.2279 25.2403 13.1811 25.2871C13.1342 25.334 13.0706 25.3604 13.0043 25.3604H7.00427C6.93797 25.3604 6.87438 25.334 6.8275 25.2871C6.78061 25.2403 6.75427 25.1767 6.75427 25.1104V19.1104C6.75427 19.0441 6.78061 18.9805 6.8275 18.9336C6.87438 18.8867 6.93797 18.8604 7.00427 18.8604H13.0043C13.0706 18.8604 13.1342 18.8867 13.1811 18.9336C13.2279 18.9805 13.2543 19.0441 13.2543 19.1104V25.1104ZM25.0043 5.36035H19.0043C18.5402 5.36035 18.095 5.54473 17.7668 5.87292C17.4387 6.2011 17.2543 6.64622 17.2543 7.11035V13.1104C17.2543 13.3402 17.2995 13.5677 17.3875 13.7801C17.4754 13.9924 17.6043 14.1853 17.7668 14.3478C17.9293 14.5103 18.1223 14.6392 18.3346 14.7271C18.5469 14.8151 18.7745 14.8604 19.0043 14.8604H25.0043C25.2341 14.8604 25.4617 14.8151 25.674 14.7271C25.8863 14.6392 26.0792 14.5103 26.2417 14.3478C26.4042 14.1853 26.5331 13.9924 26.6211 13.7801C26.709 13.5677 26.7543 13.3402 26.7543 13.1104V7.11035C26.7543 6.64622 26.5699 6.2011 26.2417 5.87292C25.9135 5.54473 25.4684 5.36035 25.0043 5.36035ZM25.2543 13.1104C25.2543 13.1767 25.228 13.2403 25.1811 13.2871C25.1342 13.334 25.0706 13.3604 25.0043 13.3604H19.0043C18.938 13.3604 18.8744 13.334 18.8275 13.2871C18.7806 13.2403 18.7543 13.1767 18.7543 13.1104V7.11035C18.7543 7.04405 18.7806 6.98046 18.8275 6.93358C18.8744 6.88669 18.938 6.86035 19.0043 6.86035H25.0043C25.0706 6.86035 25.1342 6.88669 25.1811 6.93358C25.228 6.98046 25.2543 7.04405 25.2543 7.11035V13.1104ZM17.2543 22.1104V18.1104C17.2543 17.9114 17.3333 17.7207 17.474 17.58C17.6146 17.4394 17.8054 17.3604 18.0043 17.3604C18.2032 17.3604 18.394 17.4394 18.5346 17.58C18.6753 17.7207 18.7543 17.9114 18.7543 18.1104V22.1104C18.7543 22.3093 18.6753 22.5 18.5346 22.6407C18.394 22.7813 18.2032 22.8604 18.0043 22.8604C17.8054 22.8604 17.6146 22.7813 17.474 22.6407C17.3333 22.5 17.2543 22.3093 17.2543 22.1104ZM26.7543 20.1104C26.7543 20.3093 26.6753 20.5 26.5346 20.6407C26.394 20.7813 26.2032 20.8604 26.0043 20.8604H22.7543V26.1104C22.7543 26.3093 22.6753 26.5 22.5346 26.6407C22.394 26.7814 22.2032 26.8604 22.0043 26.8604H18.0043C17.8054 26.8604 17.6146 26.7814 17.474 26.6407C17.3333 26.5 17.2543 26.3093 17.2543 26.1104C17.2543 25.9115 17.3333 25.7207 17.474 25.58C17.6146 25.4394 17.8054 25.3604 18.0043 25.3604H21.2543V18.1104C21.2543 17.9114 21.3333 17.7207 21.474 17.58C21.6146 17.4394 21.8054 17.3604 22.0043 17.3604C22.2032 17.3604 22.394 17.4394 22.5346 17.58C22.6753 17.7207 22.7543 17.9114 22.7543 18.1104V19.3604H26.0043C26.2032 19.3604 26.394 19.4394 26.5346 19.58C26.6753 19.7207 26.7543 19.9115 26.7543 20.1104ZM26.7543 24.1104V26.1104C26.7543 26.3093 26.6753 26.5 26.5346 26.6407C26.394 26.7814 26.2032 26.8604 26.0043 26.8604C25.8054 26.8604 25.6146 26.7814 25.474 26.6407C25.3333 26.5 25.2543 26.3093 25.2543 26.1104V24.1104C25.2543 23.9115 25.3333 23.7207 25.474 23.58C25.6146 23.4394 25.8054 23.3604 26.0043 23.3604C26.2032 23.3604 26.394 23.4394 26.5346 23.58C26.6753 23.7207 26.7543 23.9115 26.7543 24.1104Z" fill="#704FAD"/>
</svg>
