<svg width="33" height="33" viewBox="0 0 33 33" fill="none" xmlns="http://www.w3.org/2000/svg">
<path d="M16.0043 3.36035C13.4826 3.36035 11.0175 4.10813 8.92076 5.50912C6.82403 6.9101 5.18983 8.90138 4.22481 11.2311C3.2598 13.5609 3.0073 16.1245 3.49927 18.5978C3.99123 21.071 5.20555 23.3429 6.98867 25.126C8.77179 26.9091 11.0436 28.1234 13.5169 28.6154C15.9901 29.1073 18.5537 28.8549 20.8835 27.8898C23.2133 26.9248 25.2045 25.2906 26.6055 23.1939C28.0065 21.0972 28.7543 18.6321 28.7543 16.1104C28.7503 12.7301 27.4058 9.48936 25.0155 7.09913C22.6253 4.7089 19.3846 3.36432 16.0043 3.36035ZM27.2543 16.1104C27.2556 17.6528 26.9381 19.1789 26.3218 20.5929L20.4855 17.0041C20.2781 16.8737 20.0456 16.7885 19.803 16.7541L16.9505 16.3704C16.5824 16.3227 16.2086 16.3928 15.8828 16.5707C15.557 16.7485 15.2958 17.0249 15.1368 17.3604H13.8968C13.8498 17.3603 13.8038 17.3471 13.764 17.3221C13.7242 17.2971 13.6922 17.2614 13.6718 17.2191L13.1968 16.2366C13.0814 15.9967 12.9125 15.7865 12.7032 15.622C12.4939 15.4576 12.2497 15.3433 11.9893 15.2879L10.6505 15.0004L11.8043 12.9854C11.8263 12.9472 11.858 12.9156 11.8962 12.8936C11.9344 12.8717 11.9777 12.8602 12.0218 12.8604H14.1105C14.4062 12.8605 14.6971 12.7852 14.9555 12.6416L16.4868 11.7979C16.6042 11.7317 16.7141 11.6529 16.8143 11.5629L20.178 8.52161C20.4731 8.25685 20.6689 7.89935 20.7333 7.50819C20.7976 7.11704 20.7265 6.71564 20.5318 6.37035L20.1293 5.6416C22.229 6.47204 24.0308 7.91403 25.3012 9.78064C26.5716 11.6473 27.252 13.8524 27.2543 16.1104ZM18.0793 5.05285L19.223 7.1016C19.2506 7.15109 19.2605 7.20846 19.2512 7.26432C19.2419 7.32019 19.2139 7.37123 19.1718 7.4091L15.808 10.4504C15.7941 10.4635 15.7786 10.4748 15.7618 10.4841L14.2305 11.3291C14.1923 11.3503 14.1492 11.361 14.1055 11.3604H12.0218C11.7143 11.36 11.4121 11.4407 11.1457 11.5943C10.8793 11.7479 10.658 11.969 10.5043 12.2354L9.15178 14.5991C9.14243 14.5854 9.13447 14.5707 9.12803 14.5554L7.69178 10.7216C7.66813 10.6622 7.66813 10.596 7.69178 10.5366L9.08928 7.24286C10.3464 6.26057 11.7983 5.55724 13.3484 5.17963C14.8985 4.80203 16.5112 4.75881 18.0793 5.05285ZM4.75428 16.1104C4.75236 14.1949 5.24216 12.3111 6.17678 10.6391C6.177 10.8471 6.21469 11.0533 6.28803 11.2479L7.72428 15.0816C7.82644 15.3567 7.99641 15.6015 8.21843 15.7934C8.44044 15.9852 8.70731 16.1179 8.99428 16.1791L11.6743 16.7541C11.7115 16.7622 11.7464 16.7786 11.7763 16.8023C11.8062 16.8259 11.8303 16.856 11.8468 16.8904L12.3218 17.8729C12.4659 18.1682 12.6898 18.4172 12.9682 18.5917C13.2465 18.7662 13.5682 18.8593 13.8968 18.8604H14.4668L13.4055 21.2354C13.2663 21.548 13.2218 21.8947 13.2776 22.2324C13.3333 22.5701 13.4869 22.8841 13.7193 23.1354L13.7318 23.1491L16.1918 25.6816C16.217 25.7103 16.2352 25.7444 16.2452 25.7812C16.2552 25.818 16.2566 25.8567 16.2493 25.8941L15.9668 27.3604C12.9906 27.3472 10.1407 26.1565 8.0397 24.0485C5.93873 21.9405 4.75755 19.0866 4.75428 16.1104ZM17.5143 27.2591L17.723 26.1841C17.7744 25.9145 17.7619 25.6366 17.6865 25.3726C17.6112 25.1087 17.4752 24.8661 17.2893 24.6641L17.2768 24.6504L14.8168 22.1179C14.785 22.0819 14.7641 22.0376 14.7568 21.9902C14.7495 21.9427 14.756 21.8942 14.7755 21.8504L16.488 18.0091C16.5098 17.9584 16.5477 17.9163 16.5959 17.8894C16.644 17.8625 16.6997 17.8523 16.7543 17.8604L19.6068 18.2454C19.6413 18.2497 19.6745 18.2612 19.7043 18.2791L25.6293 21.9291C24.7593 23.366 23.5791 24.5904 22.175 25.5126C20.771 26.4347 19.1786 27.0315 17.5143 27.2591Z" fill="#704FAD"/>
</svg>
