<svg width="33" height="33" viewBox="0 0 33 33" fill="none" xmlns="http://www.w3.org/2000/svg">
<path d="M24.2334 16.1103C25.2008 14.7947 26.0341 13.3856 26.7209 11.904C28.0634 8.919 28.0959 6.57149 26.8209 5.29399C25.5459 4.01649 23.1959 4.05149 20.2109 5.39399C18.7293 6.08071 17.3202 6.91403 16.0046 7.88149C14.689 6.91403 13.2799 6.08071 11.7983 5.39399C8.81334 4.05149 6.46584 4.01899 5.18834 5.29399C3.91084 6.56899 3.94584 8.919 5.28834 11.904C5.97506 13.3856 6.80838 14.7947 7.77584 16.1103C6.80838 17.4258 5.97506 18.8349 5.28834 20.3165C3.94584 23.3015 3.91334 25.649 5.18834 26.9265C5.81334 27.5515 6.68834 27.8603 7.76709 27.8603C8.90459 27.8603 10.2671 27.5153 11.7983 26.8265C13.2799 26.1398 14.689 25.3065 16.0046 24.339C17.3202 25.3065 18.7293 26.1398 20.2109 26.8265C21.7421 27.5153 23.1046 27.8603 24.2421 27.8603C25.3221 27.8603 26.1984 27.549 26.8209 26.9265C28.0996 25.649 28.0634 23.3015 26.7209 20.3165C26.0341 18.8349 25.2008 17.4258 24.2334 16.1103ZM25.7546 6.36024C26.9146 7.52024 26.0496 10.8965 23.2796 14.8603C22.3904 13.7477 21.4397 12.6856 20.4321 11.679C19.4267 10.6711 18.3659 9.72 17.2546 8.83025C21.2234 6.06149 24.6009 5.19524 25.7546 6.36024ZM22.3559 16.1103C21.4348 17.296 20.4408 18.4232 19.3796 19.4853C18.3178 20.5495 17.1906 21.5464 16.0046 22.4703C14.8186 21.5464 13.6914 20.5495 12.6296 19.4853C11.5657 18.4231 10.5688 17.2959 9.6446 16.1103C11.4992 13.7413 13.6349 11.6064 16.0046 9.75275C17.1902 10.6762 18.3173 11.6723 19.3796 12.7352C20.4425 13.7972 21.4382 14.9244 22.3609 16.1103H22.3559ZM6.25459 6.36024C6.58959 6.02399 7.10959 5.86024 7.77584 5.86024C9.41459 5.86024 11.9383 6.86024 14.7596 8.8365C13.6445 9.72287 12.5803 10.6715 11.5721 11.6777C10.5644 12.6848 9.6138 13.7473 8.72459 14.8603C5.95459 10.8915 5.08959 7.51524 6.25459 6.36024ZM6.25459 25.8603C5.09459 24.7003 5.96084 21.324 8.72959 17.3603C9.61883 18.4728 10.5695 19.5349 11.5771 20.5415C12.5825 21.5494 13.6433 22.5005 14.7546 23.3903C10.7858 26.1603 7.40959 27.0253 6.25459 25.8603ZM25.7546 25.8603C24.5946 27.0203 21.2184 26.154 17.2546 23.384C18.3675 22.4956 19.4296 21.5453 20.4359 20.5378C21.4438 19.5324 22.3949 18.4716 23.2846 17.3603C26.0546 21.329 26.9196 24.7053 25.7546 25.8603ZM17.2546 16.1103C17.2546 16.3575 17.1813 16.5992 17.0439 16.8047C16.9066 17.0103 16.7114 17.1705 16.483 17.2651C16.2545 17.3597 16.0032 17.3845 15.7607 17.3362C15.5183 17.288 15.2955 17.169 15.1207 16.9941C14.9459 16.8193 14.8268 16.5966 14.7786 16.3541C14.7304 16.1116 14.7551 15.8603 14.8498 15.6319C14.9444 15.4035 15.1046 15.2083 15.3101 15.0709C15.5157 14.9336 15.7574 14.8603 16.0046 14.8603C16.3361 14.8603 16.6541 14.9919 16.8885 15.2264C17.1229 15.4608 17.2546 15.7787 17.2546 16.1103Z" fill="#704FAD"/>
</svg>
