<svg width="1921" height="793" viewBox="0 0 1921 793" fill="none" xmlns="http://www.w3.org/2000/svg">
<path opacity="0.1" d="M3254.22 32.2029C3262.99 16.8708 3267.35 9.20177 3274.43 5.2996C3281.45 1.39352 3289.72 2.07669 3306.08 3.42715L4025.36 62.794C4063.35 65.9292 4082.28 67.4914 4088.45 81.3766C4094.62 95.2633 4084.09 112.757 4063.03 147.746L2982.25 1931.07C2973.34 1945.85 2968.95 1953.24 2962.02 1956.99C2955.03 1960.72 2947.07 1960.06 2931.03 1958.74L2026.83 1884.11C2010.86 1882.79 2002.9 1882.14 1996.99 1877.37C1991.09 1872.6 1988.54 1864.69 1983.32 1848.87L1549.25 537.183C1545.45 525.736 1543.54 520.013 1544 514.044C1544.53 508.072 1547.33 502.527 1552.95 491.431L1984.34 -363.325C2010.02 -414.095 2022.86 -439.48 2040.25 -438.591C2057.76 -437.692 2065.79 -411.235 2081.78 -358.328L2526.39 1111.28C2541.36 1160.78 2548.88 1185.53 2565.76 1186.91C2582.64 1188.3 2595.91 1165.25 2622.32 1119.14L3254.22 32.2029Z" fill="url(#paint0_linear_410_3092)" fill-opacity="0.25"/>
<path opacity="0.1" d="M3276.81 -312.899C3285.59 -328.231 3289.94 -335.9 3297.02 -339.802C3304.04 -343.708 3312.32 -343.025 3328.68 -341.674L4047.96 -282.308C4085.94 -279.172 4104.87 -277.61 4111.04 -263.725C4117.21 -249.838 4106.68 -232.344 4085.62 -197.356L3004.84 1585.96C2995.94 1600.75 2991.55 1608.14 2984.62 1611.89C2977.62 1615.62 2969.67 1614.96 2953.63 1613.64L2049.43 1539.01C2033.45 1537.69 2025.49 1537.03 2019.59 1532.27C2013.68 1527.5 2011.13 1519.59 2005.91 1503.77L1571.85 192.081C1568.04 180.635 1566.14 174.912 1566.6 168.942C1567.12 162.971 1569.93 157.426 1575.54 146.329L2006.93 -708.427C2032.61 -759.197 2045.45 -784.581 2062.84 -783.693C2080.36 -782.794 2088.38 -756.337 2104.37 -703.43L2548.98 766.179C2563.96 815.679 2571.48 840.429 2588.35 841.808C2605.23 843.194 2618.5 820.146 2644.92 774.034L3276.81 -312.899Z" fill="url(#paint1_linear_410_3092)" fill-opacity="0.25"/>
<defs>
<linearGradient id="paint0_linear_410_3092" x1="1544.15" y1="512.822" x2="2668.23" y2="1129.57" gradientUnits="userSpaceOnUse">
<stop stop-color="#CCB0FF"/>
<stop offset="0.959779" stop-color="white"/>
</linearGradient>
<linearGradient id="paint1_linear_410_3092" x1="1566.74" y1="167.72" x2="2690.82" y2="784.469" gradientUnits="userSpaceOnUse">
<stop stop-color="#CCB0FF"/>
<stop offset="0.959779" stop-color="white"/>
</linearGradient>
</defs>
</svg>
