<svg width="1921" height="601" viewBox="0 0 1921 601" fill="none" xmlns="http://www.w3.org/2000/svg">
<rect width="1920" height="600" transform="translate(0.504761 0.110352)" fill="#F7F1FF"/>
<path d="M-300.109 42.2249C-319.724 48.098 -329.529 51.002 -335.254 57.2828C-340.973 63.4994 -341.41 71.8006 -342.273 88.2099L-380.204 809.576C-382.207 847.671 -383.205 866.654 -367.577 875.284C-351.947 883.914 -329.489 876.706 -284.574 862.291L2005.84 120.179C2024.82 114.079 2034.3 111.094 2039.82 104.931C2045.33 98.7035 2045.75 90.7236 2046.59 74.6361L2094.28 -832.186C2095.12 -848.209 2095.54 -856.189 2090.75 -862.894C2085.95 -869.599 2076.91 -873.559 2058.82 -881.608L559.953 -1549.82C546.876 -1555.67 540.337 -1558.6 533.148 -1559.23C525.946 -1559.81 518.908 -1558.05 504.825 -1554.53L-579.889 -1284.41C-644.326 -1268.31 -676.544 -1260.26 -678.113 -1242.92C-679.689 -1225.45 -649.347 -1212.69 -588.66 -1187.24L1096.97 -479.778C1153.75 -455.95 1182.13 -444.004 1181.23 -427.08C1180.33 -410.157 1150.83 -401.255 1091.84 -383.579L-300.109 42.2249Z" fill="url(#paint0_linear_410_1908)"/>
<path d="M786.054 2209.54C763.405 2216.32 752.082 2219.67 745.472 2226.92C738.867 2234.1 738.363 2243.69 737.367 2262.64L693.566 3095.62C691.253 3139.61 690.101 3161.53 708.147 3171.5C726.196 3181.46 752.128 3173.14 803.994 3156.49L3448.81 2299.55C3470.73 2292.51 3481.68 2289.06 3488.05 2281.95C3494.41 2274.75 3494.89 2265.54 3495.87 2246.96L3550.93 1199.83C3551.9 1181.32 3552.39 1172.11 3546.86 1164.37C3541.32 1156.62 3530.87 1152.05 3509.99 1142.76L1779.2 371.148C1764.1 364.393 1756.55 361.015 1748.24 360.28C1739.93 359.62 1731.8 361.651 1715.54 365.714L462.983 677.631C388.576 696.221 351.373 705.516 349.561 725.539C347.741 745.711 382.779 760.445 452.856 789.836L2399.31 1606.76C2464.88 1634.28 2497.65 1648.07 2496.6 1667.61C2495.57 1687.16 2461.51 1697.44 2393.38 1717.85L786.054 2209.54Z" fill="url(#paint1_linear_410_1908)"/>
<defs>
<linearGradient id="paint0_linear_410_1908" x1="531.668" y1="-1559.31" x2="892.541" y2="-278.613" gradientUnits="userSpaceOnUse">
<stop stop-color="#CCB0FF"/>
<stop offset="0.959779" stop-color="white"/>
</linearGradient>
<linearGradient id="paint1_linear_410_1908" x1="1746.53" y1="360.191" x2="2163.25" y2="1839.05" gradientUnits="userSpaceOnUse">
<stop stop-color="#CCB0FF"/>
<stop offset="0.959779" stop-color="white"/>
</linearGradient>
</defs>
</svg>
