<svg width="1063" height="400" viewBox="0 0 1063 400" fill="none" xmlns="http://www.w3.org/2000/svg">
<rect width="1063" height="400" fill="#F7F1FF"/>
<path d="M2169.1 -57.8854C2188.71 -52.0123 2198.52 -49.1083 2204.24 -42.8275C2209.96 -36.6109 2210.4 -28.3097 2211.26 -11.9004L2249.19 709.466C2251.19 747.561 2252.19 766.544 2236.56 775.174C2220.93 783.803 2198.48 776.596 2153.56 762.18L-136.857 20.0692C-155.838 13.9692 -165.317 10.9836 -170.833 4.82081C-176.344 -1.40675 -176.763 -9.38658 -177.609 -25.4741L-225.292 -932.297C-226.135 -948.32 -226.555 -956.3 -221.766 -963.004C-216.969 -969.709 -207.922 -973.669 -189.836 -981.718L1309.03 -1649.93C1322.11 -1655.78 1328.65 -1658.71 1335.84 -1659.34C1343.04 -1659.92 1350.08 -1658.16 1364.16 -1654.64L2448.88 -1384.52C2513.31 -1368.42 2545.53 -1360.37 2547.1 -1343.03C2548.67 -1325.56 2518.33 -1312.8 2457.65 -1287.35L772.011 -579.888C715.234 -556.06 686.851 -544.114 687.758 -527.191C688.656 -510.267 718.152 -501.365 777.145 -483.689L2169.1 -57.8854Z" fill="url(#paint0_linear_301_3579)"/>
<path d="M1082.93 2109.43C1105.58 2116.21 1116.9 2119.56 1123.51 2126.81C1130.12 2133.99 1130.62 2143.58 1131.62 2162.53L1175.42 2995.51C1177.73 3039.5 1178.89 3061.42 1160.84 3071.39C1142.79 3081.35 1116.86 3073.03 1064.99 3056.38L-1579.82 2199.44C-1601.74 2192.4 -1612.69 2188.95 -1619.06 2181.83C-1625.42 2174.64 -1625.91 2165.43 -1626.88 2146.85L-1681.94 1099.71C-1682.92 1081.21 -1683.4 1072 -1677.87 1064.26C-1672.33 1056.51 -1661.89 1051.94 -1641 1042.65L89.7904 271.037C104.891 264.282 112.441 260.905 120.743 260.17C129.059 259.509 137.185 261.541 153.448 265.604L1406 577.521C1480.41 596.111 1517.61 605.406 1519.42 625.429C1521.24 645.6 1486.21 660.334 1416.13 689.726L-530.327 1506.65C-595.889 1534.17 -628.663 1547.96 -627.616 1567.5C-626.579 1587.05 -592.519 1597.33 -524.398 1617.74L1082.93 2109.43Z" fill="url(#paint1_linear_301_3579)"/>
<defs>
<linearGradient id="paint0_linear_301_3579" x1="1337.32" y1="-1659.42" x2="976.445" y2="-378.724" gradientUnits="userSpaceOnUse">
<stop stop-color="#CCB0FF"/>
<stop offset="0.959779" stop-color="white"/>
</linearGradient>
<linearGradient id="paint1_linear_301_3579" x1="122.451" y1="260.08" x2="-294.26" y2="1738.94" gradientUnits="userSpaceOnUse">
<stop stop-color="#CCB0FF"/>
<stop offset="0.959779" stop-color="white"/>
</linearGradient>
</defs>
</svg>
