<svg width="25" height="25" viewBox="0 0 25 25" fill="none" xmlns="http://www.w3.org/2000/svg">
<path d="M21.4915 20.0791C20.0093 17.5178 17.6824 15.7206 14.9787 14.9585C16.2932 14.2903 17.3443 13.1988 17.9626 11.8601C18.5809 10.5214 18.7304 9.01346 18.3868 7.57945C18.0433 6.14543 17.2267 4.86891 16.0689 3.95572C14.9111 3.04253 13.4795 2.5459 12.0049 2.5459C10.5303 2.5459 9.09868 3.04253 7.94087 3.95572C6.78306 4.86891 5.96655 6.14543 5.623 7.57945C5.27944 9.01346 5.42886 10.5214 6.04717 11.8601C6.66548 13.1988 7.71664 14.2903 9.03115 14.9585C6.3274 15.7197 4.00053 17.5169 2.51834 20.0791C2.47764 20.1431 2.45031 20.2147 2.438 20.2896C2.42569 20.3644 2.42864 20.441 2.44669 20.5147C2.46474 20.5884 2.49751 20.6576 2.54302 20.7183C2.58854 20.779 2.64586 20.8299 2.71154 20.8678C2.77722 20.9058 2.8499 20.9301 2.92521 20.9392C3.00052 20.9484 3.07691 20.9422 3.14977 20.9211C3.22263 20.8999 3.29046 20.8643 3.34918 20.8163C3.4079 20.7682 3.4563 20.7088 3.49146 20.6416C5.2924 17.53 8.47428 15.6728 12.0049 15.6728C15.5355 15.6728 18.7174 17.53 20.5183 20.6416C20.5535 20.7088 20.6019 20.7682 20.6606 20.8163C20.7193 20.8643 20.7872 20.8999 20.86 20.9211C20.9329 20.9422 21.0093 20.9484 21.0846 20.9392C21.1599 20.9301 21.2326 20.9058 21.2983 20.8678C21.3639 20.8299 21.4213 20.779 21.4668 20.7183C21.5123 20.6576 21.5451 20.5884 21.5631 20.5147C21.5812 20.441 21.5841 20.3644 21.5718 20.2896C21.5595 20.2147 21.5322 20.1431 21.4915 20.0791ZM6.5674 9.11033C6.5674 8.0349 6.88631 6.98361 7.48379 6.08942C8.08127 5.19523 8.93049 4.49829 9.92406 4.08674C10.9176 3.67519 12.0109 3.56751 13.0657 3.77731C14.1205 3.98712 15.0893 4.50499 15.8498 5.26544C16.6102 6.02589 17.1281 6.99476 17.3379 8.04953C17.5477 9.1043 17.44 10.1976 17.0285 11.1912C16.6169 12.1847 15.92 13.034 15.0258 13.6315C14.1316 14.2289 13.0803 14.5478 12.0049 14.5478C10.5633 14.5461 9.18128 13.9727 8.16193 12.9533C7.14257 11.934 6.56914 10.5519 6.5674 9.11033Z" fill="#F7F1FF"/>
</svg>
