<svg width="25" height="25" viewBox="0 0 25 25" fill="none" xmlns="http://www.w3.org/2000/svg">
<path d="M23.1801 7.14089L20.9301 4.93214C20.684 4.68683 20.3508 4.54907 20.0033 4.54907C19.6559 4.54907 19.3227 4.68683 19.0766 4.93214L10.3841 13.4953C10.3667 13.5127 10.346 13.5265 10.3233 13.536C10.3005 13.5454 10.2761 13.5503 10.2515 13.5503C10.2268 13.5503 10.2024 13.5454 10.1797 13.536C10.1569 13.5265 10.1362 13.5127 10.1188 13.4953L10.1104 13.4878L6.67819 10.1775C6.43224 9.93271 6.09938 9.79532 5.75241 9.79532C5.40544 9.79532 5.07258 9.93271 4.82663 10.1775L2.57663 12.4275C2.33074 12.6736 2.19263 13.0072 2.19263 13.3551C2.19263 13.703 2.33074 14.0367 2.57663 14.2828L9.291 21.0328C9.41288 21.1547 9.55758 21.2513 9.71682 21.3173C9.87607 21.3833 10.0468 21.4172 10.2191 21.4172C10.3915 21.4172 10.5622 21.3833 10.7214 21.3173C10.8807 21.2513 11.0254 21.1547 11.1473 21.0328L23.1838 9.00089C23.306 8.87869 23.4029 8.73357 23.4689 8.57384C23.5349 8.41411 23.5686 8.24293 23.5683 8.07011C23.5679 7.89729 23.5335 7.72624 23.4668 7.56678C23.4002 7.40732 23.3028 7.26259 23.1801 7.14089ZM22.3879 8.20401L10.3485 20.2425C10.3134 20.2771 10.2661 20.2965 10.2168 20.2965C10.1675 20.2965 10.1202 20.2771 10.0851 20.2425L3.37069 13.4925C3.33577 13.4573 3.31617 13.4098 3.31617 13.3603C3.31617 13.3107 3.33577 13.2632 3.37069 13.2281L5.62069 10.9781C5.63824 10.9604 5.65914 10.9464 5.68216 10.9369C5.70517 10.9274 5.72985 10.9226 5.75475 10.9228C5.80427 10.9227 5.85179 10.9423 5.88694 10.9771L5.89444 10.9846L9.33132 14.2921C9.57715 14.536 9.9094 14.6729 10.2557 14.6729C10.602 14.6729 10.9342 14.536 11.1801 14.2921L19.8726 5.72808C19.89 5.71007 19.911 5.69576 19.9341 5.68599C19.9572 5.67622 19.982 5.67118 20.0071 5.67118C20.0322 5.67118 20.057 5.67622 20.0801 5.68599C20.1032 5.69576 20.1242 5.71007 20.1416 5.72808L22.3916 7.93683C22.4091 7.95452 22.4229 7.97551 22.4322 7.99858C22.4414 8.02165 22.446 8.04634 22.4457 8.0712C22.4453 8.09607 22.4401 8.12062 22.4301 8.14342C22.4202 8.16622 22.4058 8.18682 22.3879 8.20401Z" fill="#704FAD"/>
</svg>
