<svg width="110" height="54" viewBox="0 0 110 54" fill="none" xmlns="http://www.w3.org/2000/svg">
<rect x="1.00476" y="0.610352" width="108" height="52" fill="#F78D40"/>
<path d="M17.9678 15.3824C18.0191 15.387 18.0868 15.3917 18.1708 15.3964C18.2548 15.3964 18.3691 15.3964 18.5138 15.3964C19.1064 15.3964 19.5474 15.247 19.8368 14.9484C20.1308 14.645 20.2778 14.2227 20.2778 13.6814C20.2778 13.1307 20.1354 12.7084 19.8508 12.4144C19.5661 12.1204 19.1251 11.9734 18.5278 11.9734C18.2664 11.9734 18.0798 11.9804 17.9678 11.9944V15.3824ZM21.2018 13.6814C21.2018 14.1014 21.1364 14.4677 21.0058 14.7804C20.8751 15.0884 20.6884 15.3474 20.4458 15.5574C20.2078 15.7627 19.9184 15.9167 19.5778 16.0194C19.2418 16.1174 18.8684 16.1664 18.4578 16.1664C18.2618 16.1664 18.0401 16.157 17.7928 16.1384C17.5454 16.1244 17.3098 16.0917 17.0858 16.0404V11.3294C17.3098 11.278 17.5478 11.2454 17.7998 11.2314C18.0518 11.2174 18.2758 11.2104 18.4718 11.2104C18.8778 11.2104 19.2488 11.2594 19.5848 11.3574C19.9208 11.4507 20.2078 11.6 20.4458 11.8054C20.6884 12.006 20.8751 12.2627 21.0058 12.5754C21.1364 12.8834 21.2018 13.252 21.2018 13.6814ZM22.3049 16.1104V11.2594H25.4199V12.0084H23.1869V13.2054H25.1749V13.9404H23.1869V15.3614H25.5879V16.1104H22.3049ZM27.9324 16.1104C27.5824 15.3544 27.2441 14.5634 26.9174 13.7374C26.5954 12.9114 26.2944 12.0854 26.0144 11.2594H26.9874C27.0994 11.586 27.2138 11.9197 27.3304 12.2604C27.4471 12.601 27.5638 12.937 27.6804 13.2684C27.7971 13.595 27.9138 13.9124 28.0304 14.2204C28.1471 14.5284 28.2614 14.8107 28.3734 15.0674C28.4808 14.8107 28.5928 14.5307 28.7094 14.2274C28.8261 13.9194 28.9428 13.5997 29.0594 13.2684C29.1808 12.937 29.2998 12.601 29.4164 12.2604C29.5331 11.9197 29.6451 11.586 29.7524 11.2594H30.6974C30.4128 12.0854 30.1094 12.9114 29.7874 13.7374C29.4654 14.5634 29.1294 15.3544 28.7794 16.1104H27.9324ZM31.4647 16.1104V11.2594H34.5797V12.0084H32.3467V13.2054H34.3347V13.9404H32.3467V15.3614H34.7477V16.1104H31.4647ZM38.7723 15.3474V16.1104H35.7063V11.2594H36.5883V15.3474H38.7723ZM40.0263 13.6814C40.0263 13.9474 40.059 14.19 40.1243 14.4094C40.1896 14.624 40.283 14.8084 40.4043 14.9624C40.5303 15.1117 40.682 15.2284 40.8593 15.3124C41.0366 15.3964 41.2373 15.4384 41.4613 15.4384C41.6806 15.4384 41.879 15.3964 42.0563 15.3124C42.2336 15.2284 42.383 15.1117 42.5043 14.9624C42.6303 14.8084 42.726 14.624 42.7913 14.4094C42.8566 14.19 42.8893 13.9474 42.8893 13.6814C42.8893 13.4154 42.8566 13.175 42.7913 12.9604C42.726 12.741 42.6303 12.5567 42.5043 12.4074C42.383 12.2534 42.2336 12.1344 42.0563 12.0504C41.879 11.9664 41.6806 11.9244 41.4613 11.9244C41.2373 11.9244 41.0366 11.9664 40.8593 12.0504C40.682 12.1344 40.5303 12.2534 40.4043 12.4074C40.283 12.5614 40.1896 12.7457 40.1243 12.9604C40.059 13.175 40.0263 13.4154 40.0263 13.6814ZM43.8133 13.6814C43.8133 14.0967 43.7503 14.463 43.6243 14.7804C43.503 15.0977 43.335 15.3637 43.1203 15.5784C42.9103 15.7884 42.663 15.947 42.3783 16.0544C42.0936 16.1617 41.7903 16.2154 41.4683 16.2154C41.1463 16.2154 40.8406 16.1617 40.5513 16.0544C40.2666 15.947 40.017 15.7884 39.8023 15.5784C39.5923 15.3637 39.4243 15.0977 39.2983 14.7804C39.1723 14.463 39.1093 14.0967 39.1093 13.6814C39.1093 13.266 39.1723 12.902 39.2983 12.5894C39.4243 12.272 39.5946 12.006 39.8093 11.7914C40.0286 11.5767 40.2806 11.4157 40.5653 11.3084C40.85 11.201 41.151 11.1474 41.4683 11.1474C41.7856 11.1474 42.0866 11.201 42.3713 11.3084C42.656 11.4157 42.9033 11.5767 43.1133 11.7914C43.328 12.006 43.4983 12.272 43.6243 12.5894C43.7503 12.902 43.8133 13.266 43.8133 13.6814ZM46.2929 11.2104C46.9975 11.2104 47.5365 11.3387 47.9099 11.5954C48.2879 11.852 48.4769 12.2534 48.4769 12.7994C48.4769 13.084 48.4255 13.329 48.3229 13.5344C48.2249 13.735 48.0802 13.9007 47.8889 14.0314C47.6975 14.1574 47.4642 14.2507 47.1889 14.3114C46.9135 14.372 46.5985 14.4024 46.2439 14.4024H45.8029V16.1104H44.9209V11.3294C45.1262 11.2827 45.3525 11.2524 45.5999 11.2384C45.8519 11.2197 46.0829 11.2104 46.2929 11.2104ZM46.3559 11.9734C46.1319 11.9734 45.9475 11.9804 45.8029 11.9944V13.6464H46.2299C46.6545 13.6464 46.9812 13.588 47.2099 13.4714C47.4385 13.35 47.5529 13.1237 47.5529 12.7924C47.5529 12.6337 47.5225 12.5007 47.4619 12.3934C47.4012 12.286 47.3172 12.202 47.2099 12.1414C47.1025 12.0807 46.9742 12.0387 46.8249 12.0154C46.6802 11.9874 46.5239 11.9734 46.3559 11.9734ZM49.4222 16.1104V11.2594H52.5372V12.0084H50.3042V13.2054H52.2922V13.9404H50.3042V15.3614H52.7052V16.1104H49.4222ZM54.5458 15.3824C54.5971 15.387 54.6648 15.3917 54.7488 15.3964C54.8328 15.3964 54.9471 15.3964 55.0918 15.3964C55.6844 15.3964 56.1254 15.247 56.4148 14.9484C56.7088 14.645 56.8558 14.2227 56.8558 13.6814C56.8558 13.1307 56.7134 12.7084 56.4288 12.4144C56.1441 12.1204 55.7031 11.9734 55.1058 11.9734C54.8444 11.9734 54.6578 11.9804 54.5458 11.9944V15.3824ZM57.7798 13.6814C57.7798 14.1014 57.7144 14.4677 57.5838 14.7804C57.4531 15.0884 57.2664 15.3474 57.0238 15.5574C56.7858 15.7627 56.4964 15.9167 56.1558 16.0194C55.8198 16.1174 55.4464 16.1664 55.0358 16.1664C54.8398 16.1664 54.6181 16.157 54.3708 16.1384C54.1234 16.1244 53.8878 16.0917 53.6638 16.0404V11.3294C53.8878 11.278 54.1258 11.2454 54.3778 11.2314C54.6298 11.2174 54.8538 11.2104 55.0498 11.2104C55.4558 11.2104 55.8268 11.2594 56.1628 11.3574C56.4988 11.4507 56.7858 11.6 57.0238 11.8054C57.2664 12.006 57.4531 12.2627 57.5838 12.5754C57.7144 12.8834 57.7798 13.252 57.7798 13.6814ZM62.1197 16.1664C61.863 16.1664 61.604 16.157 61.3427 16.1384C61.0813 16.1244 60.8527 16.0917 60.6567 16.0404V11.3294C60.7593 11.3107 60.869 11.2944 60.9857 11.2804C61.1023 11.2617 61.2213 11.2477 61.3427 11.2384C61.464 11.229 61.583 11.222 61.6997 11.2174C61.821 11.2127 61.9353 11.2104 62.0427 11.2104C62.3367 11.2104 62.6097 11.2337 62.8617 11.2804C63.1137 11.3224 63.3307 11.3947 63.5127 11.4974C63.6993 11.6 63.844 11.7354 63.9467 11.9034C64.0493 12.0714 64.1007 12.279 64.1007 12.5264C64.1007 12.755 64.0447 12.951 63.9327 13.1144C63.8253 13.2777 63.6737 13.4084 63.4777 13.5064C63.7717 13.6044 63.9887 13.749 64.1287 13.9404C64.2687 14.1317 64.3387 14.3744 64.3387 14.6684C64.3387 15.1677 64.1567 15.5434 63.7927 15.7954C63.4287 16.0427 62.871 16.1664 62.1197 16.1664ZM61.5247 13.9264V15.4034C61.6227 15.4127 61.7277 15.4197 61.8397 15.4244C61.9517 15.429 62.0543 15.4314 62.1477 15.4314C62.3297 15.4314 62.4977 15.4197 62.6517 15.3964C62.8103 15.373 62.9457 15.3334 63.0577 15.2774C63.1743 15.2167 63.2653 15.1374 63.3307 15.0394C63.4007 14.9414 63.4357 14.8154 63.4357 14.6614C63.4357 14.386 63.3353 14.1947 63.1347 14.0874C62.934 13.98 62.6563 13.9264 62.3017 13.9264H61.5247ZM61.5247 13.2334H62.1477C62.4837 13.2334 62.7473 13.1867 62.9387 13.0934C63.13 12.9954 63.2257 12.8227 63.2257 12.5754C63.2257 12.342 63.1253 12.1764 62.9247 12.0784C62.7287 11.9804 62.472 11.9314 62.1547 11.9314C62.0193 11.9314 61.898 11.9337 61.7907 11.9384C61.688 11.943 61.5993 11.95 61.5247 11.9594V13.2334ZM66.871 13.4084C67.081 13.0584 67.2864 12.7037 67.487 12.3444C67.6877 11.985 67.8697 11.6234 68.033 11.2594H69.013C68.7517 11.754 68.4787 12.2464 68.194 12.7364C67.914 13.2217 67.613 13.7117 67.291 14.2064V16.1104H66.409V14.2204C66.087 13.721 65.7837 13.2264 65.499 12.7364C65.2144 12.2464 64.9414 11.754 64.68 11.2594H65.716C65.8794 11.6234 66.059 11.985 66.255 12.3444C66.451 12.7037 66.6564 13.0584 66.871 13.4084Z" fill="#F0F0F0" fill-opacity="0.5"/>
<g clip-path="url(#clip0_401_3095)">
<path d="M18.7554 28.0801C18.838 28.6857 19.5538 29.0894 20.4305 29.0894C21.3526 29.0894 21.9509 28.6975 21.9509 28.1664C21.9509 27.6764 21.5589 27.4373 20.5068 27.2296L19.2897 27.0022C17.5755 26.6906 16.6925 25.8087 16.6925 24.4681C16.6925 22.7533 18.2397 21.6499 20.3913 21.6499C22.7183 21.6499 24.0922 22.7219 24.1169 24.3819H21.9323C21.8869 23.7391 21.2619 23.353 20.4119 23.353C19.562 23.353 19.0381 23.7077 19.0381 24.2467C19.0381 24.7249 19.4506 24.9875 20.4243 25.1776L21.6291 25.3912C23.4671 25.7283 24.2923 26.5181 24.2923 27.9155C24.2923 29.6794 22.7636 30.7925 20.3728 30.7925C17.9819 30.7925 16.5337 29.7989 16.5048 28.0801H18.7554Z" fill="#F0F0F0"/>
<path d="M32.2633 30.6436V27.0865H28.5501V30.6436H26.1922V21.8087H28.5563V25.2737H32.2695V21.8087H34.6274V30.6436H32.2633Z" fill="#F0F0F0"/>
<path d="M36.3107 30.6436L39.4318 21.8087H42.3199L45.4555 30.6436H42.9388L42.3508 28.7034H39.3143L36.3107 30.6436ZM39.7702 27.0865H41.8908L40.8594 23.6823H40.8078L39.7702 27.0865Z" fill="#F0F0F0"/>
<path d="M47.1368 30.6436V21.8087H51.1656C53.1625 21.8087 54.5157 23.0394 54.5157 24.9444C54.5157 26.8494 53.0923 28.0605 51.0233 28.0605H49.5029L47.1368 30.6436ZM49.5029 26.3712H50.5344C51.539 26.3712 52.131 25.8753 52.131 24.9503C52.131 24.0252 51.539 23.5353 50.5467 23.5353H49.5153L49.5029 26.3712Z" fill="#F0F0F0"/>
<path d="M65.2861 26.2281C65.2861 29.0444 63.5141 30.7965 60.6962 30.7965C57.8783 30.7965 56.1021 29.0444 56.1021 26.2281C56.1021 23.4118 57.8803 21.6539 60.6962 21.6539C63.512 21.6539 65.2861 23.4118 65.2861 26.2281ZM58.5116 26.2281C58.5116 27.9057 59.3697 28.9719 60.6962 28.9719C62.0226 28.9719 62.8828 27.9057 62.8828 26.2281C62.8828 24.5505 62.0185 23.4843 60.6962 23.4843C59.3739 23.4843 58.5116 24.5525 58.5116 26.2281Z" fill="#F0F0F0"/>
<path d="M69.6945 24.0801L70.8724 28.4447H70.924L72.7105 21.8087H75.3015L72.335 30.6436H69.3583L66.3939 21.8087" fill="#F0F0F0"/>
<path d="M75.384 30.6436L78.5093 21.8087H81.3973L84.5226 30.6436H82.0162L81.4283 28.7034H78.3876L75.384 30.6436ZM78.8455 27.0865H80.9662L79.9348 23.6823H79.8832L78.8455 27.0865Z" fill="#F0F0F0"/>
<path d="M88.5762 28.8308H92.4235V30.6436H86.2101V21.8087" fill="#F0F0F0"/>
<path d="M16.5708 42.4855L19.7559 33.484H22.7038L25.8889 42.4855H23.3268L22.7224 40.508H19.628L16.5708 42.4855ZM20.0942 38.8617H22.2562L21.2041 35.3928H21.1525L20.0942 38.8617Z" fill="#F0F0F0"/>
<path d="M39.3926 37.5761V38.6814C39.3926 41.1391 37.7898 42.6423 35.0915 42.6423C32.1684 42.6423 30.4087 40.9274 30.4087 37.97C30.4087 35.0498 32.1684 33.3271 35.0317 33.3271C37.3297 33.3271 39.0502 34.6187 39.2936 36.4629H36.911C36.6737 35.6652 35.9641 35.1792 35.0379 35.1792C33.6722 35.1792 32.8656 36.1944 32.8656 37.9484C32.8656 39.7025 33.7589 40.8118 35.1348 40.8118C36.2261 40.8118 36.9914 40.2003 37.0533 39.2949V39.1577H35.3205" fill="#F0F0F0"/>
<path d="M51.5245 42.4855H45.0285V33.484H51.5245V35.3321H47.44V37.1234H51.2811V38.8069H47.44V40.6413H51.5245V42.4855Z" fill="#F0F0F0"/>
<path d="M57.3254 42.4855V33.484H59.248L63.2686 38.7187H63.3202V33.484H65.6059V42.4855H63.7018L59.6627 37.1939H59.6111V42.4855H57.3254Z" fill="#F0F0F0"/>
<path d="M70.9281 37.9955C70.9281 35.0557 72.7043 33.3546 75.5181 33.3546C77.909 33.3546 79.7223 34.8166 79.7945 36.9372H77.4819C77.3644 35.8808 76.5722 35.1733 75.5181 35.1733C74.2081 35.1733 73.3768 36.2375 73.3768 37.9798C73.3768 39.7221 74.2019 40.8196 75.5325 40.8196C76.5867 40.8196 77.354 40.1592 77.5046 39.1087H79.8151C79.7037 41.2429 77.9585 42.6481 75.5263 42.6481C72.6898 42.6423 70.9281 40.9313 70.9281 37.9955Z" fill="#F0F0F0"/>
<path d="M87.0187 42.4855V39.3929L83.7552 33.484H86.3421L88.2255 37.2272H88.273L90.1502 33.484H92.6917L89.4282 39.3929V42.4855H87.0187Z" fill="#F0F0F0"/>
</g>
<rect x="1.00476" y="0.610352" width="108" height="52" stroke="black"/>
<defs>
<clipPath id="clip0_401_3095">
<rect width="77" height="24" fill="white" transform="translate(16.5048 21.1104)"/>
</clipPath>
</defs>
</svg>
