<svg width="25" height="25" viewBox="0 0 25 25" fill="none" xmlns="http://www.w3.org/2000/svg">
<path d="M21.2788 15.1388L16.8501 13.1541C16.6494 13.0681 16.4305 13.0335 16.2131 13.0535C15.9957 13.0735 15.7867 13.1474 15.6051 13.2685C15.5867 13.2803 15.5691 13.2935 15.5526 13.3078L13.2379 15.2766C13.2139 15.2897 13.1871 15.297 13.1598 15.298C13.1325 15.299 13.1053 15.2936 13.0804 15.2822C11.5926 14.5641 10.0513 13.0322 9.3304 11.565C9.31839 11.5405 9.31215 11.5136 9.31215 11.4863C9.31215 11.459 9.31839 11.432 9.3304 11.4075L11.3057 9.06377C11.3199 9.04643 11.333 9.02828 11.3451 9.0094C11.4645 8.82706 11.5366 8.61785 11.555 8.40065C11.5733 8.18346 11.5373 7.96511 11.4501 7.76534L9.47946 3.34409C9.36755 3.0831 9.17401 2.86544 8.92789 2.72379C8.68177 2.58213 8.39635 2.52412 8.11446 2.55846C6.88936 2.71952 5.76482 3.32115 4.95098 4.25093C4.13714 5.18071 3.6897 6.37501 3.69227 7.61065C3.69227 14.9513 9.66415 20.9231 17.0048 20.9231C18.2404 20.9255 19.4346 20.478 20.3643 19.6642C21.294 18.8504 21.8957 17.726 22.057 16.501C22.0912 16.2204 22.034 15.9363 21.8938 15.6908C21.7536 15.4454 21.5379 15.2518 21.2788 15.1388ZM17.0048 19.7981C10.2848 19.7981 4.81727 14.3306 4.81727 7.61065C4.81414 6.64871 5.16134 5.71853 5.794 4.99391C6.42667 4.26929 7.30151 3.79979 8.25508 3.67315H8.27665C8.31443 3.67385 8.35111 3.68596 8.38189 3.70787C8.41267 3.72979 8.43612 3.76049 8.44915 3.79596L10.4273 8.21252C10.4386 8.23708 10.4444 8.26378 10.4444 8.29081C10.4444 8.31783 10.4386 8.34453 10.4273 8.36909L8.44821 10.7185C8.43344 10.7352 8.41997 10.7531 8.4079 10.7719C8.28406 10.961 8.21113 11.1788 8.19619 11.4043C8.18124 11.6298 8.22478 11.8553 8.32258 12.0591C9.15415 13.7616 10.8698 15.4641 12.591 16.2956C12.796 16.3929 13.0226 16.4354 13.2489 16.419C13.4751 16.4025 13.6932 16.3278 13.882 16.2019C13.8998 16.1897 13.9176 16.1766 13.9345 16.1625L16.2482 14.1938C16.2711 14.1815 16.2963 14.1743 16.3222 14.1727C16.3481 14.1711 16.374 14.1751 16.3982 14.1844L20.8279 16.1691C20.8641 16.1845 20.8945 16.2109 20.9149 16.2445C20.9352 16.2782 20.9445 16.3174 20.9413 16.3566C20.8154 17.3106 20.3463 18.1861 19.6218 18.8195C18.8974 19.4528 17.9671 19.8007 17.0048 19.7981Z" fill="#704FAD"/>
</svg>
