<svg width="163" height="41" viewBox="0 0 163 41" fill="none" xmlns="http://www.w3.org/2000/svg">
<path d="M0.504761 20.1104C0.504761 10.7487 0.504761 6.06782 3.37991 3.13262C3.42844 3.08307 3.47748 3.03403 3.52702 2.98551C6.46222 0.110352 11.1431 0.110352 20.5048 0.110352C29.8665 0.110352 34.5473 0.110352 37.4825 2.98551C37.532 3.03403 37.5811 3.08307 37.6296 3.13262C40.5048 6.06782 40.5048 10.7487 40.5048 20.1104C40.5048 29.472 40.5048 34.1529 37.6296 37.0881C37.5811 37.1376 37.532 37.1867 37.4825 37.2352C34.5473 40.1104 29.8665 40.1104 20.5048 40.1104C11.1431 40.1104 6.46222 40.1104 3.52702 37.2352C3.47748 37.1867 3.42844 37.1376 3.37991 37.0881C0.504761 34.1529 0.504761 29.472 0.504761 20.1104Z" fill="#7B5BB4"/>
<path d="M12.5645 23.862C12.5969 23.8012 12.6131 23.7708 12.6126 23.738C12.6121 23.7051 12.595 23.6752 12.5608 23.6154L7.94085 15.5252C7.84334 15.3544 7.79457 15.2691 7.83214 15.2052C7.86968 15.1414 7.96871 15.1414 8.16677 15.1414H11.8049C11.8798 15.1414 11.9172 15.1414 11.9478 15.1594C11.9783 15.1773 11.9964 15.2098 12.0324 15.2748L14.5064 19.7363C14.6096 19.9226 14.6613 20.0157 14.7395 20.0147C14.8175 20.0137 14.8664 19.9192 14.9648 19.7302L18.3205 13.2766C18.3562 13.2087 18.3735 13.1748 18.4048 13.156C18.436 13.1372 18.4745 13.1372 18.5515 13.1372H22.3504C22.5451 13.1372 22.6423 13.1372 22.6798 13.2C22.718 13.2628 22.6716 13.3474 22.5792 13.5168L15.2367 26.9486C15.2011 27.0142 15.1834 27.047 15.1525 27.0651C15.1216 27.0833 15.084 27.0833 15.0086 27.0833H11.2789C11.0866 27.0833 10.9904 27.0833 10.9525 27.0211C10.9147 26.9589 10.9596 26.8747 11.0494 26.7061L12.5645 23.862Z" fill="white"/>
<path d="M29.0852 15.2018C29.1189 15.1292 29.1356 15.0929 29.1678 15.0726C29.1997 15.0523 29.2404 15.0523 29.3208 15.0523H32.8573C33.0441 15.0523 33.1372 15.0523 33.1753 15.1128C33.2135 15.1733 33.1725 15.2563 33.0905 15.4223L28.8735 23.8888C28.8388 23.959 28.8217 23.994 28.7902 24.0136C28.7583 24.0331 28.7192 24.0331 28.6403 24.0331H24.1946C24.1161 24.0331 24.0769 24.0331 24.0454 24.0137C24.0138 23.9944 23.9968 23.9596 23.9621 23.8899L21.0805 18.1213C21.0553 18.0709 21.0427 18.0458 21.0414 18.0186C21.0405 17.9914 21.0509 17.9653 21.0717 17.913L22.6712 13.8873C22.7665 13.6482 22.8141 13.5286 22.8993 13.5261C22.9851 13.5237 23.0397 13.6403 23.1485 13.8735L26.1739 20.3523C26.2758 20.5706 26.3269 20.6797 26.4099 20.6796C26.4929 20.6796 26.544 20.5704 26.6456 20.3521L29.0852 15.2018Z" fill="white"/>
<path d="M52.6952 10.5161C52.6952 10.3422 52.6952 10.2553 52.7502 10.2013C52.8052 10.1473 52.8937 10.1473 53.0708 10.1473H63.8449C64.1465 10.1473 64.4329 10.1547 64.7043 10.1695C64.9757 10.1843 65.3527 10.2361 65.8351 10.325C66.3327 10.399 66.7775 10.5174 67.1695 10.6803C67.5765 10.8283 68.0062 11.0504 68.4586 11.3465C68.9109 11.6425 69.2878 11.9978 69.5894 12.4124C69.906 12.8121 70.1623 13.3376 70.3583 13.989C70.5694 14.6256 70.6749 15.3436 70.6749 16.143C70.6749 16.9276 70.5769 17.6456 70.3809 18.297C70.2 18.9484 69.9588 19.4962 69.6572 19.9403C69.3556 20.3696 68.9938 20.7545 68.5716 21.095C68.1495 21.4207 67.7348 21.6798 67.3277 21.8723C66.9207 22.0499 66.491 22.1979 66.0386 22.3164C65.6014 22.42 65.2245 22.494 64.9078 22.5384C64.5912 22.568 64.2972 22.5829 64.0258 22.5829H58.3403C58.1633 22.5829 58.0747 22.5829 58.0197 22.6369C57.9647 22.6909 57.9647 22.7778 57.9647 22.9516V25.3674C57.9647 25.5412 57.9647 25.6282 57.9098 25.6821C57.8547 25.7362 57.7662 25.7362 57.5892 25.7362H53.0708C52.8938 25.7362 52.8052 25.7362 52.7502 25.6821C52.6952 25.6282 52.6952 25.5412 52.6952 25.3674V10.5161ZM63.6866 17.9862C65.0737 17.9862 65.7673 17.4236 65.7673 16.2984C65.7673 16.0468 65.7295 15.8321 65.6542 15.6545C65.5938 15.4768 65.4959 15.3362 65.3602 15.2325C65.2245 15.1141 65.0888 15.0179 64.9531 14.9439C64.8174 14.8699 64.6516 14.8254 64.4556 14.8106C64.2746 14.781 64.1238 14.7589 64.0032 14.744C63.8826 14.7292 63.7469 14.7218 63.5961 14.7218H58.3403C58.1633 14.7218 58.0747 14.7218 58.0197 14.7758C57.9647 14.8298 57.9647 14.9168 57.9647 15.0906V17.6174C57.9647 17.7912 57.9647 17.8781 58.0197 17.9321C58.0747 17.9862 58.1633 17.9862 58.3403 17.9862H63.6866Z" fill="#704FAD"/>
<path d="M90.5137 25.3661C90.5141 25.54 90.5143 25.6269 90.4593 25.6811C90.4043 25.7353 90.3157 25.7353 90.1386 25.7353H85.6876C85.511 25.7353 85.4227 25.7353 85.3678 25.6821C85.3129 25.6289 85.3118 25.5414 85.3096 25.3665C85.3088 25.305 85.3078 25.2428 85.3067 25.18C85.3015 24.9071 85.299 24.7706 85.2099 24.718C85.1207 24.6654 84.992 24.7297 84.7345 24.8583C83.2678 25.591 81.6056 25.9573 79.7479 25.9573C79.1297 25.9573 78.602 25.9499 78.1647 25.9351C77.7425 25.9203 77.2147 25.8833 76.5814 25.8241C75.9481 25.7649 75.4128 25.6834 74.9755 25.5798C74.5382 25.4762 74.0784 25.3207 73.5958 25.1134C73.1133 24.9062 72.7213 24.6619 72.4197 24.3806C72.1181 24.0845 71.8693 23.7144 71.6732 23.2703C71.4773 22.8113 71.3793 22.3079 71.3793 21.7601C71.3793 21.0643 71.6054 20.4647 72.0578 19.9614C72.5253 19.4432 73.1585 19.0361 73.9577 18.7399C74.7569 18.4439 75.6315 18.2292 76.5814 18.0959C77.5314 17.9479 78.5567 17.8739 79.6575 17.8739C81.2262 17.8739 82.6675 18.0667 83.9816 18.4522C84.3226 18.5523 84.493 18.6024 84.572 18.5033C84.6509 18.4042 84.5689 18.2678 84.4047 17.9952C84.104 17.4958 83.6977 17.1518 83.1859 16.9634C82.4772 16.6821 81.3463 16.5415 79.7932 16.5415C78.5266 16.5415 77.3052 16.6303 76.129 16.8079C74.968 16.9708 74.2216 17.104 73.8898 17.2077C73.7261 17.2536 73.5744 17.2975 73.4348 17.3395C73.2629 17.3913 73.1769 17.4171 73.1088 17.3825C73.0408 17.3479 73.0131 17.2654 72.9577 17.1003L72.0126 14.2807C71.9589 14.1206 71.932 14.0405 71.9659 13.973C71.9998 13.9054 72.0798 13.8777 72.2399 13.8224C74.7047 12.9702 77.3281 12.5441 80.1098 12.5441C80.7431 12.5441 81.3614 12.5663 81.9645 12.6107C82.5676 12.6403 83.2839 12.7292 84.1133 12.8772C84.9425 13.0105 85.6814 13.1955 86.3298 13.4324C86.9933 13.6693 87.6191 14.0172 88.2071 14.4761C88.7952 14.9203 89.2249 15.4384 89.4964 16.0307C89.9336 17.0078 90.2126 18.244 90.3332 19.7393C90.4479 21.1466 90.508 23.0223 90.5137 25.3661ZM80.336 22.6929C81.4367 22.6929 82.4471 22.5818 83.3669 22.3597C84.1699 22.1529 84.6741 21.963 84.8795 21.79C84.8988 21.7739 84.9084 21.7657 84.9243 21.739C84.9288 21.7317 84.937 21.714 84.9398 21.7059C84.9501 21.6767 84.9501 21.6432 84.9501 21.576C84.9501 21.5405 84.9501 21.5228 84.936 21.4891C84.9315 21.4783 84.9218 21.4611 84.9149 21.4517C84.8933 21.4221 84.8738 21.4102 84.8349 21.3863C84.2998 21.0581 82.8907 20.894 80.6074 20.894C79.3559 20.894 78.4587 20.9681 77.9159 21.1161C77.3731 21.2494 77.1016 21.464 77.1016 21.7601C77.1016 22.382 78.1798 22.6929 80.336 22.6929Z" fill="#704FAD"/>
<path d="M96.7635 25.4908C96.8103 25.4035 96.8337 25.3599 96.833 25.3129C96.8323 25.2657 96.8076 25.2229 96.7581 25.137L90.074 13.535C89.9329 13.2901 89.8623 13.1676 89.9167 13.0761C89.971 12.9846 90.1143 12.9846 90.4008 12.9846H95.6645C95.7728 12.9846 95.8269 12.9846 95.8712 13.0103C95.9154 13.036 95.9415 13.0826 95.9936 13.1758L99.573 19.574C99.7222 19.8412 99.7971 19.9748 99.9103 19.9733C100.023 19.9719 100.094 19.8364 100.236 19.5654L105.091 10.3102C105.143 10.2129 105.168 10.1643 105.213 10.1373C105.258 10.1104 105.314 10.1104 105.425 10.1104H110.922C111.203 10.1104 111.344 10.1104 111.398 10.2004C111.453 10.2904 111.386 10.4119 111.253 10.6548L100.63 29.9172C100.578 30.0114 100.552 30.0584 100.508 30.0844C100.463 30.1103 100.409 30.1104 100.3 30.1104H94.9035C94.6252 30.1104 94.4861 30.1104 94.4313 30.0212C94.3765 29.932 94.4415 29.8112 94.5714 29.5694L96.7635 25.4908Z" fill="#704FAD"/>
<path d="M135.483 12.5256C137.036 12.5256 138.387 12.6588 139.532 12.9253C140.678 13.1918 141.674 13.6285 142.519 14.2355C143.363 14.8425 143.982 15.6716 144.373 16.7228C144.735 17.6781 144.878 18.816 144.804 20.1363C144.795 20.2953 144.791 20.3749 144.736 20.4253C144.682 20.4758 144.599 20.4758 144.434 20.4758H131.795C131.588 20.4758 131.484 20.4758 131.432 20.5803C131.381 20.685 131.432 20.7475 131.535 20.8725C131.718 21.0969 132.023 21.2903 132.452 21.4529C133.116 21.7046 134.111 21.8304 135.438 21.8304C136.599 21.8304 137.753 21.7564 138.899 21.6083C140.06 21.4603 140.935 21.3123 141.523 21.1642L142.114 21.0116C142.243 20.9782 142.308 20.9614 142.365 20.984C142.423 21.0065 142.458 21.0626 142.529 21.1745L144.496 24.3028C144.542 24.3769 144.566 24.414 144.569 24.4578C144.573 24.4992 144.558 24.5501 144.533 24.5834C144.506 24.6187 144.469 24.6368 144.396 24.673C144.275 24.7173 143.966 24.8062 143.468 24.9394C142.986 25.0727 142.436 25.1911 141.817 25.2948C141.199 25.3984 140.339 25.4946 139.239 25.5834C138.138 25.6575 136.931 25.6945 135.619 25.6945C134.081 25.6945 132.739 25.5909 131.593 25.3836C130.461 25.1763 129.534 24.8876 128.81 24.5175C128.101 24.1474 127.528 23.681 127.091 23.1185C126.654 22.5558 126.352 21.9563 126.186 21.3197C126.02 20.6831 125.937 19.9428 125.937 19.0989C125.937 17.0262 126.737 15.4125 128.335 14.2577C129.949 13.103 132.332 12.5256 135.483 12.5256ZM135.528 16.5007C134.699 16.5007 133.99 16.5599 133.402 16.6783C132.814 16.7968 132.384 16.9522 132.113 17.1447C131.841 17.3223 131.645 17.5 131.525 17.6777C131.485 17.7363 131.452 17.7948 131.425 17.8535C131.368 17.9795 131.339 18.0425 131.395 18.1266C131.45 18.2107 131.54 18.2107 131.719 18.2107H139.066C139.25 18.2107 139.342 18.2107 139.398 18.1334C139.454 18.0563 139.43 17.987 139.382 17.8483C139.266 17.5172 138.985 17.2308 138.537 16.9892C137.949 16.6635 136.946 16.5007 135.528 16.5007Z" fill="#704FAD"/>
<path d="M157.391 12.8752C159.532 12.8752 161.258 13.2972 162.57 14.1413C162.616 14.167 162.638 14.1799 162.663 14.2144C162.681 14.24 162.696 14.2895 162.696 14.3206C162.696 14.3625 162.683 14.3886 162.656 14.4408L160.957 17.8569C160.876 18.0196 160.835 18.1009 160.764 18.1264C160.693 18.1519 160.604 18.1134 160.427 18.0365C160.356 18.0058 160.278 17.9735 160.195 17.9395C159.938 17.8211 159.456 17.6656 158.747 17.4731C158.039 17.2806 157.368 17.1621 156.735 17.1177C156.177 17.0881 155.649 17.1177 155.151 17.2066C154.653 17.2954 154.262 17.3917 153.975 17.4953C153.689 17.5842 153.364 17.7545 153.003 18.0062C152.656 18.2431 152.437 18.406 152.347 18.4949C152.283 18.5576 152.149 18.684 151.944 18.8743C151.886 18.9283 151.857 18.9553 151.842 18.9902C151.827 19.025 151.827 19.0642 151.827 19.1425V25.3674C151.827 25.5412 151.827 25.6281 151.772 25.6821C151.716 25.7361 151.628 25.7361 151.451 25.7361H146.932C146.755 25.7361 146.666 25.7361 146.612 25.6821C146.557 25.6281 146.557 25.5412 146.557 25.3674V13.2217C146.557 13.0479 146.557 12.961 146.612 12.907C146.666 12.853 146.755 12.853 146.932 12.853H151.451C151.628 12.853 151.716 12.853 151.772 12.907C151.827 12.961 151.827 13.0479 151.827 13.2217V13.6008C151.827 14.0224 151.827 14.2331 151.927 14.285C152.027 14.3369 152.222 14.2057 152.611 13.9433C153.67 13.2312 155.262 12.8752 157.391 12.8752Z" fill="#704FAD"/>
<path d="M120.666 13.0712L120.667 13.069C120.715 12.9663 120.74 12.9148 120.786 12.8859C120.832 12.8568 120.891 12.8568 121.007 12.8568H126.124C126.394 12.8568 126.529 12.8568 126.584 12.9436C126.639 13.0303 126.58 13.1494 126.461 13.3875L120.36 25.5292L120.358 25.5333C120.309 25.6312 120.285 25.6805 120.24 25.7081C120.193 25.7361 120.137 25.7361 120.023 25.7361H113.591C113.477 25.7361 113.42 25.7361 113.375 25.7084C113.333 25.6827 113.308 25.6381 113.265 25.5528L113.256 25.5352L113.254 25.5309L109.085 17.258C109.049 17.1858 109.03 17.1497 109.029 17.1108C109.027 17.0718 109.042 17.0343 109.072 16.9594L111.387 11.1861C111.524 10.8432 111.593 10.6717 111.717 10.6682C111.841 10.6646 111.92 10.8319 112.077 11.1664L116.454 20.4576C116.602 20.7705 116.676 20.927 116.796 20.9269C116.916 20.9269 116.99 20.7703 117.137 20.4572L120.666 13.0712Z" fill="#704FAD"/>
</svg>
