<svg width="17" height="17" viewBox="0 0 17 17" fill="none" xmlns="http://www.w3.org/2000/svg">
<path d="M14.7129 6.29767L8.71289 2.29768C8.65126 2.25656 8.57884 2.23462 8.50476 2.23462C8.43068 2.23462 8.35826 2.25656 8.29664 2.29768L2.29664 6.29767C2.24522 6.33198 2.20308 6.37846 2.17397 6.43298C2.14486 6.4875 2.12967 6.54837 2.12976 6.61017V13.1102C2.12976 13.3422 2.22195 13.5648 2.38604 13.7289C2.55014 13.893 2.7727 13.9852 3.00476 13.9852H14.0048C14.2368 13.9852 14.4594 13.893 14.6235 13.7289C14.7876 13.5648 14.8798 13.3422 14.8798 13.1102V6.61017C14.8799 6.54837 14.8647 6.4875 14.8356 6.43298C14.8064 6.37846 14.7643 6.33198 14.7129 6.29767ZM6.76601 10.1102L2.87976 12.8539V7.3383L6.76601 10.1102ZM7.53289 10.4852H9.47664L13.3698 13.2352H3.63976L7.53289 10.4852ZM10.2435 10.1102L14.1298 7.3383V12.8539L10.2435 10.1102ZM8.50476 3.0608L13.8441 6.6233L9.47539 9.73517H7.53414L3.16539 6.6208L8.50476 3.0608Z" fill="#696969"/>
</svg>
