<svg width="1920" height="753" viewBox="0 0 1920 753" fill="none" xmlns="http://www.w3.org/2000/svg">
<path opacity="0.1" d="M3281.71 -5.90744C3290.49 -21.2395 3294.85 -28.9086 3301.93 -32.8108C3308.94 -36.7168 3317.22 -36.0337 3333.58 -34.6832L4052.86 24.6837C4090.84 27.8188 4109.77 29.3811 4115.94 43.2663C4122.11 57.1529 4111.58 74.6469 4090.52 109.635L3009.75 1892.95C3000.84 1907.74 2996.45 1915.13 2989.52 1918.88C2982.52 1922.61 2974.57 1921.95 2958.53 1920.63L2054.33 1846C2038.35 1844.68 2030.4 1844.03 2024.49 1839.26C2018.58 1834.49 2016.04 1826.58 2010.81 1810.76L1576.75 499.072C1572.94 487.626 1571.04 481.903 1571.5 475.933C1572.02 469.962 1574.83 464.417 1580.44 453.321L2011.83 -401.436C2037.51 -452.206 2050.35 -477.59 2067.74 -476.702C2085.26 -475.802 2093.29 -449.346 2109.28 -396.438L2553.88 1073.17C2568.86 1122.67 2576.38 1147.42 2593.26 1148.8C2610.13 1150.18 2623.4 1127.14 2649.82 1081.03L3281.71 -5.90744Z" fill="url(#paint0_linear_308_2158)" fill-opacity="0.25"/>
<path opacity="0.1" d="M3316.3 -351.009C3325.08 -366.341 3329.44 -374.01 3336.52 -377.912C3343.53 -381.818 3351.81 -381.135 3368.17 -379.785L4087.45 -320.418C4125.44 -317.283 4144.36 -315.721 4150.53 -301.835C4156.7 -287.949 4146.17 -270.455 4125.12 -235.466L3044.34 1547.85C3035.43 1562.64 3031.04 1570.03 3024.11 1573.78C3017.12 1577.51 3009.16 1576.85 2993.12 1575.53L2088.92 1500.9C2072.95 1499.58 2064.99 1498.92 2059.08 1494.16C2053.18 1489.39 2050.63 1481.48 2045.41 1465.66L1611.34 153.971C1607.54 142.525 1605.63 136.801 1606.09 130.832C1606.62 124.86 1609.42 119.315 1615.03 108.219L2046.43 -746.537C2072.11 -797.307 2084.94 -822.692 2102.33 -821.803C2119.85 -820.904 2127.88 -794.447 2143.87 -741.54L2588.48 728.069C2603.45 777.569 2610.97 802.319 2627.85 803.697C2644.72 805.083 2658 782.036 2684.41 735.923L3316.3 -351.009Z" fill="url(#paint1_linear_308_2158)" fill-opacity="0.25"/>
<defs>
<linearGradient id="paint0_linear_308_2158" x1="1571.65" y1="474.712" x2="2695.73" y2="1091.46" gradientUnits="userSpaceOnUse">
<stop stop-color="#CCB0FF"/>
<stop offset="0.959779" stop-color="white"/>
</linearGradient>
<linearGradient id="paint1_linear_308_2158" x1="1606.24" y1="129.61" x2="2730.32" y2="746.358" gradientUnits="userSpaceOnUse">
<stop stop-color="#CCB0FF"/>
<stop offset="0.959779" stop-color="white"/>
</linearGradient>
</defs>
</svg>
