<svg width="25" height="25" viewBox="0 0 25 25" fill="none" xmlns="http://www.w3.org/2000/svg">
<path d="M21.8169 8.64146L12.8169 2.64146C12.7245 2.57979 12.6159 2.54688 12.5048 2.54688C12.3936 2.54688 12.285 2.57979 12.1926 2.64146L3.19257 8.64146C3.11545 8.69291 3.05225 8.76263 3.00857 8.84441C2.9649 8.92619 2.94212 9.0175 2.94226 9.11021V18.8602C2.94226 19.2083 3.08054 19.5421 3.32668 19.7883C3.57283 20.0344 3.90666 20.1727 4.25476 20.1727H20.7548C21.1029 20.1727 21.4367 20.0344 21.6828 19.7883C21.929 19.5421 22.0673 19.2083 22.0673 18.8602V9.11021C22.0674 9.0175 22.0446 8.92619 22.0009 8.84441C21.9573 8.76263 21.8941 8.69291 21.8169 8.64146ZM9.89664 14.3602L4.06726 18.4758V10.2024L9.89664 14.3602ZM11.0469 14.9227H13.9626L19.8023 19.0477H5.20726L11.0469 14.9227ZM15.1129 14.3602L20.9423 10.2024V18.4758L15.1129 14.3602ZM12.5048 3.78615L20.5138 9.1299L13.9607 13.7977H11.0488L4.4957 9.12615L12.5048 3.78615Z" fill="#704FAD"/>
</svg>
