<svg width="25" height="25" viewBox="0 0 25 25" fill="none" xmlns="http://www.w3.org/2000/svg">
<path d="M13.4375 12.8967C13.4375 13.0821 13.3825 13.2634 13.2795 13.4175C13.1765 13.5717 13.0301 13.6919 12.8588 13.7628C12.6875 13.8338 12.499 13.8524 12.3171 13.8162C12.1352 13.78 11.9682 13.6907 11.8371 13.5596C11.706 13.4285 11.6167 13.2614 11.5805 13.0796C11.5443 12.8977 11.5629 12.7092 11.6339 12.5379C11.7048 12.3666 11.825 12.2202 11.9792 12.1172C12.1333 12.0142 12.3146 11.9592 12.5 11.9592C12.7486 11.9592 12.9871 12.058 13.1629 12.2338C13.3387 12.4096 13.4375 12.6481 13.4375 12.8967ZM8.375 11.9592C8.18958 11.9592 8.00832 12.0142 7.85415 12.1172C7.69998 12.2202 7.57982 12.3666 7.50886 12.5379C7.43791 12.7092 7.41934 12.8977 7.45551 13.0796C7.49169 13.2614 7.58098 13.4285 7.71209 13.5596C7.8432 13.6907 8.01025 13.78 8.1921 13.8162C8.37396 13.8524 8.56246 13.8338 8.73377 13.7628C8.90507 13.6919 9.05149 13.5717 9.1545 13.4175C9.25752 13.2634 9.3125 13.0821 9.3125 12.8967C9.3125 12.6481 9.21373 12.4096 9.03791 12.2338C8.8621 12.058 8.62364 11.9592 8.375 11.9592ZM16.625 11.9592C16.4396 11.9592 16.2583 12.0142 16.1042 12.1172C15.95 12.2202 15.8298 12.3666 15.7589 12.5379C15.6879 12.7092 15.6693 12.8977 15.7055 13.0796C15.7417 13.2614 15.831 13.4285 15.9621 13.5596C16.0932 13.6907 16.2602 13.78 16.4421 13.8162C16.624 13.8524 16.8125 13.8338 16.9838 13.7628C17.1551 13.6919 17.3015 13.5717 17.4045 13.4175C17.5075 13.2634 17.5625 13.0821 17.5625 12.8967C17.5625 12.6481 17.4637 12.4096 17.2879 12.2338C17.1121 12.058 16.8736 11.9592 16.625 11.9592ZM22.0625 12.8967C22.0628 14.5544 21.6323 16.1837 20.813 17.6248C19.9937 19.0659 18.8138 20.2692 17.3892 21.1168C15.9646 21.9644 14.344 22.427 12.6867 22.4594C11.0293 22.4917 9.39195 22.0927 7.93531 21.3014L4.66625 22.3908C4.43499 22.4679 4.18683 22.4791 3.94957 22.4231C3.7123 22.3671 3.49533 22.2461 3.32295 22.0737C3.15057 21.9014 3.02961 21.6844 2.97362 21.4471C2.91762 21.2099 2.92882 20.9617 3.00594 20.7304L4.09531 17.4614C3.40087 16.1817 3.00781 14.7604 2.94609 13.3057C2.88438 11.8511 3.15565 10.4015 3.73921 9.06764C4.32278 7.73375 5.20322 6.55072 6.31342 5.60877C7.42362 4.66683 8.73425 3.99082 10.1454 3.63232C11.5565 3.27381 13.0309 3.24227 14.456 3.54009C15.8812 3.83791 17.2196 4.45723 18.369 5.35083C19.5185 6.24443 20.4488 7.38871 21.0888 8.69642C21.7289 10.0041 22.0619 11.4407 22.0625 12.8967ZM20.9375 12.8967C20.9372 11.6024 20.6391 10.3255 20.0664 9.16485C19.4936 8.00418 18.6615 6.99084 17.6344 6.20323C16.6073 5.41562 15.4128 4.87486 14.1433 4.62278C12.8738 4.37069 11.5633 4.41406 10.3132 4.7495C9.06315 5.08495 7.90701 5.70349 6.93424 6.55727C5.96148 7.41105 5.19817 8.47718 4.70338 9.67317C4.20858 10.8692 3.99557 12.1629 4.08082 13.4544C4.16607 14.7459 4.5473 16.0005 5.195 17.1211C5.23501 17.1901 5.25988 17.2668 5.26796 17.3462C5.27604 17.4255 5.26715 17.5057 5.24188 17.5814L4.07375 21.0858C4.06273 21.1188 4.06113 21.1542 4.06913 21.1881C4.07713 21.222 4.09441 21.253 4.11904 21.2777C4.14366 21.3023 4.17466 21.3196 4.20855 21.3276C4.24245 21.3356 4.2779 21.334 4.31094 21.3229L7.8125 20.1548C7.87 20.1359 7.9301 20.1261 7.99063 20.1258C8.08936 20.1263 8.18627 20.1525 8.27188 20.2017C9.55462 20.9445 11.0104 21.3362 12.4927 21.3375C13.975 21.3388 15.4315 20.9496 16.7155 20.209C17.9995 19.4684 19.0658 18.4026 19.807 17.119C20.5482 15.8353 20.9381 14.379 20.9375 12.8967Z" fill="#F7F1FF"/>
</svg>
