<svg width="17" height="17" viewBox="0 0 17 17" fill="none" xmlns="http://www.w3.org/2000/svg">
<path d="M14.8292 13.9227C13.8411 12.2152 12.2899 11.0171 10.4874 10.5089C11.3637 10.0635 12.0645 9.33583 12.4767 8.44336C12.8889 7.55089 12.9885 6.5456 12.7595 5.58959C12.5304 4.63357 11.9861 3.78256 11.2142 3.17377C10.4423 2.56498 9.48792 2.23389 8.50485 2.23389C7.52179 2.23389 6.56737 2.56498 5.7955 3.17377C5.02363 3.78256 4.47929 4.63357 4.25025 5.58959C4.02121 6.5456 4.12083 7.55089 4.53304 8.44336C4.94524 9.33583 5.64601 10.0635 6.52235 10.5089C4.71985 11.0164 3.1686 12.2146 2.18048 13.9227C2.15335 13.9654 2.13513 14.0131 2.12692 14.063C2.11871 14.1129 2.12068 14.1639 2.13272 14.2131C2.14475 14.2622 2.16659 14.3084 2.19694 14.3488C2.22728 14.3893 2.26549 14.4232 2.30928 14.4485C2.35307 14.4738 2.40152 14.49 2.45173 14.4961C2.50194 14.5022 2.55286 14.4981 2.60143 14.484C2.65 14.4699 2.69522 14.4461 2.73437 14.4141C2.77352 14.3821 2.80579 14.3425 2.82923 14.2977C4.02985 12.2233 6.1511 10.9852 8.50485 10.9852C10.8586 10.9852 12.9799 12.2233 14.1805 14.2977C14.2039 14.3425 14.2362 14.3821 14.2753 14.4141C14.3145 14.4461 14.3597 14.4699 14.4083 14.484C14.4569 14.4981 14.5078 14.5022 14.558 14.4961C14.6082 14.49 14.6566 14.4738 14.7004 14.4485C14.7442 14.4232 14.7824 14.3893 14.8128 14.3488C14.8431 14.3084 14.865 14.2622 14.877 14.2131C14.889 14.1639 14.891 14.1129 14.8828 14.063C14.8746 14.0131 14.8564 13.9654 14.8292 13.9227ZM4.87985 6.61018C4.87985 5.89322 5.09246 5.19236 5.49078 4.59624C5.8891 4.00011 6.45524 3.53548 7.11763 3.26111C7.78001 2.98675 8.50887 2.91496 9.21206 3.05483C9.91524 3.1947 10.5612 3.53995 11.0681 4.04692C11.5751 4.55388 11.9203 5.19979 12.0602 5.90297C12.2001 6.60616 12.1283 7.33502 11.8539 7.9974C11.5795 8.65979 11.1149 9.22593 10.5188 9.62425C9.92267 10.0226 9.22181 10.2352 8.50485 10.2352C7.5438 10.234 6.62244 9.85173 5.94287 9.17216C5.2633 8.49259 4.88101 7.57123 4.87985 6.61018Z" fill="#696969"/>
</svg>
