<svg width="25" height="25" viewBox="0 0 25 25" fill="none" xmlns="http://www.w3.org/2000/svg">
<path d="M21.9023 14.7579L17.4023 19.2579C17.2956 19.3572 17.1546 19.4113 17.0089 19.4087C16.8631 19.4062 16.7241 19.3471 16.621 19.2441C16.518 19.141 16.459 19.002 16.4564 18.8562C16.4538 18.7105 16.5079 18.5695 16.6073 18.4629L20.1463 14.9229H12.5048C9.96954 14.9199 7.53901 13.9114 5.74634 12.1188C3.95367 10.3261 2.94524 7.89557 2.94226 5.36035C2.94226 5.21117 3.00152 5.06809 3.10701 4.9626C3.2125 4.85711 3.35558 4.79785 3.50476 4.79785C3.65394 4.79785 3.79702 4.85711 3.90251 4.9626C4.008 5.06809 4.06726 5.21117 4.06726 5.36035C4.06974 7.59735 4.95949 9.74202 6.54129 11.3238C8.12309 12.9056 10.2678 13.7954 12.5048 13.7979H20.1463L16.6073 10.2579C16.5079 10.1512 16.4538 10.0102 16.4564 9.86446C16.459 9.71873 16.518 9.5797 16.621 9.47664C16.7241 9.37358 16.8631 9.31454 17.0089 9.31197C17.1546 9.3094 17.2956 9.36349 17.4023 9.46285L21.9023 13.9629C22.0076 14.0683 22.0668 14.2113 22.0668 14.3604C22.0668 14.5094 22.0076 14.6524 21.9023 14.7579Z" fill="#F7F1FF"/>
</svg>
