<svg width="24" height="24" viewBox="0 0 24 24" fill="none" xmlns="http://www.w3.org/2000/svg">
<path d="M9.54679 17.3858C9.51116 17.5311 8.63366 20.8124 3.75022 20.8124C3.60104 20.8124 3.45796 20.7531 3.35247 20.6476C3.24699 20.5421 3.18772 20.399 3.18772 20.2499C3.18772 15.3664 6.4746 14.4889 6.61429 14.4542C6.75799 14.4209 6.90903 14.4454 7.03487 14.5224C7.1607 14.5993 7.25127 14.7227 7.28704 14.8658C7.32282 15.0089 7.30095 15.1603 7.22614 15.2875C7.15133 15.4146 7.02957 15.5073 6.8871 15.5455C6.79335 15.5708 4.55835 16.2092 4.33147 19.6705C7.8321 19.4389 8.44897 17.1392 8.45647 17.1149C8.49265 16.97 8.58488 16.8455 8.71287 16.7687C8.84087 16.6918 8.99414 16.669 9.13897 16.7052C9.28381 16.7413 9.40834 16.8336 9.48517 16.9616C9.562 17.0896 9.58484 17.2428 9.54866 17.3877L9.54679 17.3858ZM18.3152 10.9808L17.8127 11.4824V17.0295C17.8131 17.2018 17.7793 17.3725 17.7133 17.5316C17.6473 17.6907 17.5505 17.8352 17.4283 17.9567L14.208 21.177C14.0358 21.3491 13.8192 21.4699 13.5823 21.5259C13.3454 21.5819 13.0976 21.5709 12.8665 21.4942C12.6355 21.4174 12.4304 21.2779 12.2741 21.0913C12.1178 20.9047 12.0165 20.6783 11.9815 20.4374L11.4696 16.767L7.23585 12.5305L3.56741 12.0186C3.32593 11.9844 3.09875 11.8837 2.91134 11.7276C2.72393 11.5715 2.58372 11.3663 2.50642 11.135C2.42912 10.9037 2.4178 10.6555 2.47373 10.4181C2.52965 10.1807 2.65061 9.96358 2.82304 9.79111L6.04335 6.57079C6.16489 6.44878 6.30941 6.35208 6.46856 6.28626C6.6277 6.22045 6.79832 6.18683 6.97054 6.18736H12.5177L13.0193 5.68579C15.4671 3.23798 18.4165 3.13298 19.5705 3.20142C19.8899 3.22114 20.191 3.35683 20.4174 3.58299C20.6437 3.80915 20.7796 4.1102 20.7996 4.42954C20.868 5.58361 20.7621 8.53111 18.3152 10.9808ZM3.72491 10.9049L7.30054 11.4036L11.3927 7.31236H6.97054C6.92089 7.31256 6.87335 7.33246 6.83835 7.36767L3.61897 10.5861C3.59503 10.6103 3.57811 10.6405 3.57002 10.6735C3.56193 10.7065 3.56297 10.7411 3.57304 10.7736C3.58257 10.808 3.60208 10.8389 3.6291 10.8622C3.65613 10.8856 3.68947 10.9004 3.72491 10.9049ZM16.6877 12.6074L12.5955 16.6995L13.0943 20.277C13.0994 20.3115 13.1141 20.3438 13.1365 20.3703C13.159 20.3969 13.1884 20.4167 13.2215 20.4275C13.2546 20.4383 13.29 20.4397 13.3239 20.4315C13.3577 20.4233 13.3886 20.4058 13.413 20.3811L16.6324 17.1617C16.6676 17.1267 16.6875 17.0792 16.6877 17.0295V12.6074ZM19.6765 4.49986C19.6728 4.45557 19.6536 4.41401 19.6222 4.38258C19.5908 4.35116 19.5492 4.33192 19.5049 4.32829C18.4576 4.26107 17.408 4.41871 16.4267 4.79062C15.4453 5.16253 14.5549 5.74009 13.8152 6.48454L8.29616 11.9999L12.0002 15.7039L16.8527 10.8524L17.5193 10.1858C18.2634 9.4466 18.8409 8.55683 19.2129 7.57616C19.585 6.5955 19.743 5.54661 19.6765 4.49986Z" fill="#F7F1FF"/>
</svg>
