<svg width="25" height="25" viewBox="0 0 25 25" fill="none" xmlns="http://www.w3.org/2000/svg">
<path d="M23.1801 6.64089L20.9301 4.43214C20.684 4.18683 20.3508 4.04907 20.0033 4.04907C19.6559 4.04907 19.3227 4.18683 19.0766 4.43214L10.3841 12.9953C10.3667 13.0127 10.346 13.0265 10.3233 13.036C10.3005 13.0454 10.2761 13.0503 10.2515 13.0503C10.2268 13.0503 10.2024 13.0454 10.1797 13.036C10.1569 13.0265 10.1362 13.0127 10.1188 12.9953L10.1104 12.9878L6.67819 9.67745C6.43224 9.43271 6.09938 9.29532 5.75241 9.29532C5.40544 9.29532 5.07258 9.43271 4.82663 9.67745L2.57663 11.9275C2.33074 12.1736 2.19263 12.5072 2.19263 12.8551C2.19263 13.203 2.33074 13.5367 2.57663 13.7828L9.291 20.5328C9.41288 20.6547 9.55758 20.7513 9.71682 20.8173C9.87607 20.8833 10.0468 20.9172 10.2191 20.9172C10.3915 20.9172 10.5622 20.8833 10.7214 20.8173C10.8807 20.7513 11.0254 20.6547 11.1473 20.5328L23.1838 8.50089C23.306 8.37869 23.4029 8.23357 23.4689 8.07384C23.5349 7.91411 23.5686 7.74293 23.5683 7.57011C23.5679 7.39729 23.5335 7.22624 23.4668 7.06678C23.4002 6.90732 23.3028 6.76259 23.1801 6.64089ZM22.3879 7.70401L10.3485 19.7425C10.3134 19.7771 10.2661 19.7965 10.2168 19.7965C10.1675 19.7965 10.1202 19.7771 10.0851 19.7425L3.37069 12.9925C3.33577 12.9573 3.31617 12.9098 3.31617 12.8603C3.31617 12.8107 3.33577 12.7632 3.37069 12.7281L5.62069 10.4781C5.63824 10.4604 5.65914 10.4464 5.68216 10.4369C5.70517 10.4274 5.72985 10.4226 5.75475 10.4228C5.80427 10.4227 5.85179 10.4423 5.88694 10.4771L5.89444 10.4846L9.33132 13.7921C9.57715 14.036 9.9094 14.1729 10.2557 14.1729C10.602 14.1729 10.9342 14.036 11.1801 13.7921L19.8726 5.22808C19.89 5.21007 19.911 5.19576 19.9341 5.18599C19.9572 5.17622 19.982 5.17118 20.0071 5.17118C20.0322 5.17118 20.057 5.17622 20.0801 5.18599C20.1032 5.19576 20.1242 5.21007 20.1416 5.22808L22.3916 7.43683C22.4091 7.45452 22.4229 7.47551 22.4322 7.49858C22.4414 7.52165 22.446 7.54634 22.4457 7.5712C22.4453 7.59607 22.4401 7.62062 22.4301 7.64342C22.4202 7.66622 22.4058 7.68682 22.3879 7.70401Z" fill="#F7F1FF"/>
</svg>
