<svg width="17" height="17" viewBox="0 0 17 17" fill="none" xmlns="http://www.w3.org/2000/svg">
<path d="M14.3541 10.6291L11.4016 9.30601C11.2679 9.24869 11.1219 9.22565 10.977 9.23896C10.8321 9.25227 10.6927 9.30153 10.5716 9.38226C10.5594 9.39015 10.5477 9.39892 10.5366 9.40851L8.99352 10.721C8.97751 10.7297 8.95968 10.7346 8.94146 10.7353C8.92324 10.7359 8.90511 10.7323 8.88852 10.7248C7.89664 10.246 6.86914 9.22476 6.38852 8.24664C6.38051 8.23029 6.37635 8.21234 6.37635 8.19414C6.37635 8.17594 6.38051 8.15798 6.38852 8.14164L7.70539 6.57914C7.71484 6.56758 7.72361 6.55547 7.73164 6.54289C7.81126 6.42133 7.85935 6.28185 7.87157 6.13706C7.88379 5.99226 7.85976 5.8467 7.80164 5.71351L6.48789 2.76601C6.41329 2.59202 6.28426 2.44691 6.12018 2.35248C5.9561 2.25804 5.76582 2.21937 5.57789 2.24226C4.76116 2.34964 4.01146 2.75072 3.46891 3.37058C2.92635 3.99043 2.62806 4.78663 2.62977 5.61039C2.62977 10.5041 6.61102 14.4854 11.5048 14.4854C12.3285 14.487 13.1246 14.1886 13.7444 13.6461C14.3643 13.1036 14.7654 12.3539 14.8729 11.5373C14.8957 11.3502 14.8576 11.1608 14.7641 10.9972C14.6707 10.8335 14.5269 10.7045 14.3541 10.6291ZM11.5048 13.7354C7.02477 13.7354 3.37977 10.0904 3.37977 5.61039C3.37768 4.96909 3.60915 4.34897 4.03092 3.86589C4.4527 3.38281 5.03593 3.06982 5.67164 2.98539H5.68602C5.7112 2.98586 5.73566 2.99393 5.75618 3.00854C5.7767 3.02315 5.79233 3.04362 5.80102 3.06726L7.11977 6.01164C7.12729 6.02801 7.13118 6.04581 7.13118 6.06382C7.13118 6.08184 7.12729 6.09964 7.11977 6.11601L5.80039 7.68226C5.79055 7.69344 5.78157 7.70535 5.77352 7.71789C5.69096 7.84392 5.64234 7.98914 5.63238 8.13948C5.62241 8.28982 5.65144 8.44018 5.71664 8.57601C6.27102 9.71101 7.41477 10.846 8.56227 11.4004C8.69889 11.4652 8.84999 11.4936 9.00082 11.4826C9.15165 11.4716 9.29707 11.4218 9.42289 11.3379C9.43477 11.3298 9.44664 11.321 9.45789 11.3116L11.0004 9.99914C11.0156 9.99095 11.0324 9.98615 11.0497 9.98508C11.067 9.984 11.0843 9.98666 11.1004 9.99289L14.0535 11.316C14.0776 11.3263 14.0979 11.3439 14.1115 11.3663C14.1251 11.3887 14.1312 11.4149 14.1291 11.441C14.0452 12.077 13.7325 12.6607 13.2495 13.0829C12.7665 13.5052 12.1463 13.7371 11.5048 13.7354Z" fill="#696969"/>
</svg>
