<svg width="33" height="33" viewBox="0 0 33 33" fill="none" xmlns="http://www.w3.org/2000/svg">
<path d="M27.0348 22.6404L21.0348 28.6404C20.8926 28.7728 20.7045 28.845 20.5102 28.8415C20.3159 28.8381 20.1306 28.7594 19.9931 28.622C19.8557 28.4846 19.777 28.2992 19.7736 28.1049C19.7702 27.9106 19.8423 27.7225 19.9748 27.5804L24.6935 22.8604H8.50476C8.30585 22.8604 8.11508 22.7813 7.97443 22.6407C7.83378 22.5 7.75476 22.3093 7.75476 22.1104V4.11035C7.75476 3.91144 7.83378 3.72067 7.97443 3.58002C8.11508 3.43937 8.30585 3.36035 8.50476 3.36035C8.70367 3.36035 8.89444 3.43937 9.03509 3.58002C9.17574 3.72067 9.25476 3.91144 9.25476 4.11035V21.3604H24.6935L19.9748 16.6404C19.9011 16.5717 19.842 16.4889 19.801 16.3969C19.76 16.3049 19.7379 16.2056 19.7362 16.1049C19.7344 16.0042 19.7529 15.9041 19.7906 15.8108C19.8284 15.7174 19.8845 15.6325 19.9557 15.5613C20.0269 15.4901 20.1118 15.4339 20.2052 15.3962C20.2986 15.3585 20.3986 15.34 20.4993 15.3418C20.6 15.3435 20.6993 15.3656 20.7913 15.4066C20.8833 15.4476 20.9661 15.5067 21.0348 15.5804L27.0348 21.5804C27.1752 21.721 27.2541 21.9116 27.2541 22.1104C27.2541 22.3091 27.1752 22.4997 27.0348 22.6404Z" fill="#272727"/>
</svg>
