<svg width="25" height="25" viewBox="0 0 25 25" fill="none" xmlns="http://www.w3.org/2000/svg">
<path d="M9.87977 5.54785H4.25476C3.90667 5.54785 3.57283 5.68613 3.32668 5.93227C3.08054 6.17842 2.94226 6.51226 2.94226 6.86035V12.8604C2.94226 13.2085 3.08054 13.5423 3.32668 13.7884C3.57283 14.0346 3.90667 14.1729 4.25476 14.1729H10.0673V15.1104C10.0673 15.9557 9.73144 16.7665 9.13367 17.3643C8.5359 17.962 7.72514 18.2979 6.87976 18.2979C6.73058 18.2979 6.58751 18.3571 6.48202 18.4626C6.37653 18.5681 6.31726 18.7112 6.31726 18.8604C6.31726 19.0095 6.37653 19.1526 6.48202 19.2581C6.58751 19.3636 6.73058 19.4229 6.87976 19.4229C8.02306 19.4214 9.11909 18.9665 9.92752 18.1581C10.736 17.3497 11.1908 16.2537 11.1923 15.1104V6.86035C11.1923 6.51226 11.054 6.17842 10.8078 5.93227C10.5617 5.68613 10.2279 5.54785 9.87977 5.54785ZM10.0673 13.0479H4.25476C4.20503 13.0479 4.15734 13.0281 4.12218 12.9929C4.08702 12.9578 4.06726 12.9101 4.06726 12.8604V6.86035C4.06726 6.81062 4.08702 6.76293 4.12218 6.72777C4.15734 6.69261 4.20503 6.67285 4.25476 6.67285H9.87977C9.9295 6.67285 9.97719 6.69261 10.0124 6.72777C10.0475 6.76293 10.0673 6.81062 10.0673 6.86035V13.0479ZM20.7548 5.54785H15.1298C14.7817 5.54785 14.4478 5.68613 14.2017 5.93227C13.9556 6.17842 13.8173 6.51226 13.8173 6.86035V12.8604C13.8173 13.2085 13.9556 13.5423 14.2017 13.7884C14.4478 14.0346 14.7817 14.1729 15.1298 14.1729H20.9423V15.1104C20.9423 15.9557 20.6065 16.7665 20.0087 17.3643C19.4109 17.962 18.6002 18.2979 17.7548 18.2979C17.6056 18.2979 17.4625 18.3571 17.357 18.4626C17.2515 18.5681 17.1923 18.7112 17.1923 18.8604C17.1923 19.0095 17.2515 19.1526 17.357 19.2581C17.4625 19.3636 17.6056 19.4229 17.7548 19.4229C18.8981 19.4214 19.9941 18.9665 20.8025 18.1581C21.611 17.3497 22.0658 16.2537 22.0673 15.1104V6.86035C22.0673 6.51226 21.929 6.17842 21.6829 5.93227C21.4367 5.68613 21.1029 5.54785 20.7548 5.54785ZM20.9423 13.0479H15.1298C15.08 13.0479 15.0324 13.0281 14.9972 12.9929C14.962 12.9578 14.9423 12.9101 14.9423 12.8604V6.86035C14.9423 6.81062 14.962 6.76293 14.9972 6.72777C15.0324 6.69261 15.08 6.67285 15.1298 6.67285H20.7548C20.8045 6.67285 20.8522 6.69261 20.8874 6.72777C20.9225 6.76293 20.9423 6.81062 20.9423 6.86035V13.0479Z" fill="#704FAD"/>
</svg>
